M48
; DRILL file {KiCad 9.0.0} date 2026-05-29T15:15:51-0700
; FORMAT={-:-/ absolute / inch / decimal}
; #@! TF.CreationDate,2026-05-29T15:15:51-07:00
; #@! TF.GenerationSoftware,Kicad,Pcbnew,9.0.0
; #@! TF.FileFunction,Plated,1,4,PTH
FMAT,2
INCH
; #@! TA.AperFunction,Plated,PTH,ViaDrill
T1C0.0118
; #@! TA.AperFunction,Plated,PTH,ComponentDrill
T2C0.0280
; #@! TA.AperFunction,Plated,PTH,ComponentDrill
T3C0.0630
; #@! TA.AperFunction,Plated,PTH,ComponentDrill
T4C0.1260
%
G90
G05
T1
X4.913Y-3.42
X4.99Y-2.735
X5.06Y-3.87
X5.09Y-2.855
X5.09Y-3.0
X5.13Y-2.975
X5.2Y-2.9857
X5.2Y-3.0861
X5.245Y-2.72
X5.2589Y-2.84
X5.32Y-2.9857
X5.32Y-3.075
X5.385Y-2.82
X5.564Y-3.185
X5.575Y-2.78
X5.58Y-3.51
X5.61Y-3.93
X6.11Y-3.135
X6.115Y-2.88
X6.14Y-3.45
T2
X4.913Y-3.225
X4.913Y-3.275
X4.913Y-3.325
X4.913Y-3.375
X5.013Y-3.2
X5.013Y-3.25
X5.013Y-3.3
X5.013Y-3.35
X5.013Y-3.4
T3
X5.115Y-2.61
X5.3Y-2.61
X5.485Y-2.61
X5.67Y-2.61
X5.855Y-2.61
T4
X4.775Y-2.68
X4.775Y-3.85
X6.1489Y-2.68
X6.1489Y-3.85
M30
