%TF.GenerationSoftware,KiCad,Pcbnew,9.0.0*%
%TF.CreationDate,2026-05-29T15:15:51-07:00*%
%TF.ProjectId,RM-VT01A_Breakout_Board,524d2d56-5430-4314-915f-427265616b6f,rev?*%
%TF.SameCoordinates,Original*%
%TF.FileFunction,Copper,L3,Inr*%
%TF.FilePolarity,Positive*%
%FSLAX46Y46*%
G04 Gerber Fmt 4.6, Leading zero omitted, Abs format (unit mm)*
G04 Created by KiCad (PCBNEW 9.0.0) date 2026-05-29 15:15:51*
%MOMM*%
%LPD*%
G01*
G04 APERTURE LIST*
%TA.AperFunction,ComponentPad*%
%ADD10C,5.500000*%
%TD*%
%TA.AperFunction,ComponentPad*%
%ADD11C,3.000000*%
%TD*%
%TA.AperFunction,ComponentPad*%
%ADD12C,1.168400*%
%TD*%
%TA.AperFunction,ViaPad*%
%ADD13C,0.600000*%
%TD*%
G04 APERTURE END LIST*
D10*
%TO.N,N/C*%
%TO.C,H1*%
X121285000Y-68072000D03*
%TD*%
D11*
%TO.N,CTRL_R2*%
%TO.C,R2*%
X139319000Y-66294000D03*
%TD*%
D10*
%TO.N,N/C*%
%TO.C,H4*%
X156183000Y-97790000D03*
%TD*%
D11*
%TO.N,CTRL_R1*%
%TO.C,R1*%
X148717000Y-66294000D03*
%TD*%
D10*
%TO.N,N/C*%
%TO.C,H3*%
X121285000Y-97790000D03*
%TD*%
D11*
%TO.N,VDD*%
%TO.C,VDD*%
X129921000Y-66294000D03*
%TD*%
D10*
%TO.N,N/C*%
%TO.C,H2*%
X156183000Y-68072000D03*
%TD*%
D12*
%TO.N,CTRL_R2*%
%TO.C,J1*%
X127330200Y-81280000D03*
%TO.N,unconnected-(J1-Pad2)*%
X127330200Y-82550000D03*
%TO.N,CTRL_EN*%
X127330200Y-83820000D03*
%TO.N,CTRL_R1*%
X127330200Y-85090000D03*
%TO.N,CONN_COAXIAL*%
X127330200Y-86360000D03*
%TO.N,VDD*%
X124790200Y-81915000D03*
%TO.N,unconnected-(J1-Pad7)*%
X124790200Y-83185000D03*
%TO.N,unconnected-(J1-Pad8)*%
X124790200Y-84455000D03*
%TO.N,GND*%
X124790200Y-85725000D03*
%TD*%
D11*
%TO.N,CTRL_EN*%
%TO.C,EN*%
X144018000Y-66294000D03*
%TD*%
%TO.N,GND*%
%TO.C,GND*%
X134620000Y-66294000D03*
%TD*%
D13*
%TO.N,GND*%
X155956000Y-87630000D03*
X135128000Y-78105000D03*
X128524000Y-98298000D03*
X141605000Y-70612000D03*
X124790200Y-86868000D03*
X133223000Y-69088000D03*
X155321000Y-73152000D03*
X141325600Y-80899000D03*
X155194000Y-79629000D03*
X132080000Y-78386000D03*
X142494000Y-99822000D03*
X130302000Y-75565000D03*
X132080000Y-75836000D03*
X126746000Y-69469000D03*
X129286000Y-76200000D03*
X136779000Y-71628000D03*
X135128000Y-75836000D03*
X141732000Y-89154000D03*
%TO.N,VDD*%
X129286000Y-72517000D03*
X133575600Y-72136000D03*
%TD*%
%TA.AperFunction,Conductor*%
%TO.N,VDD*%
G36*
X129404249Y-64147185D02*
G01*
X129450004Y-64199989D01*
X129459948Y-64269147D01*
X129430923Y-64332703D01*
X129372145Y-64370477D01*
X129369303Y-64371275D01*
X129276744Y-64396075D01*
X129034528Y-64496404D01*
X129034517Y-64496409D01*
X128807471Y-64627496D01*
X128694633Y-64714079D01*
X128694633Y-64714080D01*
X129558706Y-65578153D01*
X129542058Y-65585049D01*
X129411030Y-65672599D01*
X129299599Y-65784030D01*
X129212049Y-65915058D01*
X129205153Y-65931706D01*
X128341080Y-65067633D01*
X128341079Y-65067633D01*
X128254496Y-65180471D01*
X128123409Y-65407517D01*
X128123404Y-65407528D01*
X128023075Y-65649744D01*
X127955222Y-65902979D01*
X127955220Y-65902990D01*
X127921000Y-66162905D01*
X127921000Y-66425094D01*
X127955220Y-66685009D01*
X127955222Y-66685020D01*
X128023075Y-66938255D01*
X128123404Y-67180471D01*
X128123409Y-67180482D01*
X128254488Y-67407516D01*
X128254494Y-67407524D01*
X128341080Y-67520365D01*
X129205152Y-66656292D01*
X129212049Y-66672942D01*
X129299599Y-66803970D01*
X129411030Y-66915401D01*
X129542058Y-67002951D01*
X129558705Y-67009846D01*
X128694633Y-67873917D01*
X128694633Y-67873918D01*
X128807475Y-67960505D01*
X128807483Y-67960511D01*
X129034517Y-68091590D01*
X129034528Y-68091595D01*
X129276744Y-68191924D01*
X129529979Y-68259777D01*
X129529990Y-68259779D01*
X129789905Y-68293999D01*
X129789920Y-68294000D01*
X130052080Y-68294000D01*
X130052094Y-68293999D01*
X130312009Y-68259779D01*
X130312020Y-68259777D01*
X130565255Y-68191924D01*
X130807471Y-68091595D01*
X130807482Y-68091590D01*
X131034516Y-67960511D01*
X131034534Y-67960499D01*
X131147365Y-67873919D01*
X131147365Y-67873917D01*
X130283294Y-67009846D01*
X130299942Y-67002951D01*
X130430970Y-66915401D01*
X130542401Y-66803970D01*
X130629951Y-66672942D01*
X130636846Y-66656294D01*
X131500917Y-67520365D01*
X131500919Y-67520365D01*
X131587499Y-67407534D01*
X131587511Y-67407516D01*
X131718590Y-67180482D01*
X131718595Y-67180471D01*
X131818924Y-66938255D01*
X131886777Y-66685020D01*
X131886779Y-66685009D01*
X131920999Y-66425094D01*
X131921000Y-66425080D01*
X131921000Y-66162919D01*
X131920999Y-66162905D01*
X131886779Y-65902990D01*
X131886777Y-65902979D01*
X131818924Y-65649744D01*
X131718595Y-65407528D01*
X131718590Y-65407517D01*
X131587511Y-65180483D01*
X131587505Y-65180475D01*
X131500918Y-65067633D01*
X131500917Y-65067633D01*
X130636846Y-65931704D01*
X130629951Y-65915058D01*
X130542401Y-65784030D01*
X130430970Y-65672599D01*
X130299942Y-65585049D01*
X130283292Y-65578152D01*
X131147365Y-64714080D01*
X131034524Y-64627494D01*
X131034516Y-64627488D01*
X130807482Y-64496409D01*
X130807471Y-64496404D01*
X130565255Y-64396075D01*
X130472697Y-64371275D01*
X130413036Y-64334910D01*
X130382507Y-64272063D01*
X130390802Y-64202688D01*
X130435287Y-64148810D01*
X130501839Y-64127535D01*
X130504790Y-64127500D01*
X134034279Y-64127500D01*
X134101318Y-64147185D01*
X134147073Y-64199989D01*
X134157017Y-64269147D01*
X134127992Y-64332703D01*
X134069214Y-64370477D01*
X134066413Y-64371263D01*
X133975581Y-64395602D01*
X133975579Y-64395602D01*
X133975578Y-64395603D01*
X133975571Y-64395605D01*
X133733309Y-64495953D01*
X133733299Y-64495958D01*
X133506196Y-64627075D01*
X133298148Y-64786718D01*
X133112718Y-64972148D01*
X132953075Y-65180196D01*
X132821958Y-65407299D01*
X132821953Y-65407309D01*
X132721605Y-65649571D01*
X132721602Y-65649581D01*
X132653730Y-65902884D01*
X132653716Y-65902990D01*
X132619500Y-66162872D01*
X132619500Y-66425127D01*
X132632959Y-66527351D01*
X132653730Y-66685116D01*
X132721558Y-66938255D01*
X132721602Y-66938418D01*
X132721605Y-66938428D01*
X132821953Y-67180690D01*
X132821958Y-67180700D01*
X132953075Y-67407803D01*
X133112718Y-67615851D01*
X133112726Y-67615860D01*
X133298140Y-67801274D01*
X133298148Y-67801281D01*
X133506196Y-67960924D01*
X133733299Y-68092041D01*
X133733309Y-68092046D01*
X133975571Y-68192394D01*
X133975581Y-68192398D01*
X134228884Y-68260270D01*
X134477188Y-68292960D01*
X134485074Y-68293999D01*
X134488880Y-68294500D01*
X134488887Y-68294500D01*
X134751113Y-68294500D01*
X134751120Y-68294500D01*
X135011116Y-68260270D01*
X135264419Y-68192398D01*
X135506697Y-68092043D01*
X135733803Y-67960924D01*
X135941851Y-67801282D01*
X135941855Y-67801277D01*
X135941860Y-67801274D01*
X136127274Y-67615860D01*
X136127277Y-67615855D01*
X136127282Y-67615851D01*
X136286924Y-67407803D01*
X136418043Y-67180697D01*
X136518398Y-66938419D01*
X136586270Y-66685116D01*
X136620500Y-66425120D01*
X136620500Y-66162880D01*
X136586270Y-65902884D01*
X136518398Y-65649581D01*
X136491668Y-65585049D01*
X136418046Y-65407309D01*
X136418041Y-65407299D01*
X136286924Y-65180196D01*
X136164424Y-65020554D01*
X136127282Y-64972149D01*
X136127281Y-64972148D01*
X136127274Y-64972140D01*
X135941860Y-64786726D01*
X135941851Y-64786718D01*
X135733803Y-64627075D01*
X135506700Y-64495958D01*
X135506690Y-64495953D01*
X135264428Y-64395605D01*
X135264421Y-64395603D01*
X135264422Y-64395603D01*
X135264419Y-64395602D01*
X135173625Y-64371274D01*
X135113967Y-64334910D01*
X135083438Y-64272063D01*
X135091733Y-64202687D01*
X135136218Y-64148809D01*
X135202770Y-64127535D01*
X135205721Y-64127500D01*
X138733279Y-64127500D01*
X138800318Y-64147185D01*
X138846073Y-64199989D01*
X138856017Y-64269147D01*
X138826992Y-64332703D01*
X138768214Y-64370477D01*
X138765413Y-64371263D01*
X138674581Y-64395602D01*
X138674579Y-64395602D01*
X138674578Y-64395603D01*
X138674571Y-64395605D01*
X138432309Y-64495953D01*
X138432299Y-64495958D01*
X138205196Y-64627075D01*
X137997148Y-64786718D01*
X137811718Y-64972148D01*
X137652075Y-65180196D01*
X137520958Y-65407299D01*
X137520953Y-65407309D01*
X137420605Y-65649571D01*
X137420602Y-65649581D01*
X137352730Y-65902884D01*
X137352716Y-65902990D01*
X137318500Y-66162872D01*
X137318500Y-66425127D01*
X137331959Y-66527351D01*
X137352730Y-66685116D01*
X137420558Y-66938255D01*
X137420602Y-66938418D01*
X137420605Y-66938428D01*
X137520953Y-67180690D01*
X137520958Y-67180700D01*
X137652075Y-67407803D01*
X137811718Y-67615851D01*
X137811726Y-67615860D01*
X137997140Y-67801274D01*
X137997148Y-67801281D01*
X138205196Y-67960924D01*
X138432299Y-68092041D01*
X138432309Y-68092046D01*
X138674571Y-68192394D01*
X138674581Y-68192398D01*
X138927884Y-68260270D01*
X139176188Y-68292960D01*
X139184074Y-68293999D01*
X139187880Y-68294500D01*
X139187887Y-68294500D01*
X139450113Y-68294500D01*
X139450120Y-68294500D01*
X139710116Y-68260270D01*
X139963419Y-68192398D01*
X140205697Y-68092043D01*
X140432803Y-67960924D01*
X140640851Y-67801282D01*
X140640855Y-67801277D01*
X140640860Y-67801274D01*
X140826274Y-67615860D01*
X140826277Y-67615855D01*
X140826282Y-67615851D01*
X140985924Y-67407803D01*
X141117043Y-67180697D01*
X141217398Y-66938419D01*
X141285270Y-66685116D01*
X141319500Y-66425120D01*
X141319500Y-66162880D01*
X141285270Y-65902884D01*
X141217398Y-65649581D01*
X141190668Y-65585049D01*
X141117046Y-65407309D01*
X141117041Y-65407299D01*
X140985924Y-65180196D01*
X140863424Y-65020554D01*
X140826282Y-64972149D01*
X140826281Y-64972148D01*
X140826274Y-64972140D01*
X140640860Y-64786726D01*
X140640851Y-64786718D01*
X140432803Y-64627075D01*
X140205700Y-64495958D01*
X140205690Y-64495953D01*
X139963428Y-64395605D01*
X139963421Y-64395603D01*
X139963422Y-64395603D01*
X139963419Y-64395602D01*
X139872625Y-64371274D01*
X139812967Y-64334910D01*
X139782438Y-64272063D01*
X139790733Y-64202687D01*
X139835218Y-64148809D01*
X139901770Y-64127535D01*
X139904721Y-64127500D01*
X143432279Y-64127500D01*
X143499318Y-64147185D01*
X143545073Y-64199989D01*
X143555017Y-64269147D01*
X143525992Y-64332703D01*
X143467214Y-64370477D01*
X143464413Y-64371263D01*
X143373581Y-64395602D01*
X143373579Y-64395602D01*
X143373578Y-64395603D01*
X143373571Y-64395605D01*
X143131309Y-64495953D01*
X143131299Y-64495958D01*
X142904196Y-64627075D01*
X142696148Y-64786718D01*
X142510718Y-64972148D01*
X142351075Y-65180196D01*
X142219958Y-65407299D01*
X142219953Y-65407309D01*
X142119605Y-65649571D01*
X142119602Y-65649581D01*
X142051730Y-65902884D01*
X142051716Y-65902990D01*
X142017500Y-66162872D01*
X142017500Y-66425127D01*
X142030959Y-66527351D01*
X142051730Y-66685116D01*
X142119558Y-66938255D01*
X142119602Y-66938418D01*
X142119605Y-66938428D01*
X142219953Y-67180690D01*
X142219958Y-67180700D01*
X142351075Y-67407803D01*
X142510718Y-67615851D01*
X142510726Y-67615860D01*
X142696140Y-67801274D01*
X142696148Y-67801281D01*
X142904196Y-67960924D01*
X143131299Y-68092041D01*
X143131309Y-68092046D01*
X143373571Y-68192394D01*
X143373581Y-68192398D01*
X143626884Y-68260270D01*
X143875188Y-68292960D01*
X143883074Y-68293999D01*
X143886880Y-68294500D01*
X143886887Y-68294500D01*
X144149113Y-68294500D01*
X144149120Y-68294500D01*
X144409116Y-68260270D01*
X144662419Y-68192398D01*
X144904697Y-68092043D01*
X145131803Y-67960924D01*
X145339851Y-67801282D01*
X145339855Y-67801277D01*
X145339860Y-67801274D01*
X145525274Y-67615860D01*
X145525277Y-67615855D01*
X145525282Y-67615851D01*
X145684924Y-67407803D01*
X145816043Y-67180697D01*
X145916398Y-66938419D01*
X145984270Y-66685116D01*
X146018500Y-66425120D01*
X146018500Y-66162880D01*
X145984270Y-65902884D01*
X145916398Y-65649581D01*
X145889668Y-65585049D01*
X145816046Y-65407309D01*
X145816041Y-65407299D01*
X145684924Y-65180196D01*
X145562424Y-65020554D01*
X145525282Y-64972149D01*
X145525281Y-64972148D01*
X145525274Y-64972140D01*
X145339860Y-64786726D01*
X145339851Y-64786718D01*
X145131803Y-64627075D01*
X144904700Y-64495958D01*
X144904690Y-64495953D01*
X144662428Y-64395605D01*
X144662421Y-64395603D01*
X144662422Y-64395603D01*
X144662419Y-64395602D01*
X144571625Y-64371274D01*
X144511967Y-64334910D01*
X144481438Y-64272063D01*
X144489733Y-64202687D01*
X144534218Y-64148809D01*
X144600770Y-64127535D01*
X144603721Y-64127500D01*
X148131279Y-64127500D01*
X148198318Y-64147185D01*
X148244073Y-64199989D01*
X148254017Y-64269147D01*
X148224992Y-64332703D01*
X148166214Y-64370477D01*
X148163413Y-64371263D01*
X148072581Y-64395602D01*
X148072579Y-64395602D01*
X148072578Y-64395603D01*
X148072571Y-64395605D01*
X147830309Y-64495953D01*
X147830299Y-64495958D01*
X147603196Y-64627075D01*
X147395148Y-64786718D01*
X147209718Y-64972148D01*
X147050075Y-65180196D01*
X146918958Y-65407299D01*
X146918953Y-65407309D01*
X146818605Y-65649571D01*
X146818602Y-65649581D01*
X146750730Y-65902884D01*
X146750716Y-65902990D01*
X146716500Y-66162872D01*
X146716500Y-66425127D01*
X146729959Y-66527351D01*
X146750730Y-66685116D01*
X146818558Y-66938255D01*
X146818602Y-66938418D01*
X146818605Y-66938428D01*
X146918953Y-67180690D01*
X146918958Y-67180700D01*
X147050075Y-67407803D01*
X147209718Y-67615851D01*
X147209726Y-67615860D01*
X147395140Y-67801274D01*
X147395148Y-67801281D01*
X147603196Y-67960924D01*
X147830299Y-68092041D01*
X147830309Y-68092046D01*
X148072571Y-68192394D01*
X148072581Y-68192398D01*
X148325884Y-68260270D01*
X148574188Y-68292960D01*
X148582074Y-68293999D01*
X148585880Y-68294500D01*
X148585887Y-68294500D01*
X148848113Y-68294500D01*
X148848120Y-68294500D01*
X149108116Y-68260270D01*
X149361419Y-68192398D01*
X149603697Y-68092043D01*
X149830803Y-67960924D01*
X149894154Y-67912313D01*
X152932500Y-67912313D01*
X152932500Y-68231687D01*
X152938687Y-68294500D01*
X152963803Y-68549522D01*
X153026109Y-68862754D01*
X153118820Y-69168382D01*
X153241040Y-69463446D01*
X153241042Y-69463451D01*
X153391584Y-69745094D01*
X153391601Y-69745122D01*
X153569012Y-70010638D01*
X153569029Y-70010661D01*
X153771638Y-70257540D01*
X153997459Y-70483361D01*
X153997464Y-70483365D01*
X153997465Y-70483366D01*
X154244344Y-70685975D01*
X154244351Y-70685980D01*
X154244361Y-70685987D01*
X154509877Y-70863398D01*
X154509882Y-70863401D01*
X154509894Y-70863409D01*
X154509903Y-70863413D01*
X154509905Y-70863415D01*
X154791548Y-71013957D01*
X154791550Y-71013957D01*
X154791556Y-71013961D01*
X155086619Y-71136180D01*
X155392240Y-71228889D01*
X155705477Y-71291196D01*
X156023313Y-71322500D01*
X156023316Y-71322500D01*
X156342684Y-71322500D01*
X156342687Y-71322500D01*
X156660523Y-71291196D01*
X156973760Y-71228889D01*
X157279381Y-71136180D01*
X157574444Y-71013961D01*
X157856106Y-70863409D01*
X158121656Y-70685975D01*
X158368535Y-70483366D01*
X158594366Y-70257535D01*
X158796975Y-70010656D01*
X158974409Y-69745106D01*
X159124961Y-69463444D01*
X159247180Y-69168381D01*
X159339889Y-68862760D01*
X159402196Y-68549523D01*
X159433500Y-68231687D01*
X159433500Y-67912313D01*
X159402196Y-67594477D01*
X159339889Y-67281240D01*
X159247180Y-66975619D01*
X159124961Y-66680556D01*
X159107320Y-66647553D01*
X158974415Y-66398905D01*
X158974413Y-66398903D01*
X158974409Y-66398894D01*
X158956969Y-66372793D01*
X158796987Y-66133361D01*
X158796977Y-66133347D01*
X158796975Y-66133344D01*
X158594366Y-65886465D01*
X158594365Y-65886464D01*
X158594361Y-65886459D01*
X158368540Y-65660638D01*
X158121661Y-65458029D01*
X158121638Y-65458012D01*
X157856122Y-65280601D01*
X157856094Y-65280584D01*
X157574451Y-65130042D01*
X157574446Y-65130040D01*
X157279382Y-65007820D01*
X156973754Y-64915109D01*
X156660521Y-64852803D01*
X156660522Y-64852803D01*
X156421141Y-64829227D01*
X156342687Y-64821500D01*
X156023313Y-64821500D01*
X155950822Y-64828639D01*
X155705477Y-64852803D01*
X155392245Y-64915109D01*
X155086617Y-65007820D01*
X154791553Y-65130040D01*
X154791548Y-65130042D01*
X154509905Y-65280584D01*
X154509877Y-65280601D01*
X154244361Y-65458012D01*
X154244338Y-65458029D01*
X153997459Y-65660638D01*
X153771638Y-65886459D01*
X153569029Y-66133338D01*
X153569012Y-66133361D01*
X153391601Y-66398877D01*
X153391584Y-66398905D01*
X153241042Y-66680548D01*
X153241040Y-66680553D01*
X153118820Y-66975617D01*
X153026109Y-67281245D01*
X152963803Y-67594477D01*
X152942489Y-67810893D01*
X152932500Y-67912313D01*
X149894154Y-67912313D01*
X150038851Y-67801282D01*
X150038854Y-67801279D01*
X150038860Y-67801274D01*
X150224274Y-67615860D01*
X150224277Y-67615855D01*
X150224282Y-67615851D01*
X150383924Y-67407803D01*
X150515043Y-67180697D01*
X150615398Y-66938419D01*
X150683270Y-66685116D01*
X150717500Y-66425120D01*
X150717500Y-66162880D01*
X150683270Y-65902884D01*
X150615398Y-65649581D01*
X150588668Y-65585049D01*
X150515046Y-65407309D01*
X150515041Y-65407299D01*
X150383924Y-65180196D01*
X150261424Y-65020554D01*
X150224282Y-64972149D01*
X150224281Y-64972148D01*
X150224274Y-64972140D01*
X150038860Y-64786726D01*
X150038851Y-64786718D01*
X149830803Y-64627075D01*
X149603700Y-64495958D01*
X149603690Y-64495953D01*
X149361428Y-64395605D01*
X149361421Y-64395603D01*
X149361422Y-64395603D01*
X149361419Y-64395602D01*
X149270625Y-64371274D01*
X149210967Y-64334910D01*
X149180438Y-64272063D01*
X149188733Y-64202687D01*
X149233218Y-64148809D01*
X149299770Y-64127535D01*
X149302721Y-64127500D01*
X156144108Y-64127500D01*
X156207128Y-64127500D01*
X156212855Y-64127632D01*
X156568236Y-64144062D01*
X156579626Y-64145118D01*
X156929132Y-64193872D01*
X156940376Y-64195974D01*
X157283893Y-64276768D01*
X157294883Y-64279895D01*
X157629500Y-64392047D01*
X157640154Y-64396175D01*
X157962980Y-64538716D01*
X157973206Y-64543808D01*
X158210178Y-64675801D01*
X158281499Y-64715527D01*
X158291237Y-64721556D01*
X158386362Y-64786718D01*
X158573790Y-64915109D01*
X158582367Y-64920984D01*
X158591504Y-64927885D01*
X158834951Y-65130040D01*
X158862981Y-65153316D01*
X158871445Y-65161032D01*
X159120967Y-65410554D01*
X159128683Y-65419018D01*
X159354112Y-65690492D01*
X159361015Y-65699632D01*
X159560443Y-65990762D01*
X159566472Y-66000500D01*
X159640468Y-66133347D01*
X159729952Y-66294001D01*
X159738184Y-66308779D01*
X159743289Y-66319032D01*
X159885819Y-66641832D01*
X159889956Y-66652510D01*
X159900884Y-66685114D01*
X160002100Y-66987103D01*
X160005234Y-66998119D01*
X160086023Y-67341615D01*
X160088128Y-67352874D01*
X160136880Y-67702366D01*
X160137937Y-67713770D01*
X160154368Y-68069144D01*
X160154500Y-68074871D01*
X160154500Y-97914128D01*
X160154368Y-97919855D01*
X160137937Y-98275229D01*
X160136880Y-98286633D01*
X160088128Y-98636125D01*
X160086023Y-98647384D01*
X160005234Y-98990880D01*
X160002100Y-99001896D01*
X159889957Y-99336487D01*
X159885819Y-99347167D01*
X159743289Y-99669967D01*
X159738184Y-99680220D01*
X159566472Y-99988499D01*
X159560443Y-99998237D01*
X159361015Y-100289367D01*
X159354112Y-100298507D01*
X159128683Y-100569981D01*
X159120967Y-100578445D01*
X158871445Y-100827967D01*
X158862981Y-100835683D01*
X158591507Y-101061112D01*
X158582367Y-101068015D01*
X158291237Y-101267443D01*
X158281499Y-101273472D01*
X157973220Y-101445184D01*
X157962967Y-101450289D01*
X157640167Y-101592819D01*
X157629487Y-101596957D01*
X157294896Y-101709100D01*
X157283880Y-101712234D01*
X156940384Y-101793023D01*
X156929125Y-101795128D01*
X156579633Y-101843880D01*
X156568229Y-101844937D01*
X156212855Y-101861368D01*
X156207128Y-101861500D01*
X121287872Y-101861500D01*
X121282145Y-101861368D01*
X120926770Y-101844937D01*
X120915366Y-101843880D01*
X120565874Y-101795128D01*
X120554615Y-101793023D01*
X120211119Y-101712234D01*
X120200103Y-101709100D01*
X119865512Y-101596957D01*
X119854832Y-101592819D01*
X119532028Y-101450287D01*
X119521784Y-101445186D01*
X119419703Y-101388327D01*
X119213500Y-101273472D01*
X119203762Y-101267443D01*
X118912632Y-101068015D01*
X118903492Y-101061112D01*
X118632018Y-100835683D01*
X118623554Y-100827967D01*
X118374032Y-100578445D01*
X118366316Y-100569981D01*
X118334274Y-100531394D01*
X118140885Y-100298504D01*
X118133984Y-100289367D01*
X117934556Y-99998237D01*
X117928527Y-99988499D01*
X117879702Y-99900842D01*
X117756808Y-99680206D01*
X117751716Y-99669980D01*
X117609175Y-99347154D01*
X117605047Y-99336500D01*
X117492895Y-99001883D01*
X117489768Y-98990893D01*
X117408974Y-98647376D01*
X117406871Y-98636125D01*
X117370703Y-98376846D01*
X117358118Y-98286626D01*
X117357062Y-98275229D01*
X117354469Y-98219153D01*
X117340632Y-97919855D01*
X117340500Y-97914128D01*
X117340500Y-97630316D01*
X118034500Y-97630316D01*
X118034500Y-97949683D01*
X118065803Y-98267522D01*
X118128109Y-98580754D01*
X118220820Y-98886382D01*
X118289531Y-99052264D01*
X118308682Y-99098500D01*
X118343040Y-99181446D01*
X118343042Y-99181451D01*
X118493584Y-99463094D01*
X118493601Y-99463122D01*
X118671012Y-99728638D01*
X118671029Y-99728661D01*
X118873638Y-99975540D01*
X119099459Y-100201361D01*
X119099464Y-100201365D01*
X119099465Y-100201366D01*
X119346344Y-100403975D01*
X119346351Y-100403980D01*
X119346361Y-100403987D01*
X119611877Y-100581398D01*
X119611882Y-100581401D01*
X119611894Y-100581409D01*
X119611903Y-100581413D01*
X119611905Y-100581415D01*
X119893548Y-100731957D01*
X119893550Y-100731957D01*
X119893556Y-100731961D01*
X120188619Y-100854180D01*
X120494240Y-100946889D01*
X120807477Y-101009196D01*
X121125313Y-101040500D01*
X121125316Y-101040500D01*
X121444684Y-101040500D01*
X121444687Y-101040500D01*
X121762523Y-101009196D01*
X122075760Y-100946889D01*
X122381381Y-100854180D01*
X122676444Y-100731961D01*
X122958106Y-100581409D01*
X123223656Y-100403975D01*
X123470535Y-100201366D01*
X123696366Y-99975535D01*
X123887078Y-99743153D01*
X141693500Y-99743153D01*
X141693500Y-99900846D01*
X141724261Y-100055489D01*
X141724264Y-100055501D01*
X141784602Y-100201172D01*
X141784609Y-100201185D01*
X141872210Y-100332288D01*
X141872213Y-100332292D01*
X141983707Y-100443786D01*
X141983711Y-100443789D01*
X142114814Y-100531390D01*
X142114827Y-100531397D01*
X142235583Y-100581415D01*
X142260503Y-100591737D01*
X142415153Y-100622499D01*
X142415156Y-100622500D01*
X142415158Y-100622500D01*
X142572844Y-100622500D01*
X142572845Y-100622499D01*
X142727497Y-100591737D01*
X142873179Y-100531394D01*
X143004289Y-100443789D01*
X143115789Y-100332289D01*
X143203394Y-100201179D01*
X143263737Y-100055497D01*
X143294500Y-99900842D01*
X143294500Y-99743158D01*
X143294500Y-99743155D01*
X143294499Y-99743153D01*
X143263738Y-99588510D01*
X143263737Y-99588503D01*
X143211803Y-99463122D01*
X143203397Y-99442827D01*
X143203390Y-99442814D01*
X143115789Y-99311711D01*
X143115786Y-99311707D01*
X143004292Y-99200213D01*
X143004288Y-99200210D01*
X142873185Y-99112609D01*
X142873172Y-99112602D01*
X142727501Y-99052264D01*
X142727489Y-99052261D01*
X142572845Y-99021500D01*
X142572842Y-99021500D01*
X142415158Y-99021500D01*
X142415155Y-99021500D01*
X142260510Y-99052261D01*
X142260498Y-99052264D01*
X142114827Y-99112602D01*
X142114814Y-99112609D01*
X141983711Y-99200210D01*
X141983707Y-99200213D01*
X141872213Y-99311707D01*
X141872210Y-99311711D01*
X141784609Y-99442814D01*
X141784602Y-99442827D01*
X141724264Y-99588498D01*
X141724261Y-99588510D01*
X141693500Y-99743153D01*
X123887078Y-99743153D01*
X123898975Y-99728656D01*
X123931339Y-99680220D01*
X123939387Y-99668176D01*
X124076398Y-99463122D01*
X124076409Y-99463106D01*
X124226961Y-99181444D01*
X124349180Y-98886381D01*
X124441889Y-98580760D01*
X124504196Y-98267523D01*
X124508960Y-98219153D01*
X127723500Y-98219153D01*
X127723500Y-98376846D01*
X127754261Y-98531489D01*
X127754264Y-98531501D01*
X127814602Y-98677172D01*
X127814609Y-98677185D01*
X127902210Y-98808288D01*
X127902213Y-98808292D01*
X128013707Y-98919786D01*
X128013711Y-98919789D01*
X128144814Y-99007390D01*
X128144827Y-99007397D01*
X128290498Y-99067735D01*
X128290503Y-99067737D01*
X128445153Y-99098499D01*
X128445156Y-99098500D01*
X128445158Y-99098500D01*
X128602844Y-99098500D01*
X128602845Y-99098499D01*
X128757497Y-99067737D01*
X128903179Y-99007394D01*
X129034289Y-98919789D01*
X129145789Y-98808289D01*
X129233394Y-98677179D01*
X129293737Y-98531497D01*
X129324500Y-98376842D01*
X129324500Y-98219158D01*
X129324500Y-98219155D01*
X129324499Y-98219153D01*
X129293738Y-98064510D01*
X129293737Y-98064503D01*
X129246179Y-97949687D01*
X129233397Y-97918827D01*
X129233390Y-97918814D01*
X129145789Y-97787711D01*
X129145786Y-97787707D01*
X129034292Y-97676213D01*
X129034288Y-97676210D01*
X128965603Y-97630316D01*
X152932500Y-97630316D01*
X152932500Y-97949683D01*
X152963803Y-98267522D01*
X153026109Y-98580754D01*
X153118820Y-98886382D01*
X153187531Y-99052264D01*
X153206682Y-99098500D01*
X153241040Y-99181446D01*
X153241042Y-99181451D01*
X153391584Y-99463094D01*
X153391601Y-99463122D01*
X153569012Y-99728638D01*
X153569029Y-99728661D01*
X153771638Y-99975540D01*
X153997459Y-100201361D01*
X153997464Y-100201365D01*
X153997465Y-100201366D01*
X154244344Y-100403975D01*
X154244351Y-100403980D01*
X154244361Y-100403987D01*
X154509877Y-100581398D01*
X154509882Y-100581401D01*
X154509894Y-100581409D01*
X154509903Y-100581413D01*
X154509905Y-100581415D01*
X154791548Y-100731957D01*
X154791550Y-100731957D01*
X154791556Y-100731961D01*
X155086619Y-100854180D01*
X155392240Y-100946889D01*
X155705477Y-101009196D01*
X156023313Y-101040500D01*
X156023316Y-101040500D01*
X156342684Y-101040500D01*
X156342687Y-101040500D01*
X156660523Y-101009196D01*
X156973760Y-100946889D01*
X157279381Y-100854180D01*
X157574444Y-100731961D01*
X157856106Y-100581409D01*
X158121656Y-100403975D01*
X158368535Y-100201366D01*
X158594366Y-99975535D01*
X158796975Y-99728656D01*
X158974409Y-99463106D01*
X159124961Y-99181444D01*
X159247180Y-98886381D01*
X159339889Y-98580760D01*
X159402196Y-98267523D01*
X159433500Y-97949687D01*
X159433500Y-97630313D01*
X159402196Y-97312477D01*
X159339889Y-96999240D01*
X159247180Y-96693619D01*
X159124961Y-96398556D01*
X158974409Y-96116894D01*
X158974398Y-96116877D01*
X158796987Y-95851361D01*
X158796980Y-95851351D01*
X158796975Y-95851344D01*
X158594366Y-95604465D01*
X158594365Y-95604464D01*
X158594361Y-95604459D01*
X158368540Y-95378638D01*
X158121661Y-95176029D01*
X158121638Y-95176012D01*
X157856122Y-94998601D01*
X157856094Y-94998584D01*
X157574451Y-94848042D01*
X157574446Y-94848040D01*
X157279382Y-94725820D01*
X156973754Y-94633109D01*
X156660521Y-94570803D01*
X156660522Y-94570803D01*
X156421141Y-94547227D01*
X156342687Y-94539500D01*
X156023313Y-94539500D01*
X155950822Y-94546639D01*
X155705477Y-94570803D01*
X155392245Y-94633109D01*
X155086617Y-94725820D01*
X154791553Y-94848040D01*
X154791548Y-94848042D01*
X154509905Y-94998584D01*
X154509877Y-94998601D01*
X154244361Y-95176012D01*
X154244338Y-95176029D01*
X153997459Y-95378638D01*
X153771638Y-95604459D01*
X153569029Y-95851338D01*
X153569012Y-95851361D01*
X153391601Y-96116877D01*
X153391584Y-96116905D01*
X153241042Y-96398548D01*
X153241040Y-96398553D01*
X153118820Y-96693617D01*
X153026109Y-96999245D01*
X152963803Y-97312477D01*
X152945581Y-97497500D01*
X152936608Y-97588609D01*
X152932500Y-97630316D01*
X128965603Y-97630316D01*
X128903185Y-97588609D01*
X128903172Y-97588602D01*
X128757501Y-97528264D01*
X128757489Y-97528261D01*
X128602845Y-97497500D01*
X128602842Y-97497500D01*
X128445158Y-97497500D01*
X128445155Y-97497500D01*
X128290510Y-97528261D01*
X128290498Y-97528264D01*
X128144827Y-97588602D01*
X128144814Y-97588609D01*
X128013711Y-97676210D01*
X128013707Y-97676213D01*
X127902213Y-97787707D01*
X127902210Y-97787711D01*
X127814609Y-97918814D01*
X127814602Y-97918827D01*
X127754264Y-98064498D01*
X127754261Y-98064510D01*
X127723500Y-98219153D01*
X124508960Y-98219153D01*
X124535500Y-97949687D01*
X124535500Y-97630313D01*
X124504196Y-97312477D01*
X124441889Y-96999240D01*
X124349180Y-96693619D01*
X124226961Y-96398556D01*
X124076409Y-96116894D01*
X124076398Y-96116877D01*
X123898987Y-95851361D01*
X123898980Y-95851351D01*
X123898975Y-95851344D01*
X123696366Y-95604465D01*
X123696365Y-95604464D01*
X123696361Y-95604459D01*
X123470540Y-95378638D01*
X123223661Y-95176029D01*
X123223638Y-95176012D01*
X122958122Y-94998601D01*
X122958094Y-94998584D01*
X122676451Y-94848042D01*
X122676446Y-94848040D01*
X122381382Y-94725820D01*
X122075754Y-94633109D01*
X121762521Y-94570803D01*
X121762522Y-94570803D01*
X121523141Y-94547227D01*
X121444687Y-94539500D01*
X121125313Y-94539500D01*
X121052822Y-94546639D01*
X120807477Y-94570803D01*
X120494245Y-94633109D01*
X120188617Y-94725820D01*
X119893553Y-94848040D01*
X119893548Y-94848042D01*
X119611905Y-94998584D01*
X119611877Y-94998601D01*
X119346361Y-95176012D01*
X119346338Y-95176029D01*
X119099459Y-95378638D01*
X118873638Y-95604459D01*
X118671029Y-95851338D01*
X118671012Y-95851361D01*
X118493601Y-96116877D01*
X118493584Y-96116905D01*
X118343042Y-96398548D01*
X118343040Y-96398553D01*
X118220820Y-96693617D01*
X118128109Y-96999245D01*
X118065803Y-97312477D01*
X118047581Y-97497500D01*
X118038608Y-97588609D01*
X118034500Y-97630316D01*
X117340500Y-97630316D01*
X117340500Y-92885153D01*
X141312500Y-92885153D01*
X141312500Y-93042846D01*
X141343261Y-93197489D01*
X141343264Y-93197501D01*
X141403602Y-93343172D01*
X141403609Y-93343185D01*
X141491210Y-93474288D01*
X141491213Y-93474292D01*
X141602707Y-93585786D01*
X141602711Y-93585789D01*
X141733814Y-93673390D01*
X141733827Y-93673397D01*
X141879498Y-93733735D01*
X141879503Y-93733737D01*
X142034153Y-93764499D01*
X142034156Y-93764500D01*
X142034158Y-93764500D01*
X142191844Y-93764500D01*
X142191845Y-93764499D01*
X142346497Y-93733737D01*
X142492179Y-93673394D01*
X142623289Y-93585789D01*
X142734789Y-93474289D01*
X142822394Y-93343179D01*
X142882737Y-93197497D01*
X142913500Y-93042842D01*
X142913500Y-92885158D01*
X142913500Y-92885155D01*
X142913499Y-92885153D01*
X142882738Y-92730510D01*
X142882737Y-92730503D01*
X142882735Y-92730498D01*
X142822397Y-92584827D01*
X142822390Y-92584814D01*
X142734789Y-92453711D01*
X142734786Y-92453707D01*
X142623292Y-92342213D01*
X142623288Y-92342210D01*
X142492185Y-92254609D01*
X142492172Y-92254602D01*
X142346501Y-92194264D01*
X142346489Y-92194261D01*
X142191845Y-92163500D01*
X142191842Y-92163500D01*
X142034158Y-92163500D01*
X142034155Y-92163500D01*
X141879510Y-92194261D01*
X141879498Y-92194264D01*
X141733827Y-92254602D01*
X141733814Y-92254609D01*
X141602711Y-92342210D01*
X141602707Y-92342213D01*
X141491213Y-92453707D01*
X141491210Y-92453711D01*
X141403609Y-92584814D01*
X141403602Y-92584827D01*
X141343264Y-92730498D01*
X141343261Y-92730510D01*
X141312500Y-92885153D01*
X117340500Y-92885153D01*
X117340500Y-90869831D01*
X121923500Y-90869831D01*
X121923500Y-91121168D01*
X121962815Y-91369395D01*
X122040481Y-91608424D01*
X122154580Y-91832353D01*
X122302306Y-92035680D01*
X122480020Y-92213394D01*
X122683347Y-92361120D01*
X122789145Y-92415027D01*
X122907275Y-92475218D01*
X122907277Y-92475218D01*
X122907280Y-92475220D01*
X123035404Y-92516850D01*
X123146304Y-92552884D01*
X123394532Y-92592200D01*
X123394537Y-92592200D01*
X123645868Y-92592200D01*
X123894095Y-92552884D01*
X124133120Y-92475220D01*
X124357053Y-92361120D01*
X124560380Y-92213394D01*
X124738094Y-92035680D01*
X124885820Y-91832353D01*
X124999920Y-91608420D01*
X125077584Y-91369395D01*
X125116900Y-91121168D01*
X125116900Y-90869831D01*
X125077584Y-90621604D01*
X124999918Y-90382575D01*
X124885819Y-90158646D01*
X124738094Y-89955320D01*
X124560380Y-89777606D01*
X124357053Y-89629880D01*
X124133124Y-89515781D01*
X123894095Y-89438115D01*
X123645868Y-89398800D01*
X123645863Y-89398800D01*
X123394537Y-89398800D01*
X123394532Y-89398800D01*
X123146304Y-89438115D01*
X122907275Y-89515781D01*
X122683346Y-89629880D01*
X122567341Y-89714163D01*
X122480020Y-89777606D01*
X122480018Y-89777608D01*
X122480017Y-89777608D01*
X122302308Y-89955317D01*
X122302308Y-89955318D01*
X122302306Y-89955320D01*
X122238863Y-90042641D01*
X122154580Y-90158646D01*
X122040481Y-90382575D01*
X121962815Y-90621604D01*
X121923500Y-90869831D01*
X117340500Y-90869831D01*
X117340500Y-83099632D01*
X123705500Y-83099632D01*
X123705500Y-83270367D01*
X123732209Y-83439002D01*
X123732209Y-83439005D01*
X123784967Y-83601377D01*
X123784969Y-83601380D01*
X123862480Y-83753506D01*
X123863526Y-83755212D01*
X123863725Y-83755948D01*
X123864693Y-83757848D01*
X123864293Y-83758051D01*
X123881768Y-83822659D01*
X123864351Y-83881977D01*
X123864693Y-83882152D01*
X123863765Y-83883972D01*
X123863526Y-83884788D01*
X123862480Y-83886493D01*
X123784969Y-84038619D01*
X123784967Y-84038622D01*
X123732209Y-84200994D01*
X123732209Y-84200997D01*
X123705500Y-84369632D01*
X123705500Y-84540367D01*
X123732209Y-84709002D01*
X123732209Y-84709005D01*
X123784967Y-84871377D01*
X123784969Y-84871380D01*
X123862480Y-85023506D01*
X123863526Y-85025212D01*
X123863725Y-85025948D01*
X123864693Y-85027848D01*
X123864293Y-85028051D01*
X123881768Y-85092659D01*
X123864351Y-85151977D01*
X123864693Y-85152152D01*
X123863765Y-85153972D01*
X123863526Y-85154788D01*
X123862480Y-85156493D01*
X123784969Y-85308619D01*
X123784967Y-85308622D01*
X123732209Y-85470994D01*
X123732209Y-85470997D01*
X123705500Y-85639632D01*
X123705500Y-85810367D01*
X123732209Y-85979002D01*
X123732209Y-85979005D01*
X123784967Y-86141377D01*
X123784969Y-86141380D01*
X123862481Y-86293507D01*
X123962837Y-86431635D01*
X123962839Y-86431637D01*
X124004416Y-86473214D01*
X124037901Y-86534537D01*
X124032917Y-86604229D01*
X124031298Y-86608344D01*
X124020466Y-86634497D01*
X124020462Y-86634506D01*
X124020460Y-86634511D01*
X123989700Y-86789153D01*
X123989700Y-86946846D01*
X124020461Y-87101489D01*
X124020464Y-87101501D01*
X124080802Y-87247172D01*
X124080809Y-87247185D01*
X124168410Y-87378288D01*
X124168413Y-87378292D01*
X124279907Y-87489786D01*
X124279911Y-87489789D01*
X124411014Y-87577390D01*
X124411027Y-87577397D01*
X124556698Y-87637735D01*
X124556703Y-87637737D01*
X124711353Y-87668499D01*
X124711356Y-87668500D01*
X124711358Y-87668500D01*
X124869044Y-87668500D01*
X124869045Y-87668499D01*
X125023697Y-87637737D01*
X125169379Y-87577394D01*
X125208651Y-87551153D01*
X155155500Y-87551153D01*
X155155500Y-87708846D01*
X155186261Y-87863489D01*
X155186264Y-87863501D01*
X155246602Y-88009172D01*
X155246609Y-88009185D01*
X155334210Y-88140288D01*
X155334213Y-88140292D01*
X155445707Y-88251786D01*
X155445711Y-88251789D01*
X155576814Y-88339390D01*
X155576827Y-88339397D01*
X155722498Y-88399735D01*
X155722503Y-88399737D01*
X155877153Y-88430499D01*
X155877156Y-88430500D01*
X155877158Y-88430500D01*
X156034844Y-88430500D01*
X156034845Y-88430499D01*
X156189497Y-88399737D01*
X156335179Y-88339394D01*
X156466289Y-88251789D01*
X156577789Y-88140289D01*
X156665394Y-88009179D01*
X156725737Y-87863497D01*
X156756500Y-87708842D01*
X156756500Y-87551158D01*
X156756500Y-87551155D01*
X156756499Y-87551153D01*
X156735324Y-87444700D01*
X156725737Y-87396503D01*
X156712784Y-87365231D01*
X156665397Y-87250827D01*
X156665390Y-87250814D01*
X156577789Y-87119711D01*
X156577786Y-87119707D01*
X156466292Y-87008213D01*
X156466288Y-87008210D01*
X156335185Y-86920609D01*
X156335172Y-86920602D01*
X156189501Y-86860264D01*
X156189489Y-86860261D01*
X156034845Y-86829500D01*
X156034842Y-86829500D01*
X155877158Y-86829500D01*
X155877155Y-86829500D01*
X155722510Y-86860261D01*
X155722498Y-86860264D01*
X155576827Y-86920602D01*
X155576814Y-86920609D01*
X155445711Y-87008210D01*
X155445707Y-87008213D01*
X155334213Y-87119707D01*
X155334210Y-87119711D01*
X155246609Y-87250814D01*
X155246602Y-87250827D01*
X155186264Y-87396498D01*
X155186261Y-87396510D01*
X155155500Y-87551153D01*
X125208651Y-87551153D01*
X125300489Y-87489789D01*
X125411989Y-87378289D01*
X125499594Y-87247179D01*
X125559937Y-87101497D01*
X125590700Y-86946842D01*
X125590700Y-86789158D01*
X125590700Y-86789155D01*
X125590699Y-86789153D01*
X125588158Y-86776377D01*
X125559937Y-86634503D01*
X125549104Y-86608350D01*
X125541634Y-86538881D01*
X125572908Y-86476401D01*
X125575984Y-86473214D01*
X125617558Y-86431640D01*
X125617558Y-86431639D01*
X125617563Y-86431635D01*
X125717919Y-86293507D01*
X125795431Y-86141380D01*
X125848191Y-85979001D01*
X125874900Y-85810368D01*
X125874900Y-85639632D01*
X125848191Y-85470999D01*
X125848190Y-85470995D01*
X125848190Y-85470994D01*
X125795432Y-85308622D01*
X125795430Y-85308619D01*
X125727536Y-85175368D01*
X125717919Y-85156493D01*
X125717910Y-85156481D01*
X125716881Y-85154801D01*
X125716681Y-85154065D01*
X125715707Y-85152152D01*
X125716108Y-85151947D01*
X125698630Y-85087357D01*
X125716051Y-85028023D01*
X125715707Y-85027848D01*
X125716642Y-85026012D01*
X125716881Y-85025199D01*
X125717906Y-85023523D01*
X125717919Y-85023507D01*
X125795431Y-84871380D01*
X125848191Y-84709001D01*
X125874900Y-84540368D01*
X125874900Y-84369632D01*
X125848191Y-84200999D01*
X125848190Y-84200995D01*
X125848190Y-84200994D01*
X125795432Y-84038622D01*
X125795430Y-84038619D01*
X125727536Y-83905368D01*
X125717919Y-83886493D01*
X125717910Y-83886481D01*
X125716881Y-83884801D01*
X125716681Y-83884065D01*
X125715707Y-83882152D01*
X125716108Y-83881947D01*
X125698630Y-83817357D01*
X125716051Y-83758023D01*
X125715707Y-83757848D01*
X125716642Y-83756012D01*
X125716881Y-83755199D01*
X125717906Y-83753523D01*
X125717919Y-83753507D01*
X125795431Y-83601380D01*
X125848191Y-83439001D01*
X125874900Y-83270368D01*
X125874900Y-83099632D01*
X125848191Y-82930999D01*
X125848190Y-82930995D01*
X125848190Y-82930994D01*
X125795432Y-82768622D01*
X125795430Y-82768619D01*
X125717919Y-82616493D01*
X125716581Y-82614310D01*
X125716325Y-82613366D01*
X125715707Y-82612152D01*
X125715962Y-82612022D01*
X125698336Y-82546864D01*
X125715685Y-82487792D01*
X125715279Y-82487586D01*
X125716380Y-82485423D01*
X125716589Y-82484715D01*
X125717494Y-82483237D01*
X125794966Y-82331191D01*
X125847703Y-82168884D01*
X125874400Y-82000333D01*
X125874400Y-81829666D01*
X125847703Y-81661115D01*
X125794966Y-81498806D01*
X125717488Y-81346750D01*
X125715180Y-81343574D01*
X125715178Y-81343574D01*
X125145800Y-81912952D01*
X125145800Y-81868184D01*
X125121566Y-81777744D01*
X125074750Y-81696657D01*
X125008543Y-81630450D01*
X124927456Y-81583634D01*
X124837016Y-81559400D01*
X124792247Y-81559400D01*
X125157014Y-81194632D01*
X126245500Y-81194632D01*
X126245500Y-81365368D01*
X126252457Y-81409292D01*
X126272209Y-81534002D01*
X126272209Y-81534005D01*
X126324967Y-81696377D01*
X126324969Y-81696380D01*
X126402480Y-81848506D01*
X126403526Y-81850212D01*
X126403725Y-81850948D01*
X126404693Y-81852848D01*
X126404293Y-81853051D01*
X126421768Y-81917659D01*
X126404351Y-81976977D01*
X126404693Y-81977152D01*
X126403765Y-81978972D01*
X126403526Y-81979788D01*
X126402480Y-81981493D01*
X126324969Y-82133619D01*
X126324967Y-82133622D01*
X126272209Y-82295994D01*
X126272209Y-82295997D01*
X126245500Y-82464632D01*
X126245500Y-82635367D01*
X126272209Y-82804002D01*
X126272209Y-82804005D01*
X126324967Y-82966377D01*
X126324969Y-82966380D01*
X126402480Y-83118506D01*
X126403526Y-83120212D01*
X126403725Y-83120948D01*
X126404693Y-83122848D01*
X126404293Y-83123051D01*
X126421768Y-83187659D01*
X126404351Y-83246977D01*
X126404693Y-83247152D01*
X126403765Y-83248972D01*
X126403526Y-83249788D01*
X126402480Y-83251493D01*
X126324969Y-83403619D01*
X126324967Y-83403622D01*
X126272209Y-83565994D01*
X126272209Y-83565997D01*
X126245500Y-83734632D01*
X126245500Y-83905367D01*
X126272209Y-84074002D01*
X126272209Y-84074005D01*
X126324967Y-84236377D01*
X126324969Y-84236380D01*
X126402480Y-84388506D01*
X126403526Y-84390212D01*
X126403725Y-84390948D01*
X126404693Y-84392848D01*
X126404293Y-84393051D01*
X126421768Y-84457659D01*
X126404351Y-84516977D01*
X126404693Y-84517152D01*
X126403765Y-84518972D01*
X126403526Y-84519788D01*
X126402480Y-84521493D01*
X126324969Y-84673619D01*
X126324967Y-84673622D01*
X126272209Y-84835994D01*
X126272209Y-84835997D01*
X126245500Y-85004632D01*
X126245500Y-85175367D01*
X126272209Y-85344002D01*
X126272209Y-85344005D01*
X126324967Y-85506377D01*
X126324969Y-85506380D01*
X126402480Y-85658506D01*
X126403526Y-85660212D01*
X126403725Y-85660948D01*
X126404693Y-85662848D01*
X126404293Y-85663051D01*
X126421768Y-85727659D01*
X126404351Y-85786977D01*
X126404693Y-85787152D01*
X126403765Y-85788972D01*
X126403526Y-85789788D01*
X126402480Y-85791493D01*
X126324969Y-85943619D01*
X126324967Y-85943622D01*
X126272209Y-86105994D01*
X126272209Y-86105997D01*
X126266605Y-86141380D01*
X126245500Y-86274632D01*
X126245500Y-86445368D01*
X126250415Y-86476401D01*
X126272209Y-86614002D01*
X126272209Y-86614005D01*
X126324967Y-86776377D01*
X126324969Y-86776380D01*
X126402481Y-86928507D01*
X126502837Y-87066635D01*
X126623565Y-87187363D01*
X126761693Y-87287719D01*
X126913820Y-87365231D01*
X126913822Y-87365232D01*
X127076195Y-87417990D01*
X127076196Y-87417990D01*
X127076199Y-87417991D01*
X127244832Y-87444700D01*
X127244833Y-87444700D01*
X127415567Y-87444700D01*
X127415568Y-87444700D01*
X127497000Y-87431802D01*
X127555146Y-87422593D01*
X127558587Y-87422047D01*
X127584201Y-87417991D01*
X127584204Y-87417990D01*
X127584205Y-87417990D01*
X127746577Y-87365232D01*
X127746577Y-87365231D01*
X127746580Y-87365231D01*
X127898707Y-87287719D01*
X128036835Y-87187363D01*
X128157563Y-87066635D01*
X128257919Y-86928507D01*
X128335431Y-86776380D01*
X128381527Y-86634511D01*
X128388190Y-86614005D01*
X128388190Y-86614004D01*
X128388191Y-86614001D01*
X128414900Y-86445368D01*
X128414900Y-86274632D01*
X128388191Y-86105999D01*
X128388190Y-86105995D01*
X128388190Y-86105994D01*
X128335432Y-85943622D01*
X128335430Y-85943619D01*
X128267536Y-85810368D01*
X128257919Y-85791493D01*
X128257910Y-85791481D01*
X128256881Y-85789801D01*
X128256681Y-85789065D01*
X128255707Y-85787152D01*
X128256108Y-85786947D01*
X128238630Y-85722357D01*
X128256051Y-85663023D01*
X128255707Y-85662848D01*
X128256642Y-85661012D01*
X128256881Y-85660199D01*
X128257906Y-85658523D01*
X128257919Y-85658507D01*
X128335431Y-85506380D01*
X128388191Y-85344001D01*
X128414900Y-85175368D01*
X128414900Y-85004632D01*
X128388191Y-84835999D01*
X128388190Y-84835995D01*
X128388190Y-84835994D01*
X128335432Y-84673622D01*
X128335430Y-84673619D01*
X128267536Y-84540368D01*
X128257919Y-84521493D01*
X128257910Y-84521481D01*
X128256881Y-84519801D01*
X128256681Y-84519065D01*
X128255707Y-84517152D01*
X128256108Y-84516947D01*
X128238630Y-84452357D01*
X128256051Y-84393023D01*
X128255707Y-84392848D01*
X128256642Y-84391012D01*
X128256881Y-84390199D01*
X128257906Y-84388523D01*
X128257919Y-84388507D01*
X128335431Y-84236380D01*
X128388191Y-84074001D01*
X128414900Y-83905368D01*
X128414900Y-83734632D01*
X128388191Y-83565999D01*
X128388190Y-83565995D01*
X128388190Y-83565994D01*
X128335432Y-83403622D01*
X128335430Y-83403619D01*
X128267536Y-83270368D01*
X128257919Y-83251493D01*
X128257910Y-83251481D01*
X128256881Y-83249801D01*
X128256681Y-83249065D01*
X128255707Y-83247152D01*
X128256108Y-83246947D01*
X128238630Y-83182357D01*
X128256051Y-83123023D01*
X128255707Y-83122848D01*
X128256642Y-83121012D01*
X128256881Y-83120199D01*
X128257906Y-83118523D01*
X128257919Y-83118507D01*
X128335431Y-82966380D01*
X128388191Y-82804001D01*
X128414900Y-82635368D01*
X128414900Y-82464632D01*
X128388191Y-82295999D01*
X128388190Y-82295995D01*
X128388190Y-82295994D01*
X128335432Y-82133622D01*
X128335430Y-82133619D01*
X128257919Y-81981493D01*
X128257910Y-81981481D01*
X128256881Y-81979801D01*
X128256681Y-81979065D01*
X128255707Y-81977152D01*
X128256108Y-81976947D01*
X128238630Y-81912357D01*
X128256051Y-81853023D01*
X128255707Y-81852848D01*
X128256642Y-81851012D01*
X128256881Y-81850199D01*
X128257906Y-81848523D01*
X128257919Y-81848507D01*
X128335431Y-81696380D01*
X128356853Y-81630450D01*
X128388190Y-81534005D01*
X128388190Y-81534004D01*
X128388191Y-81534001D01*
X128414900Y-81365368D01*
X128414900Y-81194632D01*
X128388191Y-81025999D01*
X128388190Y-81025995D01*
X128388190Y-81025994D01*
X128350576Y-80910233D01*
X128335431Y-80863620D01*
X128313284Y-80820153D01*
X140525100Y-80820153D01*
X140525100Y-80977846D01*
X140555861Y-81132489D01*
X140555864Y-81132501D01*
X140616202Y-81278172D01*
X140616209Y-81278185D01*
X140703810Y-81409288D01*
X140703813Y-81409292D01*
X140815307Y-81520786D01*
X140815311Y-81520789D01*
X140946414Y-81608390D01*
X140946427Y-81608397D01*
X141092098Y-81668735D01*
X141092103Y-81668737D01*
X141246753Y-81699499D01*
X141246756Y-81699500D01*
X141246758Y-81699500D01*
X141404444Y-81699500D01*
X141404445Y-81699499D01*
X141559097Y-81668737D01*
X141704779Y-81608394D01*
X141835889Y-81520789D01*
X141947389Y-81409289D01*
X142034994Y-81278179D01*
X142095337Y-81132497D01*
X142126100Y-80977842D01*
X142126100Y-80820158D01*
X142126100Y-80820155D01*
X142126099Y-80820153D01*
X142095338Y-80665510D01*
X142095337Y-80665503D01*
X142095335Y-80665498D01*
X142034997Y-80519827D01*
X142034990Y-80519814D01*
X141947389Y-80388711D01*
X141947386Y-80388707D01*
X141835892Y-80277213D01*
X141835888Y-80277210D01*
X141704785Y-80189609D01*
X141704772Y-80189602D01*
X141559101Y-80129264D01*
X141559089Y-80129261D01*
X141404445Y-80098500D01*
X141404442Y-80098500D01*
X141246758Y-80098500D01*
X141246755Y-80098500D01*
X141092110Y-80129261D01*
X141092098Y-80129264D01*
X140946427Y-80189602D01*
X140946414Y-80189609D01*
X140815311Y-80277210D01*
X140815307Y-80277213D01*
X140703813Y-80388707D01*
X140703810Y-80388711D01*
X140616209Y-80519814D01*
X140616202Y-80519827D01*
X140555864Y-80665498D01*
X140555861Y-80665510D01*
X140525100Y-80820153D01*
X128313284Y-80820153D01*
X128257919Y-80711493D01*
X128157563Y-80573365D01*
X128036835Y-80452637D01*
X127898707Y-80352281D01*
X127746580Y-80274769D01*
X127746577Y-80274767D01*
X127584204Y-80222009D01*
X127457726Y-80201977D01*
X127415568Y-80195300D01*
X127244832Y-80195300D01*
X127188621Y-80204203D01*
X127076197Y-80222009D01*
X127076194Y-80222009D01*
X126913822Y-80274767D01*
X126913819Y-80274769D01*
X126761692Y-80352281D01*
X126682885Y-80409538D01*
X126623565Y-80452637D01*
X126623563Y-80452639D01*
X126623562Y-80452639D01*
X126502839Y-80573362D01*
X126502839Y-80573363D01*
X126502837Y-80573365D01*
X126459738Y-80632685D01*
X126402481Y-80711492D01*
X126324969Y-80863619D01*
X126324967Y-80863622D01*
X126272209Y-81025994D01*
X126272209Y-81025997D01*
X126255341Y-81132497D01*
X126245500Y-81194632D01*
X125157014Y-81194632D01*
X125249567Y-81102079D01*
X125361625Y-80990020D01*
X125361625Y-80990019D01*
X125358449Y-80987711D01*
X125206393Y-80910233D01*
X125044084Y-80857496D01*
X124875533Y-80830800D01*
X124704867Y-80830800D01*
X124536315Y-80857496D01*
X124374006Y-80910233D01*
X124221955Y-80987709D01*
X124218774Y-80990020D01*
X124218773Y-80990020D01*
X124788154Y-81559400D01*
X124743384Y-81559400D01*
X124652944Y-81583634D01*
X124571857Y-81630450D01*
X124505650Y-81696657D01*
X124458834Y-81777744D01*
X124434600Y-81868184D01*
X124434600Y-81912953D01*
X123865220Y-81343573D01*
X123865220Y-81343574D01*
X123862909Y-81346755D01*
X123785433Y-81498806D01*
X123732696Y-81661115D01*
X123706000Y-81829666D01*
X123706000Y-82000333D01*
X123732696Y-82168884D01*
X123785433Y-82331191D01*
X123862913Y-82483253D01*
X123863823Y-82484738D01*
X123863996Y-82485378D01*
X123865121Y-82487586D01*
X123864657Y-82487822D01*
X123882062Y-82552185D01*
X123864486Y-82612047D01*
X123864693Y-82612153D01*
X123864131Y-82613254D01*
X123863825Y-82614299D01*
X123862485Y-82616485D01*
X123784968Y-82768619D01*
X123784967Y-82768622D01*
X123732209Y-82930994D01*
X123732209Y-82930997D01*
X123705500Y-83099632D01*
X117340500Y-83099632D01*
X117340500Y-79550153D01*
X154393500Y-79550153D01*
X154393500Y-79707846D01*
X154424261Y-79862489D01*
X154424264Y-79862501D01*
X154484602Y-80008172D01*
X154484609Y-80008185D01*
X154572210Y-80139288D01*
X154572213Y-80139292D01*
X154683707Y-80250786D01*
X154683711Y-80250789D01*
X154814814Y-80338390D01*
X154814827Y-80338397D01*
X154936288Y-80388707D01*
X154960503Y-80398737D01*
X155115153Y-80429499D01*
X155115156Y-80429500D01*
X155115158Y-80429500D01*
X155272844Y-80429500D01*
X155272845Y-80429499D01*
X155427497Y-80398737D01*
X155573179Y-80338394D01*
X155704289Y-80250789D01*
X155815789Y-80139289D01*
X155903394Y-80008179D01*
X155963737Y-79862497D01*
X155994500Y-79707842D01*
X155994500Y-79550158D01*
X155994500Y-79550155D01*
X155994499Y-79550153D01*
X155963738Y-79395510D01*
X155963737Y-79395503D01*
X155963735Y-79395498D01*
X155903397Y-79249827D01*
X155903390Y-79249814D01*
X155815789Y-79118711D01*
X155815786Y-79118707D01*
X155704292Y-79007213D01*
X155704288Y-79007210D01*
X155573185Y-78919609D01*
X155573172Y-78919602D01*
X155427501Y-78859264D01*
X155427489Y-78859261D01*
X155272845Y-78828500D01*
X155272842Y-78828500D01*
X155115158Y-78828500D01*
X155115155Y-78828500D01*
X154960510Y-78859261D01*
X154960498Y-78859264D01*
X154814827Y-78919602D01*
X154814814Y-78919609D01*
X154683711Y-79007210D01*
X154683707Y-79007213D01*
X154572213Y-79118707D01*
X154572210Y-79118711D01*
X154484609Y-79249814D01*
X154484602Y-79249827D01*
X154424264Y-79395498D01*
X154424261Y-79395510D01*
X154393500Y-79550153D01*
X117340500Y-79550153D01*
X117340500Y-78307153D01*
X131279500Y-78307153D01*
X131279500Y-78464846D01*
X131310261Y-78619489D01*
X131310264Y-78619501D01*
X131370602Y-78765172D01*
X131370609Y-78765185D01*
X131458210Y-78896288D01*
X131458213Y-78896292D01*
X131569707Y-79007786D01*
X131569711Y-79007789D01*
X131700814Y-79095390D01*
X131700827Y-79095397D01*
X131846498Y-79155735D01*
X131846503Y-79155737D01*
X132001153Y-79186499D01*
X132001156Y-79186500D01*
X132001158Y-79186500D01*
X132158844Y-79186500D01*
X132158845Y-79186499D01*
X132313497Y-79155737D01*
X132459179Y-79095394D01*
X132590289Y-79007789D01*
X132701789Y-78896289D01*
X132789394Y-78765179D01*
X132849737Y-78619497D01*
X132880500Y-78464842D01*
X132880500Y-78307158D01*
X132880500Y-78307155D01*
X132880499Y-78307153D01*
X132867380Y-78241200D01*
X132849737Y-78152503D01*
X132838021Y-78124218D01*
X132814536Y-78067518D01*
X132797402Y-78026153D01*
X134327500Y-78026153D01*
X134327500Y-78183846D01*
X134358261Y-78338489D01*
X134358264Y-78338501D01*
X134418602Y-78484172D01*
X134418609Y-78484185D01*
X134506210Y-78615288D01*
X134506213Y-78615292D01*
X134617707Y-78726786D01*
X134617711Y-78726789D01*
X134748814Y-78814390D01*
X134748827Y-78814397D01*
X134894498Y-78874735D01*
X134894503Y-78874737D01*
X135002867Y-78896292D01*
X135049153Y-78905499D01*
X135049156Y-78905500D01*
X135049158Y-78905500D01*
X135206844Y-78905500D01*
X135206845Y-78905499D01*
X135361497Y-78874737D01*
X135507179Y-78814394D01*
X135638289Y-78726789D01*
X135749789Y-78615289D01*
X135837394Y-78484179D01*
X135897737Y-78338497D01*
X135928500Y-78183842D01*
X135928500Y-78026158D01*
X135928500Y-78026155D01*
X135928499Y-78026153D01*
X135897738Y-77871510D01*
X135897737Y-77871503D01*
X135893963Y-77862391D01*
X135837397Y-77725827D01*
X135837390Y-77725814D01*
X135749789Y-77594711D01*
X135749786Y-77594707D01*
X135638292Y-77483213D01*
X135638288Y-77483210D01*
X135507185Y-77395609D01*
X135507172Y-77395602D01*
X135361501Y-77335264D01*
X135361489Y-77335261D01*
X135206845Y-77304500D01*
X135206842Y-77304500D01*
X135049158Y-77304500D01*
X135049155Y-77304500D01*
X134894510Y-77335261D01*
X134894498Y-77335264D01*
X134748827Y-77395602D01*
X134748814Y-77395609D01*
X134617711Y-77483210D01*
X134617707Y-77483213D01*
X134506213Y-77594707D01*
X134506210Y-77594711D01*
X134418609Y-77725814D01*
X134418602Y-77725827D01*
X134358264Y-77871498D01*
X134358261Y-77871510D01*
X134327500Y-78026153D01*
X132797402Y-78026153D01*
X132789395Y-78006823D01*
X132789390Y-78006814D01*
X132701789Y-77875711D01*
X132701786Y-77875707D01*
X132590292Y-77764213D01*
X132590288Y-77764210D01*
X132459185Y-77676609D01*
X132459172Y-77676602D01*
X132313501Y-77616264D01*
X132313489Y-77616261D01*
X132158845Y-77585500D01*
X132158842Y-77585500D01*
X132001158Y-77585500D01*
X132001155Y-77585500D01*
X131846510Y-77616261D01*
X131846498Y-77616264D01*
X131700827Y-77676602D01*
X131700814Y-77676609D01*
X131569711Y-77764210D01*
X131569707Y-77764213D01*
X131458213Y-77875707D01*
X131458210Y-77875711D01*
X131370609Y-78006814D01*
X131370602Y-78006827D01*
X131310264Y-78152498D01*
X131310261Y-78152510D01*
X131279500Y-78307153D01*
X117340500Y-78307153D01*
X117340500Y-76518831D01*
X121923500Y-76518831D01*
X121923500Y-76770168D01*
X121962815Y-77018395D01*
X122040481Y-77257424D01*
X122110891Y-77395609D01*
X122154580Y-77481353D01*
X122302306Y-77684680D01*
X122480020Y-77862394D01*
X122683347Y-78010120D01*
X122789145Y-78064027D01*
X122907275Y-78124218D01*
X122907277Y-78124218D01*
X122907280Y-78124220D01*
X122994311Y-78152498D01*
X123146304Y-78201884D01*
X123394532Y-78241200D01*
X123394537Y-78241200D01*
X123645868Y-78241200D01*
X123766206Y-78222139D01*
X123894095Y-78201884D01*
X123894098Y-78201883D01*
X123894099Y-78201883D01*
X123949616Y-78183844D01*
X123951798Y-78183135D01*
X123951799Y-78183135D01*
X124046052Y-78152510D01*
X124133120Y-78124220D01*
X124357053Y-78010120D01*
X124560380Y-77862394D01*
X124738094Y-77684680D01*
X124885820Y-77481353D01*
X124999920Y-77257420D01*
X125077584Y-77018395D01*
X125080418Y-77000499D01*
X125116900Y-76770168D01*
X125116900Y-76518831D01*
X125091340Y-76357458D01*
X125077584Y-76270605D01*
X125077583Y-76270601D01*
X125077583Y-76270600D01*
X125039497Y-76153384D01*
X125029024Y-76121153D01*
X128485500Y-76121153D01*
X128485500Y-76278846D01*
X128516261Y-76433489D01*
X128516264Y-76433501D01*
X128576602Y-76579172D01*
X128576609Y-76579185D01*
X128664210Y-76710288D01*
X128664213Y-76710292D01*
X128775707Y-76821786D01*
X128775711Y-76821789D01*
X128906814Y-76909390D01*
X128906827Y-76909397D01*
X129052498Y-76969735D01*
X129052503Y-76969737D01*
X129207153Y-77000499D01*
X129207156Y-77000500D01*
X129207158Y-77000500D01*
X129364844Y-77000500D01*
X129364845Y-77000499D01*
X129519497Y-76969737D01*
X129665179Y-76909394D01*
X129796289Y-76821789D01*
X129907789Y-76710289D01*
X129995394Y-76579179D01*
X130055560Y-76433924D01*
X130099398Y-76379524D01*
X130165692Y-76357458D01*
X130194310Y-76359761D01*
X130205846Y-76362056D01*
X130223157Y-76365500D01*
X130223158Y-76365500D01*
X130380844Y-76365500D01*
X130380845Y-76365499D01*
X130535497Y-76334737D01*
X130670431Y-76278846D01*
X130681172Y-76274397D01*
X130681172Y-76274396D01*
X130681179Y-76274394D01*
X130812289Y-76186789D01*
X130923789Y-76075289D01*
X131011394Y-75944179D01*
X131040939Y-75872851D01*
X131084779Y-75818447D01*
X131151073Y-75796382D01*
X131218773Y-75813661D01*
X131266384Y-75864798D01*
X131276825Y-75908986D01*
X131278903Y-75908782D01*
X131279500Y-75914846D01*
X131310261Y-76069489D01*
X131310264Y-76069501D01*
X131370602Y-76215172D01*
X131370609Y-76215185D01*
X131458210Y-76346288D01*
X131458213Y-76346292D01*
X131569707Y-76457786D01*
X131569711Y-76457789D01*
X131700814Y-76545390D01*
X131700827Y-76545397D01*
X131782400Y-76579185D01*
X131846503Y-76605737D01*
X132001153Y-76636499D01*
X132001156Y-76636500D01*
X132001158Y-76636500D01*
X132158844Y-76636500D01*
X132158845Y-76636499D01*
X132313497Y-76605737D01*
X132459179Y-76545394D01*
X132590289Y-76457789D01*
X132701789Y-76346289D01*
X132789394Y-76215179D01*
X132849737Y-76069497D01*
X132880500Y-75914842D01*
X132880500Y-75757158D01*
X132880500Y-75757155D01*
X132880499Y-75757153D01*
X134327500Y-75757153D01*
X134327500Y-75914846D01*
X134358261Y-76069489D01*
X134358264Y-76069501D01*
X134418602Y-76215172D01*
X134418609Y-76215185D01*
X134506210Y-76346288D01*
X134506213Y-76346292D01*
X134617707Y-76457786D01*
X134617711Y-76457789D01*
X134748814Y-76545390D01*
X134748827Y-76545397D01*
X134830400Y-76579185D01*
X134894503Y-76605737D01*
X135049153Y-76636499D01*
X135049156Y-76636500D01*
X135049158Y-76636500D01*
X135206844Y-76636500D01*
X135206845Y-76636499D01*
X135361497Y-76605737D01*
X135507179Y-76545394D01*
X135638289Y-76457789D01*
X135749789Y-76346289D01*
X135837394Y-76215179D01*
X135897737Y-76069497D01*
X135928500Y-75914842D01*
X135928500Y-75757158D01*
X135928500Y-75757155D01*
X135928499Y-75757153D01*
X135905960Y-75643842D01*
X135897737Y-75602503D01*
X135897735Y-75602498D01*
X135837397Y-75456827D01*
X135837390Y-75456814D01*
X135749789Y-75325711D01*
X135749786Y-75325707D01*
X135638292Y-75214213D01*
X135638288Y-75214210D01*
X135507185Y-75126609D01*
X135507172Y-75126602D01*
X135361501Y-75066264D01*
X135361489Y-75066261D01*
X135206845Y-75035500D01*
X135206842Y-75035500D01*
X135049158Y-75035500D01*
X135049155Y-75035500D01*
X134894510Y-75066261D01*
X134894498Y-75066264D01*
X134748827Y-75126602D01*
X134748814Y-75126609D01*
X134617711Y-75214210D01*
X134617707Y-75214213D01*
X134506213Y-75325707D01*
X134506210Y-75325711D01*
X134418609Y-75456814D01*
X134418602Y-75456827D01*
X134358264Y-75602498D01*
X134358261Y-75602510D01*
X134327500Y-75757153D01*
X132880499Y-75757153D01*
X132857960Y-75643842D01*
X132849737Y-75602503D01*
X132849735Y-75602498D01*
X132789397Y-75456827D01*
X132789390Y-75456814D01*
X132701789Y-75325711D01*
X132701786Y-75325707D01*
X132590292Y-75214213D01*
X132590288Y-75214210D01*
X132459185Y-75126609D01*
X132459172Y-75126602D01*
X132313501Y-75066264D01*
X132313489Y-75066261D01*
X132158845Y-75035500D01*
X132158842Y-75035500D01*
X132001158Y-75035500D01*
X132001155Y-75035500D01*
X131846510Y-75066261D01*
X131846498Y-75066264D01*
X131700827Y-75126602D01*
X131700814Y-75126609D01*
X131569711Y-75214210D01*
X131569707Y-75214213D01*
X131458213Y-75325707D01*
X131458210Y-75325711D01*
X131370609Y-75456814D01*
X131370602Y-75456827D01*
X131341061Y-75528148D01*
X131297220Y-75582552D01*
X131230926Y-75604617D01*
X131163227Y-75587338D01*
X131115616Y-75536201D01*
X131105174Y-75492013D01*
X131103097Y-75492218D01*
X131102500Y-75486163D01*
X131102500Y-75486158D01*
X131071737Y-75331503D01*
X131071735Y-75331498D01*
X131011397Y-75185827D01*
X131011390Y-75185814D01*
X130923789Y-75054711D01*
X130923786Y-75054707D01*
X130812292Y-74943213D01*
X130812288Y-74943210D01*
X130681185Y-74855609D01*
X130681172Y-74855602D01*
X130535501Y-74795264D01*
X130535489Y-74795261D01*
X130380845Y-74764500D01*
X130380842Y-74764500D01*
X130223158Y-74764500D01*
X130223155Y-74764500D01*
X130068510Y-74795261D01*
X130068498Y-74795264D01*
X129922827Y-74855602D01*
X129922814Y-74855609D01*
X129791711Y-74943210D01*
X129791707Y-74943213D01*
X129680213Y-75054707D01*
X129680210Y-75054711D01*
X129592609Y-75185814D01*
X129592602Y-75185827D01*
X129532441Y-75331072D01*
X129488600Y-75385476D01*
X129422306Y-75407541D01*
X129393691Y-75405238D01*
X129364842Y-75399500D01*
X129207158Y-75399500D01*
X129207155Y-75399500D01*
X129052510Y-75430261D01*
X129052498Y-75430264D01*
X128906827Y-75490602D01*
X128906814Y-75490609D01*
X128775711Y-75578210D01*
X128775707Y-75578213D01*
X128664213Y-75689707D01*
X128664210Y-75689711D01*
X128576609Y-75820814D01*
X128576602Y-75820827D01*
X128516264Y-75966498D01*
X128516261Y-75966510D01*
X128485500Y-76121153D01*
X125029024Y-76121153D01*
X124999918Y-76031575D01*
X124914940Y-75864798D01*
X124885820Y-75807647D01*
X124738094Y-75604320D01*
X124560380Y-75426606D01*
X124357053Y-75278880D01*
X124133124Y-75164781D01*
X123894095Y-75087115D01*
X123645868Y-75047800D01*
X123645863Y-75047800D01*
X123394537Y-75047800D01*
X123394532Y-75047800D01*
X123146304Y-75087115D01*
X122907275Y-75164781D01*
X122683346Y-75278880D01*
X122610908Y-75331510D01*
X122480020Y-75426606D01*
X122480018Y-75426608D01*
X122480017Y-75426608D01*
X122302308Y-75604317D01*
X122302308Y-75604318D01*
X122302306Y-75604320D01*
X122273592Y-75643842D01*
X122154580Y-75807646D01*
X122040481Y-76031575D01*
X121962815Y-76270604D01*
X121923500Y-76518831D01*
X117340500Y-76518831D01*
X117340500Y-73073153D01*
X154520500Y-73073153D01*
X154520500Y-73230846D01*
X154551261Y-73385489D01*
X154551264Y-73385501D01*
X154611602Y-73531172D01*
X154611609Y-73531185D01*
X154699210Y-73662288D01*
X154699213Y-73662292D01*
X154810707Y-73773786D01*
X154810711Y-73773789D01*
X154941814Y-73861390D01*
X154941827Y-73861397D01*
X155087498Y-73921735D01*
X155087503Y-73921737D01*
X155242153Y-73952499D01*
X155242156Y-73952500D01*
X155242158Y-73952500D01*
X155399844Y-73952500D01*
X155399845Y-73952499D01*
X155554497Y-73921737D01*
X155700179Y-73861394D01*
X155831289Y-73773789D01*
X155942789Y-73662289D01*
X156030394Y-73531179D01*
X156090737Y-73385497D01*
X156121500Y-73230842D01*
X156121500Y-73073158D01*
X156121500Y-73073155D01*
X156121499Y-73073153D01*
X156090738Y-72918510D01*
X156090737Y-72918503D01*
X156090735Y-72918498D01*
X156030397Y-72772827D01*
X156030390Y-72772814D01*
X155942789Y-72641711D01*
X155942786Y-72641707D01*
X155831292Y-72530213D01*
X155831288Y-72530210D01*
X155700185Y-72442609D01*
X155700172Y-72442602D01*
X155554501Y-72382264D01*
X155554489Y-72382261D01*
X155399845Y-72351500D01*
X155399842Y-72351500D01*
X155242158Y-72351500D01*
X155242155Y-72351500D01*
X155087510Y-72382261D01*
X155087498Y-72382264D01*
X154941827Y-72442602D01*
X154941814Y-72442609D01*
X154810711Y-72530210D01*
X154810707Y-72530213D01*
X154699213Y-72641707D01*
X154699210Y-72641711D01*
X154611609Y-72772814D01*
X154611602Y-72772827D01*
X154551264Y-72918498D01*
X154551261Y-72918510D01*
X154520500Y-73073153D01*
X117340500Y-73073153D01*
X117340500Y-71549153D01*
X135978500Y-71549153D01*
X135978500Y-71706846D01*
X136009261Y-71861489D01*
X136009264Y-71861501D01*
X136069602Y-72007172D01*
X136069609Y-72007185D01*
X136157210Y-72138288D01*
X136157213Y-72138292D01*
X136268707Y-72249786D01*
X136268711Y-72249789D01*
X136399814Y-72337390D01*
X136399827Y-72337397D01*
X136545498Y-72397735D01*
X136545503Y-72397737D01*
X136700153Y-72428499D01*
X136700156Y-72428500D01*
X136700158Y-72428500D01*
X136857844Y-72428500D01*
X136857845Y-72428499D01*
X137012497Y-72397737D01*
X137158179Y-72337394D01*
X137289289Y-72249789D01*
X137400789Y-72138289D01*
X137488394Y-72007179D01*
X137548737Y-71861497D01*
X137579500Y-71706842D01*
X137579500Y-71549158D01*
X137579500Y-71549155D01*
X137579499Y-71549153D01*
X137552317Y-71412500D01*
X137548737Y-71394503D01*
X137518456Y-71321397D01*
X137488397Y-71248827D01*
X137488390Y-71248814D01*
X137400789Y-71117711D01*
X137400786Y-71117707D01*
X137289292Y-71006213D01*
X137289288Y-71006210D01*
X137158185Y-70918609D01*
X137158172Y-70918602D01*
X137012501Y-70858264D01*
X137012489Y-70858261D01*
X136857845Y-70827500D01*
X136857842Y-70827500D01*
X136700158Y-70827500D01*
X136700155Y-70827500D01*
X136545510Y-70858261D01*
X136545498Y-70858264D01*
X136399827Y-70918602D01*
X136399814Y-70918609D01*
X136268711Y-71006210D01*
X136268707Y-71006213D01*
X136157213Y-71117707D01*
X136157210Y-71117711D01*
X136069609Y-71248814D01*
X136069602Y-71248827D01*
X136009264Y-71394498D01*
X136009261Y-71394510D01*
X135978500Y-71549153D01*
X117340500Y-71549153D01*
X117340500Y-68074871D01*
X117340632Y-68069144D01*
X117345635Y-67960924D01*
X117347882Y-67912313D01*
X118034500Y-67912313D01*
X118034500Y-68231687D01*
X118040687Y-68294500D01*
X118065803Y-68549522D01*
X118128109Y-68862754D01*
X118220820Y-69168382D01*
X118343040Y-69463446D01*
X118343042Y-69463451D01*
X118493584Y-69745094D01*
X118493601Y-69745122D01*
X118671012Y-70010638D01*
X118671029Y-70010661D01*
X118873638Y-70257540D01*
X119099459Y-70483361D01*
X119099464Y-70483365D01*
X119099465Y-70483366D01*
X119346344Y-70685975D01*
X119346351Y-70685980D01*
X119346361Y-70685987D01*
X119611877Y-70863398D01*
X119611882Y-70863401D01*
X119611894Y-70863409D01*
X119611903Y-70863413D01*
X119611905Y-70863415D01*
X119893548Y-71013957D01*
X119893550Y-71013957D01*
X119893556Y-71013961D01*
X120188619Y-71136180D01*
X120494240Y-71228889D01*
X120807477Y-71291196D01*
X121125313Y-71322500D01*
X121125316Y-71322500D01*
X121444684Y-71322500D01*
X121444687Y-71322500D01*
X121762523Y-71291196D01*
X122075760Y-71228889D01*
X122381381Y-71136180D01*
X122676444Y-71013961D01*
X122958106Y-70863409D01*
X123223656Y-70685975D01*
X123409870Y-70533153D01*
X140804500Y-70533153D01*
X140804500Y-70690846D01*
X140835261Y-70845489D01*
X140835264Y-70845501D01*
X140895602Y-70991172D01*
X140895609Y-70991185D01*
X140983210Y-71122288D01*
X140983213Y-71122292D01*
X141094707Y-71233786D01*
X141094711Y-71233789D01*
X141225814Y-71321390D01*
X141225827Y-71321397D01*
X141371498Y-71381735D01*
X141371503Y-71381737D01*
X141526153Y-71412499D01*
X141526156Y-71412500D01*
X141526158Y-71412500D01*
X141683844Y-71412500D01*
X141683845Y-71412499D01*
X141838497Y-71381737D01*
X141984179Y-71321394D01*
X142115289Y-71233789D01*
X142226789Y-71122289D01*
X142314394Y-70991179D01*
X142374737Y-70845497D01*
X142405500Y-70690842D01*
X142405500Y-70533158D01*
X142405500Y-70533155D01*
X142405499Y-70533153D01*
X142374738Y-70378510D01*
X142374737Y-70378503D01*
X142329587Y-70269500D01*
X142314397Y-70232827D01*
X142314390Y-70232814D01*
X142226789Y-70101711D01*
X142226786Y-70101707D01*
X142115292Y-69990213D01*
X142115288Y-69990210D01*
X141984185Y-69902609D01*
X141984172Y-69902602D01*
X141838501Y-69842264D01*
X141838489Y-69842261D01*
X141683845Y-69811500D01*
X141683842Y-69811500D01*
X141526158Y-69811500D01*
X141526155Y-69811500D01*
X141371510Y-69842261D01*
X141371498Y-69842264D01*
X141225827Y-69902602D01*
X141225814Y-69902609D01*
X141094711Y-69990210D01*
X141094707Y-69990213D01*
X140983213Y-70101707D01*
X140983210Y-70101711D01*
X140895609Y-70232814D01*
X140895602Y-70232827D01*
X140835264Y-70378498D01*
X140835261Y-70378510D01*
X140804500Y-70533153D01*
X123409870Y-70533153D01*
X123470535Y-70483366D01*
X123470540Y-70483361D01*
X123514517Y-70439385D01*
X123696361Y-70257540D01*
X123696366Y-70257535D01*
X123898975Y-70010656D01*
X124076409Y-69745106D01*
X124226961Y-69463444D01*
X124257319Y-69390153D01*
X125945500Y-69390153D01*
X125945500Y-69547846D01*
X125976261Y-69702489D01*
X125976264Y-69702501D01*
X126036602Y-69848172D01*
X126036609Y-69848185D01*
X126124210Y-69979288D01*
X126124213Y-69979292D01*
X126235707Y-70090786D01*
X126235711Y-70090789D01*
X126366814Y-70178390D01*
X126366827Y-70178397D01*
X126498220Y-70232821D01*
X126512503Y-70238737D01*
X126667153Y-70269499D01*
X126667156Y-70269500D01*
X126667158Y-70269500D01*
X126824844Y-70269500D01*
X126824845Y-70269499D01*
X126979497Y-70238737D01*
X127125179Y-70178394D01*
X127256289Y-70090789D01*
X127367789Y-69979289D01*
X127455394Y-69848179D01*
X127457845Y-69842263D01*
X127498093Y-69745094D01*
X127515737Y-69702497D01*
X127546500Y-69547842D01*
X127546500Y-69390158D01*
X127546500Y-69390155D01*
X127546499Y-69390153D01*
X127515738Y-69235510D01*
X127515737Y-69235503D01*
X127487935Y-69168382D01*
X127455397Y-69089827D01*
X127455393Y-69089820D01*
X127443458Y-69071958D01*
X127443457Y-69071956D01*
X127401493Y-69009153D01*
X132422500Y-69009153D01*
X132422500Y-69166846D01*
X132453261Y-69321489D01*
X132453264Y-69321501D01*
X132513602Y-69467172D01*
X132513609Y-69467185D01*
X132601210Y-69598288D01*
X132601213Y-69598292D01*
X132712707Y-69709786D01*
X132712711Y-69709789D01*
X132843814Y-69797390D01*
X132843827Y-69797397D01*
X132966442Y-69848185D01*
X132989503Y-69857737D01*
X133144153Y-69888499D01*
X133144156Y-69888500D01*
X133144158Y-69888500D01*
X133301844Y-69888500D01*
X133301845Y-69888499D01*
X133456497Y-69857737D01*
X133602179Y-69797394D01*
X133733289Y-69709789D01*
X133844789Y-69598289D01*
X133932394Y-69467179D01*
X133992737Y-69321497D01*
X134023500Y-69166842D01*
X134023500Y-69009158D01*
X134023500Y-69009155D01*
X134023499Y-69009153D01*
X134013465Y-68958711D01*
X133992737Y-68854503D01*
X133953428Y-68759602D01*
X133932397Y-68708827D01*
X133932390Y-68708814D01*
X133844789Y-68577711D01*
X133844786Y-68577707D01*
X133733292Y-68466213D01*
X133733288Y-68466210D01*
X133602185Y-68378609D01*
X133602172Y-68378602D01*
X133456501Y-68318264D01*
X133456489Y-68318261D01*
X133301845Y-68287500D01*
X133301842Y-68287500D01*
X133144158Y-68287500D01*
X133144155Y-68287500D01*
X132989510Y-68318261D01*
X132989498Y-68318264D01*
X132843827Y-68378602D01*
X132843814Y-68378609D01*
X132712711Y-68466210D01*
X132712707Y-68466213D01*
X132601213Y-68577707D01*
X132601210Y-68577711D01*
X132513609Y-68708814D01*
X132513602Y-68708827D01*
X132453264Y-68854498D01*
X132453261Y-68854510D01*
X132422500Y-69009153D01*
X127401493Y-69009153D01*
X127367789Y-68958711D01*
X127367786Y-68958707D01*
X127256292Y-68847213D01*
X127256288Y-68847210D01*
X127125185Y-68759609D01*
X127125172Y-68759602D01*
X126979501Y-68699264D01*
X126979489Y-68699261D01*
X126824845Y-68668500D01*
X126824842Y-68668500D01*
X126667158Y-68668500D01*
X126667155Y-68668500D01*
X126512510Y-68699261D01*
X126512498Y-68699264D01*
X126366827Y-68759602D01*
X126366814Y-68759609D01*
X126235711Y-68847210D01*
X126235707Y-68847213D01*
X126124213Y-68958707D01*
X126124210Y-68958711D01*
X126036609Y-69089814D01*
X126036602Y-69089827D01*
X125976264Y-69235498D01*
X125976261Y-69235510D01*
X125945500Y-69390153D01*
X124257319Y-69390153D01*
X124349180Y-69168381D01*
X124441889Y-68862760D01*
X124504196Y-68549523D01*
X124535500Y-68231687D01*
X124535500Y-67912313D01*
X124504196Y-67594477D01*
X124441889Y-67281240D01*
X124349180Y-66975619D01*
X124226961Y-66680556D01*
X124209320Y-66647553D01*
X124076415Y-66398905D01*
X124076414Y-66398903D01*
X124076409Y-66398894D01*
X123898975Y-66133344D01*
X123696366Y-65886465D01*
X123696365Y-65886464D01*
X123696361Y-65886459D01*
X123470540Y-65660638D01*
X123223661Y-65458029D01*
X123223638Y-65458012D01*
X122958122Y-65280601D01*
X122958094Y-65280584D01*
X122676451Y-65130042D01*
X122676446Y-65130040D01*
X122381382Y-65007820D01*
X122075754Y-64915109D01*
X121762521Y-64852803D01*
X121762522Y-64852803D01*
X121523141Y-64829227D01*
X121444687Y-64821500D01*
X121125313Y-64821500D01*
X121052822Y-64828639D01*
X120807477Y-64852803D01*
X120494245Y-64915109D01*
X120188617Y-65007820D01*
X119893553Y-65130040D01*
X119893548Y-65130042D01*
X119611905Y-65280584D01*
X119611877Y-65280601D01*
X119346361Y-65458012D01*
X119346338Y-65458029D01*
X119099459Y-65660638D01*
X118873638Y-65886459D01*
X118671029Y-66133338D01*
X118671012Y-66133361D01*
X118493601Y-66398877D01*
X118493584Y-66398905D01*
X118343042Y-66680548D01*
X118343040Y-66680553D01*
X118220820Y-66975617D01*
X118128109Y-67281245D01*
X118065803Y-67594477D01*
X118044489Y-67810893D01*
X118034500Y-67912313D01*
X117347882Y-67912313D01*
X117357062Y-67713761D01*
X117358119Y-67702366D01*
X117406873Y-67352863D01*
X117408973Y-67341626D01*
X117489770Y-66998100D01*
X117492893Y-66987121D01*
X117605049Y-66652491D01*
X117609172Y-66641852D01*
X117751720Y-66319010D01*
X117756803Y-66308801D01*
X117928530Y-66000494D01*
X117934556Y-65990762D01*
X118133994Y-65699617D01*
X118140876Y-65690505D01*
X118366327Y-65419005D01*
X118374021Y-65410565D01*
X118623565Y-65161021D01*
X118632005Y-65153327D01*
X118903505Y-64927876D01*
X118912617Y-64920994D01*
X119203767Y-64721552D01*
X119213494Y-64715530D01*
X119521801Y-64543803D01*
X119532010Y-64538720D01*
X119854852Y-64396172D01*
X119865491Y-64392049D01*
X120200121Y-64279893D01*
X120211100Y-64276770D01*
X120554626Y-64195973D01*
X120565863Y-64193873D01*
X120915375Y-64145118D01*
X120926761Y-64144062D01*
X121282145Y-64127632D01*
X121287872Y-64127500D01*
X121350892Y-64127500D01*
X129337210Y-64127500D01*
X129404249Y-64147185D01*
G37*
%TD.AperFunction*%
%TD*%
M02*
