%TF.GenerationSoftware,KiCad,Pcbnew,9.0.0*%
%TF.CreationDate,2026-05-29T15:15:51-07:00*%
%TF.ProjectId,RM-VT01A_Breakout_Board,524d2d56-5430-4314-915f-427265616b6f,rev?*%
%TF.SameCoordinates,Original*%
%TF.FileFunction,Legend,Top*%
%TF.FilePolarity,Positive*%
%FSLAX46Y46*%
G04 Gerber Fmt 4.6, Leading zero omitted, Abs format (unit mm)*
G04 Created by KiCad (PCBNEW 9.0.0) date 2026-05-29 15:15:51*
%MOMM*%
%LPD*%
G01*
G04 APERTURE LIST*
G04 Aperture macros list*
%AMRoundRect*
0 Rectangle with rounded corners*
0 $1 Rounding radius*
0 $2 $3 $4 $5 $6 $7 $8 $9 X,Y pos of 4 corners*
0 Add a 4 corners polygon primitive as box body*
4,1,4,$2,$3,$4,$5,$6,$7,$8,$9,$2,$3,0*
0 Add four circle primitives for the rounded corners*
1,1,$1+$1,$2,$3*
1,1,$1+$1,$4,$5*
1,1,$1+$1,$6,$7*
1,1,$1+$1,$8,$9*
0 Add four rect primitives between the rounded corners*
20,1,$1+$1,$2,$3,$4,$5,0*
20,1,$1+$1,$4,$5,$6,$7,0*
20,1,$1+$1,$6,$7,$8,$9,0*
20,1,$1+$1,$8,$9,$2,$3,0*%
G04 Aperture macros list end*
%ADD10C,0.150000*%
%ADD11C,0.120000*%
%ADD12C,0.200000*%
%ADD13C,0.152400*%
%ADD14C,5.500000*%
%ADD15C,3.000000*%
%ADD16RoundRect,0.225000X-0.250000X0.225000X-0.250000X-0.225000X0.250000X-0.225000X0.250000X0.225000X0*%
%ADD17RoundRect,0.225000X-0.775000X-0.525000X0.775000X-0.525000X0.775000X0.525000X-0.775000X0.525000X0*%
%ADD18C,2.692400*%
%ADD19C,1.168400*%
G04 APERTURE END LIST*
D10*
X129178207Y-86769580D02*
X129130588Y-86817200D01*
X129130588Y-86817200D02*
X128987731Y-86864819D01*
X128987731Y-86864819D02*
X128892493Y-86864819D01*
X128892493Y-86864819D02*
X128749636Y-86817200D01*
X128749636Y-86817200D02*
X128654398Y-86721961D01*
X128654398Y-86721961D02*
X128606779Y-86626723D01*
X128606779Y-86626723D02*
X128559160Y-86436247D01*
X128559160Y-86436247D02*
X128559160Y-86293390D01*
X128559160Y-86293390D02*
X128606779Y-86102914D01*
X128606779Y-86102914D02*
X128654398Y-86007676D01*
X128654398Y-86007676D02*
X128749636Y-85912438D01*
X128749636Y-85912438D02*
X128892493Y-85864819D01*
X128892493Y-85864819D02*
X128987731Y-85864819D01*
X128987731Y-85864819D02*
X129130588Y-85912438D01*
X129130588Y-85912438D02*
X129178207Y-85960057D01*
X129797255Y-85864819D02*
X129987731Y-85864819D01*
X129987731Y-85864819D02*
X130082969Y-85912438D01*
X130082969Y-85912438D02*
X130178207Y-86007676D01*
X130178207Y-86007676D02*
X130225826Y-86198152D01*
X130225826Y-86198152D02*
X130225826Y-86531485D01*
X130225826Y-86531485D02*
X130178207Y-86721961D01*
X130178207Y-86721961D02*
X130082969Y-86817200D01*
X130082969Y-86817200D02*
X129987731Y-86864819D01*
X129987731Y-86864819D02*
X129797255Y-86864819D01*
X129797255Y-86864819D02*
X129702017Y-86817200D01*
X129702017Y-86817200D02*
X129606779Y-86721961D01*
X129606779Y-86721961D02*
X129559160Y-86531485D01*
X129559160Y-86531485D02*
X129559160Y-86198152D01*
X129559160Y-86198152D02*
X129606779Y-86007676D01*
X129606779Y-86007676D02*
X129702017Y-85912438D01*
X129702017Y-85912438D02*
X129797255Y-85864819D01*
X130606779Y-86579104D02*
X131082969Y-86579104D01*
X130511541Y-86864819D02*
X130844874Y-85864819D01*
X130844874Y-85864819D02*
X131178207Y-86864819D01*
X131416303Y-85864819D02*
X132082969Y-86864819D01*
X132082969Y-85864819D02*
X131416303Y-86864819D01*
X129339875Y-98532744D02*
X129339875Y-98437506D01*
X129339875Y-98437506D02*
X129387494Y-98342268D01*
X129387494Y-98342268D02*
X129435113Y-98294649D01*
X129435113Y-98294649D02*
X129530351Y-98247030D01*
X129530351Y-98247030D02*
X129720827Y-98199411D01*
X129720827Y-98199411D02*
X129958922Y-98199411D01*
X129958922Y-98199411D02*
X130149398Y-98247030D01*
X130149398Y-98247030D02*
X130244636Y-98294649D01*
X130244636Y-98294649D02*
X130292256Y-98342268D01*
X130292256Y-98342268D02*
X130339875Y-98437506D01*
X130339875Y-98437506D02*
X130339875Y-98532744D01*
X130339875Y-98532744D02*
X130292256Y-98627982D01*
X130292256Y-98627982D02*
X130244636Y-98675601D01*
X130244636Y-98675601D02*
X130149398Y-98723220D01*
X130149398Y-98723220D02*
X129958922Y-98770839D01*
X129958922Y-98770839D02*
X129720827Y-98770839D01*
X129720827Y-98770839D02*
X129530351Y-98723220D01*
X129530351Y-98723220D02*
X129435113Y-98675601D01*
X129435113Y-98675601D02*
X129387494Y-98627982D01*
X129387494Y-98627982D02*
X129339875Y-98532744D01*
X130244636Y-97770839D02*
X130292256Y-97723220D01*
X130292256Y-97723220D02*
X130339875Y-97770839D01*
X130339875Y-97770839D02*
X130292256Y-97818458D01*
X130292256Y-97818458D02*
X130244636Y-97770839D01*
X130244636Y-97770839D02*
X130339875Y-97770839D01*
X129339875Y-97389887D02*
X129339875Y-96770840D01*
X129339875Y-96770840D02*
X129720827Y-97104173D01*
X129720827Y-97104173D02*
X129720827Y-96961316D01*
X129720827Y-96961316D02*
X129768446Y-96866078D01*
X129768446Y-96866078D02*
X129816065Y-96818459D01*
X129816065Y-96818459D02*
X129911303Y-96770840D01*
X129911303Y-96770840D02*
X130149398Y-96770840D01*
X130149398Y-96770840D02*
X130244636Y-96818459D01*
X130244636Y-96818459D02*
X130292256Y-96866078D01*
X130292256Y-96866078D02*
X130339875Y-96961316D01*
X130339875Y-96961316D02*
X130339875Y-97247030D01*
X130339875Y-97247030D02*
X130292256Y-97342268D01*
X130292256Y-97342268D02*
X130244636Y-97389887D01*
X129673208Y-95913697D02*
X130339875Y-95913697D01*
X129292256Y-96151792D02*
X130006541Y-96389887D01*
X130006541Y-96389887D02*
X130006541Y-95770840D01*
X130339875Y-95342268D02*
X130339875Y-95151792D01*
X130339875Y-95151792D02*
X130292256Y-95056554D01*
X130292256Y-95056554D02*
X130244636Y-95008935D01*
X130244636Y-95008935D02*
X130101779Y-94913697D01*
X130101779Y-94913697D02*
X129911303Y-94866078D01*
X129911303Y-94866078D02*
X129530351Y-94866078D01*
X129530351Y-94866078D02*
X129435113Y-94913697D01*
X129435113Y-94913697D02*
X129387494Y-94961316D01*
X129387494Y-94961316D02*
X129339875Y-95056554D01*
X129339875Y-95056554D02*
X129339875Y-95247030D01*
X129339875Y-95247030D02*
X129387494Y-95342268D01*
X129387494Y-95342268D02*
X129435113Y-95389887D01*
X129435113Y-95389887D02*
X129530351Y-95437506D01*
X129530351Y-95437506D02*
X129768446Y-95437506D01*
X129768446Y-95437506D02*
X129863684Y-95389887D01*
X129863684Y-95389887D02*
X129911303Y-95342268D01*
X129911303Y-95342268D02*
X129958922Y-95247030D01*
X129958922Y-95247030D02*
X129958922Y-95056554D01*
X129958922Y-95056554D02*
X129911303Y-94961316D01*
X129911303Y-94961316D02*
X129863684Y-94913697D01*
X129863684Y-94913697D02*
X129768446Y-94866078D01*
X129339875Y-94532744D02*
X129339875Y-93913697D01*
X129339875Y-93913697D02*
X129720827Y-94247030D01*
X129720827Y-94247030D02*
X129720827Y-94104173D01*
X129720827Y-94104173D02*
X129768446Y-94008935D01*
X129768446Y-94008935D02*
X129816065Y-93961316D01*
X129816065Y-93961316D02*
X129911303Y-93913697D01*
X129911303Y-93913697D02*
X130149398Y-93913697D01*
X130149398Y-93913697D02*
X130244636Y-93961316D01*
X130244636Y-93961316D02*
X130292256Y-94008935D01*
X130292256Y-94008935D02*
X130339875Y-94104173D01*
X130339875Y-94104173D02*
X130339875Y-94389887D01*
X130339875Y-94389887D02*
X130292256Y-94485125D01*
X130292256Y-94485125D02*
X130244636Y-94532744D01*
X130339875Y-93485125D02*
X129673208Y-93485125D01*
X129768446Y-93485125D02*
X129720827Y-93437506D01*
X129720827Y-93437506D02*
X129673208Y-93342268D01*
X129673208Y-93342268D02*
X129673208Y-93199411D01*
X129673208Y-93199411D02*
X129720827Y-93104173D01*
X129720827Y-93104173D02*
X129816065Y-93056554D01*
X129816065Y-93056554D02*
X130339875Y-93056554D01*
X129816065Y-93056554D02*
X129720827Y-93008935D01*
X129720827Y-93008935D02*
X129673208Y-92913697D01*
X129673208Y-92913697D02*
X129673208Y-92770840D01*
X129673208Y-92770840D02*
X129720827Y-92675601D01*
X129720827Y-92675601D02*
X129816065Y-92627982D01*
X129816065Y-92627982D02*
X130339875Y-92627982D01*
X130339875Y-92151792D02*
X129673208Y-92151792D01*
X129768446Y-92151792D02*
X129720827Y-92104173D01*
X129720827Y-92104173D02*
X129673208Y-92008935D01*
X129673208Y-92008935D02*
X129673208Y-91866078D01*
X129673208Y-91866078D02*
X129720827Y-91770840D01*
X129720827Y-91770840D02*
X129816065Y-91723221D01*
X129816065Y-91723221D02*
X130339875Y-91723221D01*
X129816065Y-91723221D02*
X129720827Y-91675602D01*
X129720827Y-91675602D02*
X129673208Y-91580364D01*
X129673208Y-91580364D02*
X129673208Y-91437507D01*
X129673208Y-91437507D02*
X129720827Y-91342268D01*
X129720827Y-91342268D02*
X129816065Y-91294649D01*
X129816065Y-91294649D02*
X130339875Y-91294649D01*
X130949819Y-98247030D02*
X130949819Y-98723220D01*
X130949819Y-98723220D02*
X131426009Y-98770839D01*
X131426009Y-98770839D02*
X131378390Y-98723220D01*
X131378390Y-98723220D02*
X131330771Y-98627982D01*
X131330771Y-98627982D02*
X131330771Y-98389887D01*
X131330771Y-98389887D02*
X131378390Y-98294649D01*
X131378390Y-98294649D02*
X131426009Y-98247030D01*
X131426009Y-98247030D02*
X131521247Y-98199411D01*
X131521247Y-98199411D02*
X131759342Y-98199411D01*
X131759342Y-98199411D02*
X131854580Y-98247030D01*
X131854580Y-98247030D02*
X131902200Y-98294649D01*
X131902200Y-98294649D02*
X131949819Y-98389887D01*
X131949819Y-98389887D02*
X131949819Y-98627982D01*
X131949819Y-98627982D02*
X131902200Y-98723220D01*
X131902200Y-98723220D02*
X131854580Y-98770839D01*
X130949819Y-97580363D02*
X130949819Y-97485125D01*
X130949819Y-97485125D02*
X130997438Y-97389887D01*
X130997438Y-97389887D02*
X131045057Y-97342268D01*
X131045057Y-97342268D02*
X131140295Y-97294649D01*
X131140295Y-97294649D02*
X131330771Y-97247030D01*
X131330771Y-97247030D02*
X131568866Y-97247030D01*
X131568866Y-97247030D02*
X131759342Y-97294649D01*
X131759342Y-97294649D02*
X131854580Y-97342268D01*
X131854580Y-97342268D02*
X131902200Y-97389887D01*
X131902200Y-97389887D02*
X131949819Y-97485125D01*
X131949819Y-97485125D02*
X131949819Y-97580363D01*
X131949819Y-97580363D02*
X131902200Y-97675601D01*
X131902200Y-97675601D02*
X131854580Y-97723220D01*
X131854580Y-97723220D02*
X131759342Y-97770839D01*
X131759342Y-97770839D02*
X131568866Y-97818458D01*
X131568866Y-97818458D02*
X131330771Y-97818458D01*
X131330771Y-97818458D02*
X131140295Y-97770839D01*
X131140295Y-97770839D02*
X131045057Y-97723220D01*
X131045057Y-97723220D02*
X130997438Y-97675601D01*
X130997438Y-97675601D02*
X130949819Y-97580363D01*
X131949819Y-96866077D02*
X131949819Y-96627982D01*
X131949819Y-96627982D02*
X131759342Y-96627982D01*
X131759342Y-96627982D02*
X131711723Y-96723220D01*
X131711723Y-96723220D02*
X131616485Y-96818458D01*
X131616485Y-96818458D02*
X131473628Y-96866077D01*
X131473628Y-96866077D02*
X131235533Y-96866077D01*
X131235533Y-96866077D02*
X131092676Y-96818458D01*
X131092676Y-96818458D02*
X130997438Y-96723220D01*
X130997438Y-96723220D02*
X130949819Y-96580363D01*
X130949819Y-96580363D02*
X130949819Y-96389887D01*
X130949819Y-96389887D02*
X130997438Y-96247030D01*
X130997438Y-96247030D02*
X131092676Y-96151792D01*
X131092676Y-96151792D02*
X131235533Y-96104173D01*
X131235533Y-96104173D02*
X131473628Y-96104173D01*
X131473628Y-96104173D02*
X131616485Y-96151792D01*
X131616485Y-96151792D02*
X131711723Y-96247030D01*
X131711723Y-96247030D02*
X131759342Y-96342268D01*
X131759342Y-96342268D02*
X131949819Y-96342268D01*
X131949819Y-96342268D02*
X131949819Y-96104173D01*
X129305207Y-85594819D02*
X128971874Y-85118628D01*
X128733779Y-85594819D02*
X128733779Y-84594819D01*
X128733779Y-84594819D02*
X129114731Y-84594819D01*
X129114731Y-84594819D02*
X129209969Y-84642438D01*
X129209969Y-84642438D02*
X129257588Y-84690057D01*
X129257588Y-84690057D02*
X129305207Y-84785295D01*
X129305207Y-84785295D02*
X129305207Y-84928152D01*
X129305207Y-84928152D02*
X129257588Y-85023390D01*
X129257588Y-85023390D02*
X129209969Y-85071009D01*
X129209969Y-85071009D02*
X129114731Y-85118628D01*
X129114731Y-85118628D02*
X128733779Y-85118628D01*
X130257588Y-85594819D02*
X129686160Y-85594819D01*
X129971874Y-85594819D02*
X129971874Y-84594819D01*
X129971874Y-84594819D02*
X129876636Y-84737676D01*
X129876636Y-84737676D02*
X129781398Y-84832914D01*
X129781398Y-84832914D02*
X129686160Y-84880533D01*
X128733779Y-83801009D02*
X129067112Y-83801009D01*
X129209969Y-84324819D02*
X128733779Y-84324819D01*
X128733779Y-84324819D02*
X128733779Y-83324819D01*
X128733779Y-83324819D02*
X129209969Y-83324819D01*
X129638541Y-84324819D02*
X129638541Y-83324819D01*
X129638541Y-83324819D02*
X130209969Y-84324819D01*
X130209969Y-84324819D02*
X130209969Y-83324819D01*
X121764588Y-85277438D02*
X121669350Y-85229819D01*
X121669350Y-85229819D02*
X121526493Y-85229819D01*
X121526493Y-85229819D02*
X121383636Y-85277438D01*
X121383636Y-85277438D02*
X121288398Y-85372676D01*
X121288398Y-85372676D02*
X121240779Y-85467914D01*
X121240779Y-85467914D02*
X121193160Y-85658390D01*
X121193160Y-85658390D02*
X121193160Y-85801247D01*
X121193160Y-85801247D02*
X121240779Y-85991723D01*
X121240779Y-85991723D02*
X121288398Y-86086961D01*
X121288398Y-86086961D02*
X121383636Y-86182200D01*
X121383636Y-86182200D02*
X121526493Y-86229819D01*
X121526493Y-86229819D02*
X121621731Y-86229819D01*
X121621731Y-86229819D02*
X121764588Y-86182200D01*
X121764588Y-86182200D02*
X121812207Y-86134580D01*
X121812207Y-86134580D02*
X121812207Y-85801247D01*
X121812207Y-85801247D02*
X121621731Y-85801247D01*
X122240779Y-86229819D02*
X122240779Y-85229819D01*
X122240779Y-85229819D02*
X122812207Y-86229819D01*
X122812207Y-86229819D02*
X122812207Y-85229819D01*
X123288398Y-86229819D02*
X123288398Y-85229819D01*
X123288398Y-85229819D02*
X123526493Y-85229819D01*
X123526493Y-85229819D02*
X123669350Y-85277438D01*
X123669350Y-85277438D02*
X123764588Y-85372676D01*
X123764588Y-85372676D02*
X123812207Y-85467914D01*
X123812207Y-85467914D02*
X123859826Y-85658390D01*
X123859826Y-85658390D02*
X123859826Y-85801247D01*
X123859826Y-85801247D02*
X123812207Y-85991723D01*
X123812207Y-85991723D02*
X123764588Y-86086961D01*
X123764588Y-86086961D02*
X123669350Y-86182200D01*
X123669350Y-86182200D02*
X123526493Y-86229819D01*
X123526493Y-86229819D02*
X123288398Y-86229819D01*
X121224922Y-81419819D02*
X121558255Y-82419819D01*
X121558255Y-82419819D02*
X121891588Y-81419819D01*
X122224922Y-82419819D02*
X122224922Y-81419819D01*
X122224922Y-81419819D02*
X122463017Y-81419819D01*
X122463017Y-81419819D02*
X122605874Y-81467438D01*
X122605874Y-81467438D02*
X122701112Y-81562676D01*
X122701112Y-81562676D02*
X122748731Y-81657914D01*
X122748731Y-81657914D02*
X122796350Y-81848390D01*
X122796350Y-81848390D02*
X122796350Y-81991247D01*
X122796350Y-81991247D02*
X122748731Y-82181723D01*
X122748731Y-82181723D02*
X122701112Y-82276961D01*
X122701112Y-82276961D02*
X122605874Y-82372200D01*
X122605874Y-82372200D02*
X122463017Y-82419819D01*
X122463017Y-82419819D02*
X122224922Y-82419819D01*
X123224922Y-82419819D02*
X123224922Y-81419819D01*
X123224922Y-81419819D02*
X123463017Y-81419819D01*
X123463017Y-81419819D02*
X123605874Y-81467438D01*
X123605874Y-81467438D02*
X123701112Y-81562676D01*
X123701112Y-81562676D02*
X123748731Y-81657914D01*
X123748731Y-81657914D02*
X123796350Y-81848390D01*
X123796350Y-81848390D02*
X123796350Y-81991247D01*
X123796350Y-81991247D02*
X123748731Y-82181723D01*
X123748731Y-82181723D02*
X123701112Y-82276961D01*
X123701112Y-82276961D02*
X123605874Y-82372200D01*
X123605874Y-82372200D02*
X123463017Y-82419819D01*
X123463017Y-82419819D02*
X123224922Y-82419819D01*
X129305207Y-81784819D02*
X128971874Y-81308628D01*
X128733779Y-81784819D02*
X128733779Y-80784819D01*
X128733779Y-80784819D02*
X129114731Y-80784819D01*
X129114731Y-80784819D02*
X129209969Y-80832438D01*
X129209969Y-80832438D02*
X129257588Y-80880057D01*
X129257588Y-80880057D02*
X129305207Y-80975295D01*
X129305207Y-80975295D02*
X129305207Y-81118152D01*
X129305207Y-81118152D02*
X129257588Y-81213390D01*
X129257588Y-81213390D02*
X129209969Y-81261009D01*
X129209969Y-81261009D02*
X129114731Y-81308628D01*
X129114731Y-81308628D02*
X128733779Y-81308628D01*
X129686160Y-80880057D02*
X129733779Y-80832438D01*
X129733779Y-80832438D02*
X129829017Y-80784819D01*
X129829017Y-80784819D02*
X130067112Y-80784819D01*
X130067112Y-80784819D02*
X130162350Y-80832438D01*
X130162350Y-80832438D02*
X130209969Y-80880057D01*
X130209969Y-80880057D02*
X130257588Y-80975295D01*
X130257588Y-80975295D02*
X130257588Y-81070533D01*
X130257588Y-81070533D02*
X130209969Y-81213390D01*
X130209969Y-81213390D02*
X129638541Y-81784819D01*
X129638541Y-81784819D02*
X130257588Y-81784819D01*
X124714095Y-68526819D02*
X124714095Y-67526819D01*
X124714095Y-68003009D02*
X125285523Y-68003009D01*
X125285523Y-68526819D02*
X125285523Y-67526819D01*
X126285523Y-68526819D02*
X125714095Y-68526819D01*
X125999809Y-68526819D02*
X125999809Y-67526819D01*
X125999809Y-67526819D02*
X125904571Y-67669676D01*
X125904571Y-67669676D02*
X125809333Y-67764914D01*
X125809333Y-67764914D02*
X125714095Y-67812533D01*
X139852333Y-69248819D02*
X139519000Y-68772628D01*
X139280905Y-69248819D02*
X139280905Y-68248819D01*
X139280905Y-68248819D02*
X139661857Y-68248819D01*
X139661857Y-68248819D02*
X139757095Y-68296438D01*
X139757095Y-68296438D02*
X139804714Y-68344057D01*
X139804714Y-68344057D02*
X139852333Y-68439295D01*
X139852333Y-68439295D02*
X139852333Y-68582152D01*
X139852333Y-68582152D02*
X139804714Y-68677390D01*
X139804714Y-68677390D02*
X139757095Y-68725009D01*
X139757095Y-68725009D02*
X139661857Y-68772628D01*
X139661857Y-68772628D02*
X139280905Y-68772628D01*
X140233286Y-68344057D02*
X140280905Y-68296438D01*
X140280905Y-68296438D02*
X140376143Y-68248819D01*
X140376143Y-68248819D02*
X140614238Y-68248819D01*
X140614238Y-68248819D02*
X140709476Y-68296438D01*
X140709476Y-68296438D02*
X140757095Y-68344057D01*
X140757095Y-68344057D02*
X140804714Y-68439295D01*
X140804714Y-68439295D02*
X140804714Y-68534533D01*
X140804714Y-68534533D02*
X140757095Y-68677390D01*
X140757095Y-68677390D02*
X140185667Y-69248819D01*
X140185667Y-69248819D02*
X140804714Y-69248819D01*
X155448095Y-94180819D02*
X155448095Y-93180819D01*
X155448095Y-93657009D02*
X156019523Y-93657009D01*
X156019523Y-94180819D02*
X156019523Y-93180819D01*
X156924285Y-93514152D02*
X156924285Y-94180819D01*
X156686190Y-93133200D02*
X156448095Y-93847485D01*
X156448095Y-93847485D02*
X157067142Y-93847485D01*
X131024333Y-74781580D02*
X130976714Y-74829200D01*
X130976714Y-74829200D02*
X130833857Y-74876819D01*
X130833857Y-74876819D02*
X130738619Y-74876819D01*
X130738619Y-74876819D02*
X130595762Y-74829200D01*
X130595762Y-74829200D02*
X130500524Y-74733961D01*
X130500524Y-74733961D02*
X130452905Y-74638723D01*
X130452905Y-74638723D02*
X130405286Y-74448247D01*
X130405286Y-74448247D02*
X130405286Y-74305390D01*
X130405286Y-74305390D02*
X130452905Y-74114914D01*
X130452905Y-74114914D02*
X130500524Y-74019676D01*
X130500524Y-74019676D02*
X130595762Y-73924438D01*
X130595762Y-73924438D02*
X130738619Y-73876819D01*
X130738619Y-73876819D02*
X130833857Y-73876819D01*
X130833857Y-73876819D02*
X130976714Y-73924438D01*
X130976714Y-73924438D02*
X131024333Y-73972057D01*
X131976714Y-74876819D02*
X131405286Y-74876819D01*
X131691000Y-74876819D02*
X131691000Y-73876819D01*
X131691000Y-73876819D02*
X131595762Y-74019676D01*
X131595762Y-74019676D02*
X131500524Y-74114914D01*
X131500524Y-74114914D02*
X131405286Y-74162533D01*
X149250333Y-69248819D02*
X148917000Y-68772628D01*
X148678905Y-69248819D02*
X148678905Y-68248819D01*
X148678905Y-68248819D02*
X149059857Y-68248819D01*
X149059857Y-68248819D02*
X149155095Y-68296438D01*
X149155095Y-68296438D02*
X149202714Y-68344057D01*
X149202714Y-68344057D02*
X149250333Y-68439295D01*
X149250333Y-68439295D02*
X149250333Y-68582152D01*
X149250333Y-68582152D02*
X149202714Y-68677390D01*
X149202714Y-68677390D02*
X149155095Y-68725009D01*
X149155095Y-68725009D02*
X149059857Y-68772628D01*
X149059857Y-68772628D02*
X148678905Y-68772628D01*
X150202714Y-69248819D02*
X149631286Y-69248819D01*
X149917000Y-69248819D02*
X149917000Y-68248819D01*
X149917000Y-68248819D02*
X149821762Y-68391676D01*
X149821762Y-68391676D02*
X149726524Y-68486914D01*
X149726524Y-68486914D02*
X149631286Y-68534533D01*
X124714095Y-98244819D02*
X124714095Y-97244819D01*
X124714095Y-97721009D02*
X125285523Y-97721009D01*
X125285523Y-98244819D02*
X125285523Y-97244819D01*
X125666476Y-97244819D02*
X126285523Y-97244819D01*
X126285523Y-97244819D02*
X125952190Y-97625771D01*
X125952190Y-97625771D02*
X126095047Y-97625771D01*
X126095047Y-97625771D02*
X126190285Y-97673390D01*
X126190285Y-97673390D02*
X126237904Y-97721009D01*
X126237904Y-97721009D02*
X126285523Y-97816247D01*
X126285523Y-97816247D02*
X126285523Y-98054342D01*
X126285523Y-98054342D02*
X126237904Y-98149580D01*
X126237904Y-98149580D02*
X126190285Y-98197200D01*
X126190285Y-98197200D02*
X126095047Y-98244819D01*
X126095047Y-98244819D02*
X125809333Y-98244819D01*
X125809333Y-98244819D02*
X125714095Y-98197200D01*
X125714095Y-98197200D02*
X125666476Y-98149580D01*
X129287667Y-68248819D02*
X129621000Y-69248819D01*
X129621000Y-69248819D02*
X129954333Y-68248819D01*
X130287667Y-69248819D02*
X130287667Y-68248819D01*
X130287667Y-68248819D02*
X130525762Y-68248819D01*
X130525762Y-68248819D02*
X130668619Y-68296438D01*
X130668619Y-68296438D02*
X130763857Y-68391676D01*
X130763857Y-68391676D02*
X130811476Y-68486914D01*
X130811476Y-68486914D02*
X130859095Y-68677390D01*
X130859095Y-68677390D02*
X130859095Y-68820247D01*
X130859095Y-68820247D02*
X130811476Y-69010723D01*
X130811476Y-69010723D02*
X130763857Y-69105961D01*
X130763857Y-69105961D02*
X130668619Y-69201200D01*
X130668619Y-69201200D02*
X130525762Y-69248819D01*
X130525762Y-69248819D02*
X130287667Y-69248819D01*
X131287667Y-69248819D02*
X131287667Y-68248819D01*
X131287667Y-68248819D02*
X131525762Y-68248819D01*
X131525762Y-68248819D02*
X131668619Y-68296438D01*
X131668619Y-68296438D02*
X131763857Y-68391676D01*
X131763857Y-68391676D02*
X131811476Y-68486914D01*
X131811476Y-68486914D02*
X131859095Y-68677390D01*
X131859095Y-68677390D02*
X131859095Y-68820247D01*
X131859095Y-68820247D02*
X131811476Y-69010723D01*
X131811476Y-69010723D02*
X131763857Y-69105961D01*
X131763857Y-69105961D02*
X131668619Y-69201200D01*
X131668619Y-69201200D02*
X131525762Y-69248819D01*
X131525762Y-69248819D02*
X131287667Y-69248819D01*
X155448095Y-72463819D02*
X155448095Y-71463819D01*
X155448095Y-71940009D02*
X156019523Y-71940009D01*
X156019523Y-72463819D02*
X156019523Y-71463819D01*
X156448095Y-71559057D02*
X156495714Y-71511438D01*
X156495714Y-71511438D02*
X156590952Y-71463819D01*
X156590952Y-71463819D02*
X156829047Y-71463819D01*
X156829047Y-71463819D02*
X156924285Y-71511438D01*
X156924285Y-71511438D02*
X156971904Y-71559057D01*
X156971904Y-71559057D02*
X157019523Y-71654295D01*
X157019523Y-71654295D02*
X157019523Y-71749533D01*
X157019523Y-71749533D02*
X156971904Y-71892390D01*
X156971904Y-71892390D02*
X156400476Y-72463819D01*
X156400476Y-72463819D02*
X157019523Y-72463819D01*
X133858095Y-70574819D02*
X133858095Y-71384342D01*
X133858095Y-71384342D02*
X133905714Y-71479580D01*
X133905714Y-71479580D02*
X133953333Y-71527200D01*
X133953333Y-71527200D02*
X134048571Y-71574819D01*
X134048571Y-71574819D02*
X134239047Y-71574819D01*
X134239047Y-71574819D02*
X134334285Y-71527200D01*
X134334285Y-71527200D02*
X134381904Y-71479580D01*
X134381904Y-71479580D02*
X134429523Y-71384342D01*
X134429523Y-71384342D02*
X134429523Y-70574819D01*
X135429523Y-71574819D02*
X134858095Y-71574819D01*
X135143809Y-71574819D02*
X135143809Y-70574819D01*
X135143809Y-70574819D02*
X135048571Y-70717676D01*
X135048571Y-70717676D02*
X134953333Y-70812914D01*
X134953333Y-70812914D02*
X134858095Y-70860533D01*
X122348666Y-71971819D02*
X122348666Y-72686104D01*
X122348666Y-72686104D02*
X122301047Y-72828961D01*
X122301047Y-72828961D02*
X122205809Y-72924200D01*
X122205809Y-72924200D02*
X122062952Y-72971819D01*
X122062952Y-72971819D02*
X121967714Y-72971819D01*
X123348666Y-72971819D02*
X122777238Y-72971819D01*
X123062952Y-72971819D02*
X123062952Y-71971819D01*
X123062952Y-71971819D02*
X122967714Y-72114676D01*
X122967714Y-72114676D02*
X122872476Y-72209914D01*
X122872476Y-72209914D02*
X122777238Y-72257533D01*
X143979905Y-68725009D02*
X144313238Y-68725009D01*
X144456095Y-69248819D02*
X143979905Y-69248819D01*
X143979905Y-69248819D02*
X143979905Y-68248819D01*
X143979905Y-68248819D02*
X144456095Y-68248819D01*
X144884667Y-69248819D02*
X144884667Y-68248819D01*
X144884667Y-68248819D02*
X145456095Y-69248819D01*
X145456095Y-69248819D02*
X145456095Y-68248819D01*
X134558095Y-68296438D02*
X134462857Y-68248819D01*
X134462857Y-68248819D02*
X134320000Y-68248819D01*
X134320000Y-68248819D02*
X134177143Y-68296438D01*
X134177143Y-68296438D02*
X134081905Y-68391676D01*
X134081905Y-68391676D02*
X134034286Y-68486914D01*
X134034286Y-68486914D02*
X133986667Y-68677390D01*
X133986667Y-68677390D02*
X133986667Y-68820247D01*
X133986667Y-68820247D02*
X134034286Y-69010723D01*
X134034286Y-69010723D02*
X134081905Y-69105961D01*
X134081905Y-69105961D02*
X134177143Y-69201200D01*
X134177143Y-69201200D02*
X134320000Y-69248819D01*
X134320000Y-69248819D02*
X134415238Y-69248819D01*
X134415238Y-69248819D02*
X134558095Y-69201200D01*
X134558095Y-69201200D02*
X134605714Y-69153580D01*
X134605714Y-69153580D02*
X134605714Y-68820247D01*
X134605714Y-68820247D02*
X134415238Y-68820247D01*
X135034286Y-69248819D02*
X135034286Y-68248819D01*
X135034286Y-68248819D02*
X135605714Y-69248819D01*
X135605714Y-69248819D02*
X135605714Y-68248819D01*
X136081905Y-69248819D02*
X136081905Y-68248819D01*
X136081905Y-68248819D02*
X136320000Y-68248819D01*
X136320000Y-68248819D02*
X136462857Y-68296438D01*
X136462857Y-68296438D02*
X136558095Y-68391676D01*
X136558095Y-68391676D02*
X136605714Y-68486914D01*
X136605714Y-68486914D02*
X136653333Y-68677390D01*
X136653333Y-68677390D02*
X136653333Y-68820247D01*
X136653333Y-68820247D02*
X136605714Y-69010723D01*
X136605714Y-69010723D02*
X136558095Y-69105961D01*
X136558095Y-69105961D02*
X136462857Y-69201200D01*
X136462857Y-69201200D02*
X136320000Y-69248819D01*
X136320000Y-69248819D02*
X136081905Y-69248819D01*
D11*
%TO.C,R2*%
X141019000Y-66294000D02*
G75*
G02*
X137619000Y-66294000I-1700000J0D01*
G01*
X137619000Y-66294000D02*
G75*
G02*
X141019000Y-66294000I1700000J0D01*
G01*
%TO.C,C1*%
X128826800Y-74230620D02*
X128826800Y-74511780D01*
X129846800Y-74230620D02*
X129846800Y-74511780D01*
%TO.C,R1*%
X150417000Y-66294000D02*
G75*
G02*
X147017000Y-66294000I-1700000J0D01*
G01*
X147017000Y-66294000D02*
G75*
G02*
X150417000Y-66294000I1700000J0D01*
G01*
%TO.C,VDD*%
X131621000Y-66294000D02*
G75*
G02*
X128221000Y-66294000I-1700000J0D01*
G01*
X128221000Y-66294000D02*
G75*
G02*
X131621000Y-66294000I1700000J0D01*
G01*
D12*
%TO.C,U1*%
X134575600Y-72836000D02*
X136575600Y-70836000D01*
X134575600Y-98836000D02*
X134575600Y-72836000D01*
X134575600Y-98836000D02*
X148075600Y-98836000D01*
X148075600Y-70836000D02*
X136575600Y-70836000D01*
X148075600Y-70836000D02*
X148075600Y-98836000D01*
D13*
%TO.C,J1*%
X117602000Y-73723500D02*
X117602000Y-93916500D01*
X117602000Y-93916500D02*
X128270000Y-93916500D01*
X117856000Y-88277700D02*
X117856000Y-79362300D01*
X128270000Y-73723500D02*
X117602000Y-73723500D01*
X128270000Y-93916500D02*
X128270000Y-73723500D01*
D11*
%TO.C,EN*%
X145718000Y-66294000D02*
G75*
G02*
X142318000Y-66294000I-1700000J0D01*
G01*
X142318000Y-66294000D02*
G75*
G02*
X145718000Y-66294000I1700000J0D01*
G01*
%TO.C,GND*%
X136320000Y-66294000D02*
G75*
G02*
X132920000Y-66294000I-1700000J0D01*
G01*
X132920000Y-66294000D02*
G75*
G02*
X136320000Y-66294000I1700000J0D01*
G01*
%TD*%
%LPC*%
D14*
%TO.C,H1*%
X121285000Y-68072000D03*
%TD*%
D15*
%TO.C,R2*%
X139319000Y-66294000D03*
%TD*%
D14*
%TO.C,H4*%
X156183000Y-97790000D03*
%TD*%
D16*
%TO.C,C1*%
X129336800Y-73596200D03*
X129336800Y-75146200D03*
%TD*%
D15*
%TO.C,R1*%
X148717000Y-66294000D03*
%TD*%
D14*
%TO.C,H3*%
X121285000Y-97790000D03*
%TD*%
D15*
%TO.C,VDD*%
X129921000Y-66294000D03*
%TD*%
D14*
%TO.C,H2*%
X156183000Y-68072000D03*
%TD*%
D17*
%TO.C,U1*%
X133575600Y-73286000D03*
X133575600Y-75836000D03*
X133575600Y-78386000D03*
X133575600Y-80936000D03*
X133575600Y-83486000D03*
X133575600Y-86036000D03*
X133575600Y-88586000D03*
X133575600Y-91136000D03*
X133575600Y-93686000D03*
X133575600Y-96236000D03*
X149075600Y-96236000D03*
X149075600Y-93686000D03*
X149075600Y-91136000D03*
X149075600Y-88586000D03*
X149075600Y-86036000D03*
X149075600Y-83486000D03*
X149075600Y-80936000D03*
X149075600Y-78386000D03*
X149075600Y-75836000D03*
X149075600Y-73286000D03*
%TD*%
D18*
%TO.C,J1*%
X123520200Y-90995500D03*
X123520200Y-76644500D03*
D19*
X127330200Y-81280000D03*
X127330200Y-82550000D03*
X127330200Y-83820000D03*
X127330200Y-85090000D03*
X127330200Y-86360000D03*
X124790200Y-81915000D03*
X124790200Y-83185000D03*
X124790200Y-84455000D03*
X124790200Y-85725000D03*
%TD*%
D15*
%TO.C,EN*%
X144018000Y-66294000D03*
%TD*%
%TO.C,GND*%
X134620000Y-66294000D03*
%TD*%
%LPD*%
M02*
