%TF.GenerationSoftware,KiCad,Pcbnew,9.0.0*%
%TF.CreationDate,2026-05-29T15:15:51-07:00*%
%TF.ProjectId,RM-VT01A_Breakout_Board,524d2d56-5430-4314-915f-427265616b6f,rev?*%
%TF.SameCoordinates,Original*%
%TF.FileFunction,Copper,L1,Top*%
%TF.FilePolarity,Positive*%
%FSLAX46Y46*%
G04 Gerber Fmt 4.6, Leading zero omitted, Abs format (unit mm)*
G04 Created by KiCad (PCBNEW 9.0.0) date 2026-05-29 15:15:51*
%MOMM*%
%LPD*%
G01*
G04 APERTURE LIST*
G04 Aperture macros list*
%AMRoundRect*
0 Rectangle with rounded corners*
0 $1 Rounding radius*
0 $2 $3 $4 $5 $6 $7 $8 $9 X,Y pos of 4 corners*
0 Add a 4 corners polygon primitive as box body*
4,1,4,$2,$3,$4,$5,$6,$7,$8,$9,$2,$3,0*
0 Add four circle primitives for the rounded corners*
1,1,$1+$1,$2,$3*
1,1,$1+$1,$4,$5*
1,1,$1+$1,$6,$7*
1,1,$1+$1,$8,$9*
0 Add four rect primitives between the rounded corners*
20,1,$1+$1,$2,$3,$4,$5,0*
20,1,$1+$1,$4,$5,$6,$7,0*
20,1,$1+$1,$6,$7,$8,$9,0*
20,1,$1+$1,$8,$9,$2,$3,0*%
G04 Aperture macros list end*
%TA.AperFunction,ComponentPad*%
%ADD10C,5.500000*%
%TD*%
%TA.AperFunction,ComponentPad*%
%ADD11C,3.000000*%
%TD*%
%TA.AperFunction,SMDPad,CuDef*%
%ADD12RoundRect,0.225000X-0.250000X0.225000X-0.250000X-0.225000X0.250000X-0.225000X0.250000X0.225000X0*%
%TD*%
%TA.AperFunction,SMDPad,CuDef*%
%ADD13RoundRect,0.225000X-0.775000X-0.525000X0.775000X-0.525000X0.775000X0.525000X-0.775000X0.525000X0*%
%TD*%
%TA.AperFunction,ComponentPad*%
%ADD14C,1.168400*%
%TD*%
%TA.AperFunction,ViaPad*%
%ADD15C,0.600000*%
%TD*%
%TA.AperFunction,Conductor*%
%ADD16C,0.349300*%
%TD*%
%TA.AperFunction,Conductor*%
%ADD17C,0.200000*%
%TD*%
G04 APERTURE END LIST*
D10*
%TO.P,H1,1*%
%TO.N,N/C*%
X121285000Y-68072000D03*
%TD*%
D11*
%TO.P,R2,1,1*%
%TO.N,CTRL_R2*%
X139319000Y-66294000D03*
%TD*%
D10*
%TO.P,H4,1*%
%TO.N,N/C*%
X156183000Y-97790000D03*
%TD*%
D12*
%TO.P,C1,1*%
%TO.N,VDD*%
X129336800Y-73596200D03*
%TO.P,C1,2*%
%TO.N,GND*%
X129336800Y-75146200D03*
%TD*%
D11*
%TO.P,R1,1,1*%
%TO.N,CTRL_R1*%
X148717000Y-66294000D03*
%TD*%
D10*
%TO.P,H3,1*%
%TO.N,N/C*%
X121285000Y-97790000D03*
%TD*%
D11*
%TO.P,VDD,1,1*%
%TO.N,VDD*%
X129921000Y-66294000D03*
%TD*%
D10*
%TO.P,H2,1*%
%TO.N,N/C*%
X156183000Y-68072000D03*
%TD*%
D13*
%TO.P,U1,1,Vdd*%
%TO.N,VDD*%
X133575600Y-73286000D03*
%TO.P,U1,2,GND*%
%TO.N,GND*%
X133575600Y-75836000D03*
%TO.P,U1,3,GND*%
X133575600Y-78386000D03*
%TO.P,U1,4,CTRL_R2*%
%TO.N,CTRL_R2*%
X133575600Y-80936000D03*
%TO.P,U1,5,CTRL_EN*%
%TO.N,CTRL_EN*%
X133575600Y-83486000D03*
%TO.P,U1,6,CTRL_R1*%
%TO.N,CTRL_R1*%
X133575600Y-86036000D03*
%TO.P,U1,7*%
%TO.N,N/C*%
X133575600Y-88586000D03*
%TO.P,U1,8*%
X133575600Y-91136000D03*
%TO.P,U1,9,RADFET_OUT*%
%TO.N,CONN_COAXIAL*%
X133575600Y-93686000D03*
%TO.P,U1,10*%
%TO.N,N/C*%
X133575600Y-96236000D03*
%TO.P,U1,11*%
X149075600Y-96236000D03*
%TO.P,U1,12*%
X149075600Y-93686000D03*
%TO.P,U1,13*%
X149075600Y-91136000D03*
%TO.P,U1,14*%
X149075600Y-88586000D03*
%TO.P,U1,15*%
X149075600Y-86036000D03*
%TO.P,U1,16*%
X149075600Y-83486000D03*
%TO.P,U1,17*%
X149075600Y-80936000D03*
%TO.P,U1,18*%
X149075600Y-78386000D03*
%TO.P,U1,19*%
X149075600Y-75836000D03*
%TO.P,U1,20*%
X149075600Y-73286000D03*
%TD*%
D14*
%TO.P,J1,1,1*%
%TO.N,CTRL_R2*%
X127330200Y-81280000D03*
%TO.P,J1,2,2*%
%TO.N,unconnected-(J1-Pad2)*%
X127330200Y-82550000D03*
%TO.P,J1,3,3*%
%TO.N,CTRL_EN*%
X127330200Y-83820000D03*
%TO.P,J1,4,4*%
%TO.N,CTRL_R1*%
X127330200Y-85090000D03*
%TO.P,J1,5,5*%
%TO.N,CONN_COAXIAL*%
X127330200Y-86360000D03*
%TO.P,J1,6,6*%
%TO.N,VDD*%
X124790200Y-81915000D03*
%TO.P,J1,7,7*%
%TO.N,unconnected-(J1-Pad7)*%
X124790200Y-83185000D03*
%TO.P,J1,8,8*%
%TO.N,unconnected-(J1-Pad8)*%
X124790200Y-84455000D03*
%TO.P,J1,9,9*%
%TO.N,GND*%
X124790200Y-85725000D03*
%TD*%
D11*
%TO.P,EN,1,1*%
%TO.N,CTRL_EN*%
X144018000Y-66294000D03*
%TD*%
%TO.P,GND,1,1*%
%TO.N,GND*%
X134620000Y-66294000D03*
%TD*%
D15*
%TO.N,GND*%
X155956000Y-87630000D03*
X135128000Y-78105000D03*
X128524000Y-98298000D03*
X141605000Y-70612000D03*
X124790200Y-86868000D03*
X133223000Y-69088000D03*
X155321000Y-73152000D03*
X141325600Y-80899000D03*
X155194000Y-79629000D03*
X132080000Y-78386000D03*
X142494000Y-99822000D03*
X130302000Y-75565000D03*
X132080000Y-75836000D03*
X126746000Y-69469000D03*
X129286000Y-76200000D03*
X136779000Y-71628000D03*
X135128000Y-75836000D03*
X141732000Y-89154000D03*
%TO.N,VDD*%
X129286000Y-72517000D03*
X133575600Y-72136000D03*
%TD*%
D16*
%TO.N,CONN_COAXIAL*%
X127330200Y-87440600D02*
X133575600Y-93686000D01*
X127330200Y-86360000D02*
X127330200Y-87440600D01*
D17*
%TO.N,GND*%
X129336800Y-75146200D02*
X132885800Y-75146200D01*
X129755600Y-75565000D02*
X129336800Y-75146200D01*
X129336800Y-76149200D02*
X129286000Y-76200000D01*
X132080000Y-78386000D02*
X133575600Y-78386000D01*
X135128000Y-78105000D02*
X134847000Y-78386000D01*
X135128000Y-75836000D02*
X133575600Y-75836000D01*
X124790200Y-86868000D02*
X124790200Y-85725000D01*
X132885800Y-75146200D02*
X133575600Y-75836000D01*
X130302000Y-75565000D02*
X129755600Y-75565000D01*
X129336800Y-75146200D02*
X129336800Y-76149200D01*
X132080000Y-75836000D02*
X133575600Y-75836000D01*
X134847000Y-78386000D02*
X133575600Y-78386000D01*
%TO.N,VDD*%
X129286000Y-73545400D02*
X129336800Y-73596200D01*
X133265400Y-73596200D02*
X133575600Y-73286000D01*
X129286000Y-72517000D02*
X129286000Y-73545400D01*
X133575600Y-72136000D02*
X133575600Y-73286000D01*
X129336800Y-73596200D02*
X133265400Y-73596200D01*
%TO.N,CTRL_R1*%
X127330200Y-85090000D02*
X128276200Y-86036000D01*
X128276200Y-86036000D02*
X133575600Y-86036000D01*
X148717000Y-66294000D02*
X148717000Y-70894600D01*
X148717000Y-70894600D02*
X133575600Y-86036000D01*
%TO.N,CTRL_R2*%
X127330200Y-81280000D02*
X133231600Y-81280000D01*
X139319000Y-75192600D02*
X133575600Y-80936000D01*
X139319000Y-66294000D02*
X139319000Y-75192600D01*
X133231600Y-81280000D02*
X133575600Y-80936000D01*
%TO.N,CTRL_EN*%
X144018000Y-73043600D02*
X133575600Y-83486000D01*
X144018000Y-66294000D02*
X144018000Y-73043600D01*
X127330200Y-83820000D02*
X133241600Y-83820000D01*
X133241600Y-83820000D02*
X133575600Y-83486000D01*
%TD*%
%TA.AperFunction,Conductor*%
%TO.N,GND*%
G36*
X129402318Y-64147185D02*
G01*
X129448073Y-64199989D01*
X129458017Y-64269147D01*
X129428992Y-64332703D01*
X129370214Y-64370477D01*
X129367413Y-64371263D01*
X129276581Y-64395602D01*
X129276579Y-64395602D01*
X129276578Y-64395603D01*
X129276571Y-64395605D01*
X129034309Y-64495953D01*
X129034299Y-64495958D01*
X128807196Y-64627075D01*
X128599148Y-64786718D01*
X128413718Y-64972148D01*
X128254075Y-65180196D01*
X128122958Y-65407299D01*
X128122953Y-65407309D01*
X128022605Y-65649571D01*
X128022602Y-65649581D01*
X127954730Y-65902884D01*
X127954716Y-65902990D01*
X127920500Y-66162872D01*
X127920500Y-66425127D01*
X127933959Y-66527351D01*
X127954730Y-66685116D01*
X128022558Y-66938255D01*
X128022602Y-66938418D01*
X128022605Y-66938428D01*
X128122953Y-67180690D01*
X128122958Y-67180700D01*
X128254075Y-67407803D01*
X128413718Y-67615851D01*
X128413726Y-67615860D01*
X128599140Y-67801274D01*
X128599148Y-67801281D01*
X128807196Y-67960924D01*
X129034299Y-68092041D01*
X129034309Y-68092046D01*
X129276571Y-68192394D01*
X129276581Y-68192398D01*
X129529884Y-68260270D01*
X129778188Y-68292960D01*
X129786074Y-68293999D01*
X129789880Y-68294500D01*
X129789887Y-68294500D01*
X130052113Y-68294500D01*
X130052120Y-68294500D01*
X130312116Y-68260270D01*
X130565419Y-68192398D01*
X130807697Y-68092043D01*
X131034803Y-67960924D01*
X131242851Y-67801282D01*
X131242855Y-67801277D01*
X131242860Y-67801274D01*
X131428274Y-67615860D01*
X131428277Y-67615855D01*
X131428282Y-67615851D01*
X131587924Y-67407803D01*
X131719043Y-67180697D01*
X131819398Y-66938419D01*
X131887270Y-66685116D01*
X131921500Y-66425120D01*
X131921500Y-66162880D01*
X131887270Y-65902884D01*
X131819398Y-65649581D01*
X131792668Y-65585049D01*
X131719046Y-65407309D01*
X131719041Y-65407299D01*
X131587924Y-65180196D01*
X131465424Y-65020554D01*
X131428282Y-64972149D01*
X131428281Y-64972148D01*
X131428274Y-64972140D01*
X131242860Y-64786726D01*
X131242851Y-64786718D01*
X131034803Y-64627075D01*
X130807700Y-64495958D01*
X130807690Y-64495953D01*
X130565428Y-64395605D01*
X130565421Y-64395603D01*
X130565422Y-64395603D01*
X130565419Y-64395602D01*
X130474625Y-64371274D01*
X130414967Y-64334910D01*
X130384438Y-64272063D01*
X130392733Y-64202687D01*
X130437218Y-64148809D01*
X130503770Y-64127535D01*
X130506721Y-64127500D01*
X134036210Y-64127500D01*
X134103249Y-64147185D01*
X134149004Y-64199989D01*
X134158948Y-64269147D01*
X134129923Y-64332703D01*
X134071145Y-64370477D01*
X134068303Y-64371275D01*
X133975744Y-64396075D01*
X133733528Y-64496404D01*
X133733517Y-64496409D01*
X133506471Y-64627496D01*
X133393633Y-64714079D01*
X133393633Y-64714080D01*
X134257706Y-65578153D01*
X134241058Y-65585049D01*
X134110030Y-65672599D01*
X133998599Y-65784030D01*
X133911049Y-65915058D01*
X133904153Y-65931706D01*
X133040080Y-65067633D01*
X133040079Y-65067633D01*
X132953496Y-65180471D01*
X132822409Y-65407517D01*
X132822404Y-65407528D01*
X132722075Y-65649744D01*
X132654222Y-65902979D01*
X132654220Y-65902990D01*
X132620000Y-66162905D01*
X132620000Y-66425094D01*
X132654220Y-66685009D01*
X132654222Y-66685020D01*
X132722075Y-66938255D01*
X132822404Y-67180471D01*
X132822409Y-67180482D01*
X132953488Y-67407516D01*
X132953494Y-67407524D01*
X133040080Y-67520365D01*
X133904152Y-66656292D01*
X133911049Y-66672942D01*
X133998599Y-66803970D01*
X134110030Y-66915401D01*
X134241058Y-67002951D01*
X134257705Y-67009846D01*
X133393633Y-67873917D01*
X133393633Y-67873918D01*
X133506475Y-67960505D01*
X133506483Y-67960511D01*
X133733517Y-68091590D01*
X133733528Y-68091595D01*
X133975744Y-68191924D01*
X134228979Y-68259777D01*
X134228990Y-68259779D01*
X134488905Y-68293999D01*
X134488920Y-68294000D01*
X134751080Y-68294000D01*
X134751094Y-68293999D01*
X135011009Y-68259779D01*
X135011020Y-68259777D01*
X135264255Y-68191924D01*
X135506471Y-68091595D01*
X135506482Y-68091590D01*
X135733516Y-67960511D01*
X135733534Y-67960499D01*
X135846365Y-67873919D01*
X135846365Y-67873917D01*
X134982294Y-67009846D01*
X134998942Y-67002951D01*
X135129970Y-66915401D01*
X135241401Y-66803970D01*
X135328951Y-66672942D01*
X135335846Y-66656294D01*
X136199917Y-67520365D01*
X136199919Y-67520365D01*
X136286499Y-67407534D01*
X136286511Y-67407516D01*
X136417590Y-67180482D01*
X136417595Y-67180471D01*
X136517924Y-66938255D01*
X136585777Y-66685020D01*
X136585779Y-66685009D01*
X136619999Y-66425094D01*
X136620000Y-66425080D01*
X136620000Y-66162919D01*
X136619999Y-66162905D01*
X136585779Y-65902990D01*
X136585777Y-65902979D01*
X136517924Y-65649744D01*
X136417595Y-65407528D01*
X136417590Y-65407517D01*
X136286511Y-65180483D01*
X136286505Y-65180475D01*
X136199918Y-65067633D01*
X136199917Y-65067633D01*
X135335846Y-65931704D01*
X135328951Y-65915058D01*
X135241401Y-65784030D01*
X135129970Y-65672599D01*
X134998942Y-65585049D01*
X134982292Y-65578152D01*
X135846365Y-64714080D01*
X135733524Y-64627494D01*
X135733516Y-64627488D01*
X135506482Y-64496409D01*
X135506471Y-64496404D01*
X135264255Y-64396075D01*
X135171697Y-64371275D01*
X135112036Y-64334910D01*
X135081507Y-64272063D01*
X135089802Y-64202688D01*
X135134287Y-64148810D01*
X135200839Y-64127535D01*
X135203790Y-64127500D01*
X138733279Y-64127500D01*
X138800318Y-64147185D01*
X138846073Y-64199989D01*
X138856017Y-64269147D01*
X138826992Y-64332703D01*
X138768214Y-64370477D01*
X138765413Y-64371263D01*
X138674581Y-64395602D01*
X138674579Y-64395602D01*
X138674578Y-64395603D01*
X138674571Y-64395605D01*
X138432309Y-64495953D01*
X138432299Y-64495958D01*
X138205196Y-64627075D01*
X137997148Y-64786718D01*
X137811718Y-64972148D01*
X137652075Y-65180196D01*
X137520958Y-65407299D01*
X137520953Y-65407309D01*
X137420605Y-65649571D01*
X137420602Y-65649581D01*
X137352730Y-65902884D01*
X137352716Y-65902990D01*
X137318500Y-66162872D01*
X137318500Y-66425127D01*
X137331959Y-66527351D01*
X137352730Y-66685116D01*
X137420558Y-66938255D01*
X137420602Y-66938418D01*
X137420605Y-66938428D01*
X137520953Y-67180690D01*
X137520958Y-67180700D01*
X137652075Y-67407803D01*
X137811718Y-67615851D01*
X137811726Y-67615860D01*
X137997140Y-67801274D01*
X137997148Y-67801281D01*
X138205196Y-67960924D01*
X138432299Y-68092041D01*
X138432300Y-68092041D01*
X138432303Y-68092043D01*
X138641953Y-68178883D01*
X138696356Y-68222724D01*
X138718421Y-68289018D01*
X138718500Y-68293444D01*
X138718500Y-74892502D01*
X138698815Y-74959541D01*
X138682181Y-74980183D01*
X135062683Y-78599681D01*
X135001360Y-78633166D01*
X134975002Y-78636000D01*
X132075601Y-78636000D01*
X132075601Y-78959322D01*
X132085744Y-79058607D01*
X132139052Y-79219481D01*
X132139057Y-79219492D01*
X132228024Y-79363728D01*
X132228027Y-79363732D01*
X132347867Y-79483572D01*
X132347871Y-79483575D01*
X132463940Y-79555168D01*
X132510665Y-79607116D01*
X132521886Y-79676078D01*
X132494043Y-79740160D01*
X132463941Y-79766244D01*
X132347556Y-79838031D01*
X132227632Y-79957955D01*
X132227629Y-79957959D01*
X132138601Y-80102294D01*
X132138596Y-80102305D01*
X132085251Y-80263290D01*
X132075100Y-80362647D01*
X132075100Y-80555500D01*
X132055415Y-80622539D01*
X132002611Y-80668294D01*
X131951100Y-80679500D01*
X128297856Y-80679500D01*
X128230817Y-80659815D01*
X128197538Y-80628386D01*
X128193290Y-80622539D01*
X128157563Y-80573365D01*
X128036835Y-80452637D01*
X127898707Y-80352281D01*
X127746580Y-80274769D01*
X127746577Y-80274767D01*
X127584204Y-80222009D01*
X127457726Y-80201977D01*
X127415568Y-80195300D01*
X127244832Y-80195300D01*
X127188621Y-80204203D01*
X127076197Y-80222009D01*
X127076194Y-80222009D01*
X126913822Y-80274767D01*
X126913819Y-80274769D01*
X126761692Y-80352281D01*
X126682885Y-80409538D01*
X126623565Y-80452637D01*
X126623563Y-80452639D01*
X126623562Y-80452639D01*
X126502839Y-80573362D01*
X126502839Y-80573363D01*
X126502837Y-80573365D01*
X126467110Y-80622539D01*
X126402481Y-80711492D01*
X126324969Y-80863619D01*
X126324967Y-80863622D01*
X126272209Y-81025994D01*
X126272209Y-81025997D01*
X126245500Y-81194632D01*
X126245500Y-81365367D01*
X126272209Y-81534002D01*
X126272209Y-81534005D01*
X126324967Y-81696377D01*
X126324969Y-81696380D01*
X126402480Y-81848506D01*
X126403526Y-81850212D01*
X126403725Y-81850948D01*
X126404693Y-81852848D01*
X126404293Y-81853051D01*
X126421768Y-81917659D01*
X126404351Y-81976977D01*
X126404693Y-81977152D01*
X126403765Y-81978972D01*
X126403526Y-81979788D01*
X126402480Y-81981493D01*
X126324969Y-82133619D01*
X126324967Y-82133622D01*
X126272209Y-82295994D01*
X126272209Y-82295997D01*
X126245500Y-82464632D01*
X126245500Y-82635367D01*
X126272209Y-82804002D01*
X126272209Y-82804005D01*
X126324967Y-82966377D01*
X126324969Y-82966380D01*
X126402480Y-83118506D01*
X126403526Y-83120212D01*
X126403725Y-83120948D01*
X126404693Y-83122848D01*
X126404293Y-83123051D01*
X126421768Y-83187659D01*
X126404351Y-83246977D01*
X126404693Y-83247152D01*
X126403765Y-83248972D01*
X126403526Y-83249788D01*
X126402480Y-83251493D01*
X126324969Y-83403619D01*
X126324967Y-83403622D01*
X126272209Y-83565994D01*
X126272209Y-83565997D01*
X126245500Y-83734632D01*
X126245500Y-83905367D01*
X126272209Y-84074002D01*
X126272209Y-84074005D01*
X126324967Y-84236377D01*
X126324969Y-84236380D01*
X126402480Y-84388506D01*
X126403526Y-84390212D01*
X126403725Y-84390948D01*
X126404693Y-84392848D01*
X126404293Y-84393051D01*
X126421768Y-84457659D01*
X126404351Y-84516977D01*
X126404693Y-84517152D01*
X126403765Y-84518972D01*
X126403526Y-84519788D01*
X126402480Y-84521493D01*
X126324969Y-84673619D01*
X126324967Y-84673622D01*
X126272209Y-84835994D01*
X126272209Y-84835997D01*
X126266605Y-84871380D01*
X126245500Y-85004632D01*
X126245500Y-85175368D01*
X126256138Y-85242536D01*
X126272209Y-85344002D01*
X126272209Y-85344005D01*
X126324967Y-85506377D01*
X126324969Y-85506380D01*
X126402480Y-85658506D01*
X126403526Y-85660212D01*
X126403725Y-85660948D01*
X126404693Y-85662848D01*
X126404293Y-85663051D01*
X126421768Y-85727659D01*
X126404351Y-85786977D01*
X126404693Y-85787152D01*
X126403765Y-85788972D01*
X126403526Y-85789788D01*
X126402480Y-85791493D01*
X126324969Y-85943619D01*
X126324967Y-85943622D01*
X126272209Y-86105994D01*
X126272209Y-86105997D01*
X126245500Y-86274632D01*
X126245500Y-86445367D01*
X126272209Y-86614002D01*
X126272209Y-86614005D01*
X126324967Y-86776377D01*
X126324969Y-86776380D01*
X126402481Y-86928507D01*
X126502837Y-87066635D01*
X126502839Y-87066637D01*
X126618731Y-87182529D01*
X126652216Y-87243852D01*
X126655050Y-87270210D01*
X126655050Y-87507100D01*
X126675112Y-87607956D01*
X126680995Y-87637533D01*
X126731889Y-87760404D01*
X126805777Y-87870983D01*
X126805779Y-87870985D01*
X126805782Y-87870989D01*
X132038781Y-93103987D01*
X132072266Y-93165310D01*
X132075100Y-93191668D01*
X132075100Y-94259337D01*
X132075101Y-94259355D01*
X132085250Y-94358707D01*
X132085251Y-94358710D01*
X132138596Y-94519694D01*
X132138601Y-94519705D01*
X132227629Y-94664040D01*
X132227632Y-94664044D01*
X132347555Y-94783967D01*
X132347559Y-94783970D01*
X132463464Y-94855462D01*
X132510189Y-94907410D01*
X132521410Y-94976372D01*
X132493567Y-95040454D01*
X132463464Y-95066538D01*
X132347559Y-95138029D01*
X132347555Y-95138032D01*
X132227632Y-95257955D01*
X132227629Y-95257959D01*
X132138601Y-95402294D01*
X132138596Y-95402305D01*
X132085251Y-95563290D01*
X132075100Y-95662647D01*
X132075100Y-96809337D01*
X132075101Y-96809355D01*
X132085250Y-96908707D01*
X132085251Y-96908710D01*
X132138596Y-97069694D01*
X132138601Y-97069705D01*
X132227629Y-97214040D01*
X132227632Y-97214044D01*
X132347555Y-97333967D01*
X132347559Y-97333970D01*
X132491894Y-97422998D01*
X132491897Y-97422999D01*
X132491903Y-97423003D01*
X132652892Y-97476349D01*
X132752255Y-97486500D01*
X134398944Y-97486499D01*
X134398952Y-97486498D01*
X134398955Y-97486498D01*
X134453360Y-97480940D01*
X134498308Y-97476349D01*
X134659297Y-97423003D01*
X134803644Y-97333968D01*
X134923568Y-97214044D01*
X135012603Y-97069697D01*
X135065949Y-96908708D01*
X135076100Y-96809345D01*
X135076099Y-95662656D01*
X135065949Y-95563292D01*
X135012603Y-95402303D01*
X135012599Y-95402297D01*
X135012598Y-95402294D01*
X134923570Y-95257959D01*
X134923567Y-95257955D01*
X134803645Y-95138033D01*
X134803644Y-95138032D01*
X134687732Y-95066536D01*
X134641011Y-95014591D01*
X134629788Y-94945628D01*
X134657632Y-94881546D01*
X134687730Y-94855464D01*
X134803644Y-94783968D01*
X134923568Y-94664044D01*
X135012603Y-94519697D01*
X135065949Y-94358708D01*
X135076100Y-94259345D01*
X135076099Y-93112656D01*
X135075213Y-93103987D01*
X135065949Y-93013292D01*
X135065948Y-93013289D01*
X135012603Y-92852303D01*
X135012599Y-92852297D01*
X135012598Y-92852294D01*
X134923570Y-92707959D01*
X134923567Y-92707955D01*
X134803645Y-92588033D01*
X134803644Y-92588032D01*
X134687732Y-92516536D01*
X134641011Y-92464591D01*
X134629788Y-92395628D01*
X134657632Y-92331546D01*
X134687730Y-92305464D01*
X134803644Y-92233968D01*
X134923568Y-92114044D01*
X135012603Y-91969697D01*
X135065949Y-91808708D01*
X135076100Y-91709345D01*
X135076099Y-90562656D01*
X135065949Y-90463292D01*
X135012603Y-90302303D01*
X135012599Y-90302297D01*
X135012598Y-90302294D01*
X134923570Y-90157959D01*
X134923567Y-90157955D01*
X134803645Y-90038033D01*
X134803644Y-90038032D01*
X134687732Y-89966536D01*
X134641011Y-89914591D01*
X134629788Y-89845628D01*
X134657632Y-89781546D01*
X134687730Y-89755464D01*
X134803644Y-89683968D01*
X134923568Y-89564044D01*
X135012603Y-89419697D01*
X135065949Y-89258708D01*
X135076100Y-89159345D01*
X135076099Y-88012656D01*
X135065949Y-87913292D01*
X135012603Y-87752303D01*
X135012599Y-87752297D01*
X135012598Y-87752294D01*
X134923570Y-87607959D01*
X134923567Y-87607955D01*
X134803645Y-87488033D01*
X134803644Y-87488032D01*
X134687732Y-87416536D01*
X134641011Y-87364591D01*
X134629788Y-87295628D01*
X134657632Y-87231546D01*
X134687730Y-87205464D01*
X134803644Y-87133968D01*
X134923568Y-87014044D01*
X135012603Y-86869697D01*
X135065949Y-86708708D01*
X135076100Y-86609345D01*
X135076099Y-85462656D01*
X135076098Y-85462644D01*
X135074865Y-85450573D01*
X135087635Y-85381880D01*
X135110539Y-85350294D01*
X147363421Y-73097412D01*
X147424742Y-73063929D01*
X147494434Y-73068913D01*
X147550367Y-73110785D01*
X147574784Y-73176249D01*
X147575100Y-73185095D01*
X147575100Y-73859337D01*
X147575101Y-73859355D01*
X147585250Y-73958707D01*
X147585251Y-73958710D01*
X147638596Y-74119694D01*
X147638601Y-74119705D01*
X147727629Y-74264040D01*
X147727632Y-74264044D01*
X147847555Y-74383967D01*
X147847559Y-74383970D01*
X147963464Y-74455462D01*
X148010189Y-74507410D01*
X148021410Y-74576372D01*
X147993567Y-74640454D01*
X147963464Y-74666538D01*
X147847559Y-74738029D01*
X147847555Y-74738032D01*
X147727632Y-74857955D01*
X147727629Y-74857959D01*
X147638601Y-75002294D01*
X147638596Y-75002305D01*
X147585251Y-75163290D01*
X147575100Y-75262647D01*
X147575100Y-76409337D01*
X147575101Y-76409355D01*
X147585250Y-76508707D01*
X147585251Y-76508710D01*
X147638596Y-76669694D01*
X147638601Y-76669705D01*
X147727629Y-76814040D01*
X147727632Y-76814044D01*
X147847555Y-76933967D01*
X147847559Y-76933970D01*
X147963464Y-77005462D01*
X148010189Y-77057410D01*
X148021410Y-77126372D01*
X147993567Y-77190454D01*
X147963464Y-77216538D01*
X147847559Y-77288029D01*
X147847555Y-77288032D01*
X147727632Y-77407955D01*
X147727629Y-77407959D01*
X147638601Y-77552294D01*
X147638596Y-77552305D01*
X147585251Y-77713290D01*
X147575100Y-77812647D01*
X147575100Y-78959337D01*
X147575101Y-78959355D01*
X147585250Y-79058707D01*
X147585251Y-79058710D01*
X147638596Y-79219694D01*
X147638601Y-79219705D01*
X147727629Y-79364040D01*
X147727632Y-79364044D01*
X147847555Y-79483967D01*
X147847559Y-79483970D01*
X147963464Y-79555462D01*
X148010189Y-79607410D01*
X148021410Y-79676372D01*
X147993567Y-79740454D01*
X147963464Y-79766538D01*
X147847559Y-79838029D01*
X147847555Y-79838032D01*
X147727632Y-79957955D01*
X147727629Y-79957959D01*
X147638601Y-80102294D01*
X147638596Y-80102305D01*
X147585251Y-80263290D01*
X147575100Y-80362647D01*
X147575100Y-81509337D01*
X147575101Y-81509355D01*
X147585250Y-81608707D01*
X147585251Y-81608710D01*
X147638596Y-81769694D01*
X147638601Y-81769705D01*
X147727629Y-81914040D01*
X147727632Y-81914044D01*
X147847555Y-82033967D01*
X147847559Y-82033970D01*
X147963464Y-82105462D01*
X148010189Y-82157410D01*
X148021410Y-82226372D01*
X147993567Y-82290454D01*
X147963464Y-82316538D01*
X147847559Y-82388029D01*
X147847555Y-82388032D01*
X147727632Y-82507955D01*
X147727629Y-82507959D01*
X147638601Y-82652294D01*
X147638596Y-82652305D01*
X147585251Y-82813290D01*
X147575100Y-82912647D01*
X147575100Y-84059337D01*
X147575101Y-84059355D01*
X147585250Y-84158707D01*
X147585251Y-84158710D01*
X147638596Y-84319694D01*
X147638601Y-84319705D01*
X147727629Y-84464040D01*
X147727632Y-84464044D01*
X147847555Y-84583967D01*
X147847559Y-84583970D01*
X147963464Y-84655462D01*
X148010189Y-84707410D01*
X148021410Y-84776372D01*
X147993567Y-84840454D01*
X147963464Y-84866538D01*
X147847559Y-84938029D01*
X147847555Y-84938032D01*
X147727632Y-85057955D01*
X147727629Y-85057959D01*
X147638601Y-85202294D01*
X147638596Y-85202305D01*
X147585251Y-85363290D01*
X147575100Y-85462647D01*
X147575100Y-86609337D01*
X147575101Y-86609355D01*
X147585250Y-86708707D01*
X147585251Y-86708710D01*
X147638596Y-86869694D01*
X147638601Y-86869705D01*
X147727629Y-87014040D01*
X147727632Y-87014044D01*
X147847555Y-87133967D01*
X147847559Y-87133970D01*
X147963464Y-87205462D01*
X148010189Y-87257410D01*
X148021410Y-87326372D01*
X147993567Y-87390454D01*
X147963464Y-87416538D01*
X147847559Y-87488029D01*
X147847555Y-87488032D01*
X147727632Y-87607955D01*
X147727629Y-87607959D01*
X147638601Y-87752294D01*
X147638596Y-87752305D01*
X147585251Y-87913290D01*
X147575100Y-88012647D01*
X147575100Y-89159337D01*
X147575101Y-89159355D01*
X147585250Y-89258707D01*
X147585251Y-89258710D01*
X147638596Y-89419694D01*
X147638601Y-89419705D01*
X147727629Y-89564040D01*
X147727632Y-89564044D01*
X147847555Y-89683967D01*
X147847559Y-89683970D01*
X147963464Y-89755462D01*
X148010189Y-89807410D01*
X148021410Y-89876372D01*
X147993567Y-89940454D01*
X147963464Y-89966538D01*
X147847559Y-90038029D01*
X147847555Y-90038032D01*
X147727632Y-90157955D01*
X147727629Y-90157959D01*
X147638601Y-90302294D01*
X147638596Y-90302305D01*
X147585251Y-90463290D01*
X147575100Y-90562647D01*
X147575100Y-91709337D01*
X147575101Y-91709355D01*
X147585250Y-91808707D01*
X147585251Y-91808710D01*
X147638596Y-91969694D01*
X147638601Y-91969705D01*
X147727629Y-92114040D01*
X147727632Y-92114044D01*
X147847555Y-92233967D01*
X147847559Y-92233970D01*
X147963464Y-92305462D01*
X148010189Y-92357410D01*
X148021410Y-92426372D01*
X147993567Y-92490454D01*
X147963464Y-92516538D01*
X147847559Y-92588029D01*
X147847555Y-92588032D01*
X147727632Y-92707955D01*
X147727629Y-92707959D01*
X147638601Y-92852294D01*
X147638596Y-92852305D01*
X147585251Y-93013290D01*
X147575100Y-93112647D01*
X147575100Y-94259337D01*
X147575101Y-94259355D01*
X147585250Y-94358707D01*
X147585251Y-94358710D01*
X147638596Y-94519694D01*
X147638601Y-94519705D01*
X147727629Y-94664040D01*
X147727632Y-94664044D01*
X147847555Y-94783967D01*
X147847559Y-94783970D01*
X147963464Y-94855462D01*
X148010189Y-94907410D01*
X148021410Y-94976372D01*
X147993567Y-95040454D01*
X147963464Y-95066538D01*
X147847559Y-95138029D01*
X147847555Y-95138032D01*
X147727632Y-95257955D01*
X147727629Y-95257959D01*
X147638601Y-95402294D01*
X147638596Y-95402305D01*
X147585251Y-95563290D01*
X147575100Y-95662647D01*
X147575100Y-96809337D01*
X147575101Y-96809355D01*
X147585250Y-96908707D01*
X147585251Y-96908710D01*
X147638596Y-97069694D01*
X147638601Y-97069705D01*
X147727629Y-97214040D01*
X147727632Y-97214044D01*
X147847555Y-97333967D01*
X147847559Y-97333970D01*
X147991894Y-97422998D01*
X147991897Y-97422999D01*
X147991903Y-97423003D01*
X148152892Y-97476349D01*
X148252255Y-97486500D01*
X149898944Y-97486499D01*
X149898952Y-97486498D01*
X149898955Y-97486498D01*
X149953360Y-97480940D01*
X149998308Y-97476349D01*
X150159297Y-97423003D01*
X150303644Y-97333968D01*
X150423568Y-97214044D01*
X150512603Y-97069697D01*
X150565949Y-96908708D01*
X150576100Y-96809345D01*
X150576099Y-95662656D01*
X150565949Y-95563292D01*
X150512603Y-95402303D01*
X150512599Y-95402297D01*
X150512598Y-95402294D01*
X150423570Y-95257959D01*
X150423567Y-95257955D01*
X150303645Y-95138033D01*
X150303644Y-95138032D01*
X150187732Y-95066536D01*
X150141011Y-95014591D01*
X150129788Y-94945628D01*
X150157632Y-94881546D01*
X150187730Y-94855464D01*
X150303644Y-94783968D01*
X150423568Y-94664044D01*
X150512603Y-94519697D01*
X150565949Y-94358708D01*
X150576100Y-94259345D01*
X150576099Y-93112656D01*
X150575213Y-93103987D01*
X150565949Y-93013292D01*
X150565948Y-93013289D01*
X150512603Y-92852303D01*
X150512599Y-92852297D01*
X150512598Y-92852294D01*
X150423570Y-92707959D01*
X150423567Y-92707955D01*
X150303645Y-92588033D01*
X150303644Y-92588032D01*
X150187732Y-92516536D01*
X150141011Y-92464591D01*
X150129788Y-92395628D01*
X150157632Y-92331546D01*
X150187730Y-92305464D01*
X150303644Y-92233968D01*
X150423568Y-92114044D01*
X150512603Y-91969697D01*
X150565949Y-91808708D01*
X150576100Y-91709345D01*
X150576099Y-90562656D01*
X150565949Y-90463292D01*
X150512603Y-90302303D01*
X150512599Y-90302297D01*
X150512598Y-90302294D01*
X150423570Y-90157959D01*
X150423567Y-90157955D01*
X150303645Y-90038033D01*
X150303644Y-90038032D01*
X150187732Y-89966536D01*
X150141011Y-89914591D01*
X150129788Y-89845628D01*
X150157632Y-89781546D01*
X150187730Y-89755464D01*
X150303644Y-89683968D01*
X150423568Y-89564044D01*
X150512603Y-89419697D01*
X150565949Y-89258708D01*
X150576100Y-89159345D01*
X150576099Y-88012656D01*
X150565949Y-87913292D01*
X150512603Y-87752303D01*
X150512599Y-87752297D01*
X150512598Y-87752294D01*
X150423570Y-87607959D01*
X150423567Y-87607955D01*
X150303645Y-87488033D01*
X150303644Y-87488032D01*
X150187732Y-87416536D01*
X150141011Y-87364591D01*
X150129788Y-87295628D01*
X150157632Y-87231546D01*
X150187730Y-87205464D01*
X150303644Y-87133968D01*
X150423568Y-87014044D01*
X150512603Y-86869697D01*
X150565949Y-86708708D01*
X150576100Y-86609345D01*
X150576099Y-85462656D01*
X150575851Y-85460231D01*
X150565949Y-85363292D01*
X150565948Y-85363289D01*
X150512603Y-85202303D01*
X150512599Y-85202297D01*
X150512598Y-85202294D01*
X150423570Y-85057959D01*
X150423567Y-85057955D01*
X150303645Y-84938033D01*
X150303644Y-84938032D01*
X150187732Y-84866536D01*
X150141011Y-84814591D01*
X150129788Y-84745628D01*
X150157632Y-84681546D01*
X150187730Y-84655464D01*
X150303644Y-84583968D01*
X150423568Y-84464044D01*
X150512603Y-84319697D01*
X150565949Y-84158708D01*
X150576100Y-84059345D01*
X150576099Y-82912656D01*
X150565949Y-82813292D01*
X150512603Y-82652303D01*
X150512599Y-82652297D01*
X150512598Y-82652294D01*
X150423570Y-82507959D01*
X150423567Y-82507955D01*
X150303645Y-82388033D01*
X150303644Y-82388032D01*
X150187732Y-82316536D01*
X150141011Y-82264591D01*
X150129788Y-82195628D01*
X150157632Y-82131546D01*
X150187730Y-82105464D01*
X150303644Y-82033968D01*
X150423568Y-81914044D01*
X150512603Y-81769697D01*
X150565949Y-81608708D01*
X150576100Y-81509345D01*
X150576099Y-80362656D01*
X150565949Y-80263292D01*
X150512603Y-80102303D01*
X150512599Y-80102297D01*
X150512598Y-80102294D01*
X150423570Y-79957959D01*
X150423567Y-79957955D01*
X150303645Y-79838033D01*
X150303644Y-79838032D01*
X150187732Y-79766536D01*
X150141011Y-79714591D01*
X150129788Y-79645628D01*
X150157632Y-79581546D01*
X150187730Y-79555464D01*
X150303644Y-79483968D01*
X150423568Y-79364044D01*
X150512603Y-79219697D01*
X150565949Y-79058708D01*
X150576100Y-78959345D01*
X150576099Y-77812656D01*
X150565949Y-77713292D01*
X150512603Y-77552303D01*
X150512599Y-77552297D01*
X150512598Y-77552294D01*
X150423570Y-77407959D01*
X150423567Y-77407955D01*
X150303645Y-77288033D01*
X150303644Y-77288032D01*
X150187732Y-77216536D01*
X150141011Y-77164591D01*
X150129788Y-77095628D01*
X150157632Y-77031546D01*
X150187730Y-77005464D01*
X150303644Y-76933968D01*
X150423568Y-76814044D01*
X150512603Y-76669697D01*
X150565949Y-76508708D01*
X150576100Y-76409345D01*
X150576099Y-75262656D01*
X150565949Y-75163292D01*
X150512603Y-75002303D01*
X150512599Y-75002297D01*
X150512598Y-75002294D01*
X150423570Y-74857959D01*
X150423567Y-74857955D01*
X150303645Y-74738033D01*
X150303644Y-74738032D01*
X150187732Y-74666536D01*
X150141011Y-74614591D01*
X150129788Y-74545628D01*
X150157632Y-74481546D01*
X150187730Y-74455464D01*
X150303644Y-74383968D01*
X150423568Y-74264044D01*
X150512603Y-74119697D01*
X150565949Y-73958708D01*
X150576100Y-73859345D01*
X150576099Y-72712656D01*
X150565949Y-72613292D01*
X150512603Y-72452303D01*
X150512599Y-72452297D01*
X150512598Y-72452294D01*
X150423570Y-72307959D01*
X150423567Y-72307955D01*
X150303644Y-72188032D01*
X150303640Y-72188029D01*
X150159305Y-72099001D01*
X150159299Y-72098998D01*
X150159297Y-72098997D01*
X150159294Y-72098996D01*
X149998309Y-72045651D01*
X149898952Y-72035500D01*
X149898945Y-72035500D01*
X148724696Y-72035500D01*
X148657657Y-72015815D01*
X148611902Y-71963011D01*
X148601958Y-71893853D01*
X148630983Y-71830297D01*
X148637015Y-71823819D01*
X148835127Y-71625707D01*
X149085713Y-71375121D01*
X149085716Y-71375120D01*
X149197520Y-71263316D01*
X149247639Y-71176504D01*
X149276577Y-71126385D01*
X149317500Y-70973658D01*
X149317500Y-70815543D01*
X149317500Y-68293444D01*
X149337185Y-68226405D01*
X149389989Y-68180650D01*
X149394047Y-68178883D01*
X149603697Y-68092043D01*
X149830803Y-67960924D01*
X149894154Y-67912313D01*
X152932500Y-67912313D01*
X152932500Y-68231687D01*
X152938687Y-68294500D01*
X152963803Y-68549522D01*
X153026109Y-68862754D01*
X153118820Y-69168382D01*
X153241040Y-69463446D01*
X153241042Y-69463451D01*
X153391584Y-69745094D01*
X153391601Y-69745122D01*
X153569012Y-70010638D01*
X153569029Y-70010661D01*
X153771638Y-70257540D01*
X153997459Y-70483361D01*
X153997464Y-70483365D01*
X153997465Y-70483366D01*
X154244344Y-70685975D01*
X154244351Y-70685980D01*
X154244361Y-70685987D01*
X154509877Y-70863398D01*
X154509882Y-70863401D01*
X154509894Y-70863409D01*
X154509903Y-70863413D01*
X154509905Y-70863415D01*
X154791548Y-71013957D01*
X154791550Y-71013957D01*
X154791556Y-71013961D01*
X155086619Y-71136180D01*
X155392240Y-71228889D01*
X155705477Y-71291196D01*
X156023313Y-71322500D01*
X156023316Y-71322500D01*
X156342684Y-71322500D01*
X156342687Y-71322500D01*
X156660523Y-71291196D01*
X156973760Y-71228889D01*
X157279381Y-71136180D01*
X157574444Y-71013961D01*
X157856106Y-70863409D01*
X158121656Y-70685975D01*
X158368535Y-70483366D01*
X158594366Y-70257535D01*
X158796975Y-70010656D01*
X158974409Y-69745106D01*
X159124961Y-69463444D01*
X159247180Y-69168381D01*
X159339889Y-68862760D01*
X159402196Y-68549523D01*
X159433500Y-68231687D01*
X159433500Y-67912313D01*
X159402196Y-67594477D01*
X159339889Y-67281240D01*
X159247180Y-66975619D01*
X159124961Y-66680556D01*
X159107320Y-66647553D01*
X158974415Y-66398905D01*
X158974413Y-66398903D01*
X158974409Y-66398894D01*
X158956969Y-66372793D01*
X158796987Y-66133361D01*
X158796980Y-66133351D01*
X158796975Y-66133344D01*
X158594366Y-65886465D01*
X158594365Y-65886464D01*
X158594361Y-65886459D01*
X158368540Y-65660638D01*
X158121661Y-65458029D01*
X158121638Y-65458012D01*
X157856122Y-65280601D01*
X157856094Y-65280584D01*
X157574451Y-65130042D01*
X157574446Y-65130040D01*
X157279382Y-65007820D01*
X156973754Y-64915109D01*
X156660521Y-64852803D01*
X156660522Y-64852803D01*
X156421141Y-64829227D01*
X156342687Y-64821500D01*
X156023313Y-64821500D01*
X155950822Y-64828639D01*
X155705477Y-64852803D01*
X155392245Y-64915109D01*
X155086617Y-65007820D01*
X154791553Y-65130040D01*
X154791548Y-65130042D01*
X154509905Y-65280584D01*
X154509877Y-65280601D01*
X154244361Y-65458012D01*
X154244338Y-65458029D01*
X153997459Y-65660638D01*
X153771638Y-65886459D01*
X153569029Y-66133338D01*
X153569012Y-66133361D01*
X153391601Y-66398877D01*
X153391584Y-66398905D01*
X153241042Y-66680548D01*
X153241040Y-66680553D01*
X153118820Y-66975617D01*
X153026109Y-67281245D01*
X152963803Y-67594477D01*
X152942489Y-67810893D01*
X152932500Y-67912313D01*
X149894154Y-67912313D01*
X150038851Y-67801282D01*
X150038854Y-67801279D01*
X150038860Y-67801274D01*
X150224274Y-67615860D01*
X150224277Y-67615855D01*
X150224282Y-67615851D01*
X150383924Y-67407803D01*
X150515043Y-67180697D01*
X150615398Y-66938419D01*
X150683270Y-66685116D01*
X150717500Y-66425120D01*
X150717500Y-66162880D01*
X150683270Y-65902884D01*
X150615398Y-65649581D01*
X150588668Y-65585049D01*
X150515046Y-65407309D01*
X150515041Y-65407299D01*
X150383924Y-65180196D01*
X150261424Y-65020554D01*
X150224282Y-64972149D01*
X150224281Y-64972148D01*
X150224274Y-64972140D01*
X150038860Y-64786726D01*
X150038851Y-64786718D01*
X149830803Y-64627075D01*
X149603700Y-64495958D01*
X149603690Y-64495953D01*
X149361428Y-64395605D01*
X149361421Y-64395603D01*
X149361422Y-64395603D01*
X149361419Y-64395602D01*
X149270625Y-64371274D01*
X149210967Y-64334910D01*
X149180438Y-64272063D01*
X149188733Y-64202687D01*
X149233218Y-64148809D01*
X149299770Y-64127535D01*
X149302721Y-64127500D01*
X156144108Y-64127500D01*
X156207128Y-64127500D01*
X156212855Y-64127632D01*
X156568236Y-64144062D01*
X156579626Y-64145118D01*
X156929132Y-64193872D01*
X156940376Y-64195974D01*
X157283893Y-64276768D01*
X157294883Y-64279895D01*
X157629500Y-64392047D01*
X157640154Y-64396175D01*
X157962980Y-64538716D01*
X157973206Y-64543808D01*
X158210178Y-64675801D01*
X158281499Y-64715527D01*
X158291237Y-64721556D01*
X158386362Y-64786718D01*
X158573790Y-64915109D01*
X158582367Y-64920984D01*
X158591504Y-64927885D01*
X158834951Y-65130040D01*
X158862981Y-65153316D01*
X158871445Y-65161032D01*
X159120967Y-65410554D01*
X159128683Y-65419018D01*
X159354112Y-65690492D01*
X159361015Y-65699632D01*
X159560443Y-65990762D01*
X159566472Y-66000500D01*
X159640476Y-66133361D01*
X159729952Y-66294001D01*
X159738184Y-66308779D01*
X159743289Y-66319032D01*
X159885819Y-66641832D01*
X159889956Y-66652510D01*
X159900884Y-66685114D01*
X160002100Y-66987103D01*
X160005234Y-66998119D01*
X160086023Y-67341615D01*
X160088128Y-67352874D01*
X160136880Y-67702366D01*
X160137937Y-67713770D01*
X160154368Y-68069144D01*
X160154500Y-68074871D01*
X160154500Y-97914128D01*
X160154368Y-97919855D01*
X160137937Y-98275229D01*
X160136880Y-98286633D01*
X160088128Y-98636125D01*
X160086023Y-98647384D01*
X160005234Y-98990880D01*
X160002100Y-99001896D01*
X159889957Y-99336487D01*
X159885819Y-99347167D01*
X159743289Y-99669967D01*
X159738184Y-99680220D01*
X159566472Y-99988499D01*
X159560443Y-99998237D01*
X159361015Y-100289367D01*
X159354112Y-100298507D01*
X159128683Y-100569981D01*
X159120967Y-100578445D01*
X158871445Y-100827967D01*
X158862981Y-100835683D01*
X158591507Y-101061112D01*
X158582367Y-101068015D01*
X158291237Y-101267443D01*
X158281499Y-101273472D01*
X157973220Y-101445184D01*
X157962967Y-101450289D01*
X157640167Y-101592819D01*
X157629487Y-101596957D01*
X157294896Y-101709100D01*
X157283880Y-101712234D01*
X156940384Y-101793023D01*
X156929125Y-101795128D01*
X156579633Y-101843880D01*
X156568229Y-101844937D01*
X156212855Y-101861368D01*
X156207128Y-101861500D01*
X121287872Y-101861500D01*
X121282145Y-101861368D01*
X120926770Y-101844937D01*
X120915366Y-101843880D01*
X120565874Y-101795128D01*
X120554615Y-101793023D01*
X120211119Y-101712234D01*
X120200103Y-101709100D01*
X119865512Y-101596957D01*
X119854832Y-101592819D01*
X119532028Y-101450287D01*
X119521784Y-101445186D01*
X119419703Y-101388327D01*
X119213500Y-101273472D01*
X119203762Y-101267443D01*
X118912632Y-101068015D01*
X118903492Y-101061112D01*
X118632018Y-100835683D01*
X118623554Y-100827967D01*
X118374032Y-100578445D01*
X118366316Y-100569981D01*
X118140885Y-100298504D01*
X118133984Y-100289367D01*
X117934556Y-99998237D01*
X117928527Y-99988499D01*
X117888801Y-99917178D01*
X117756808Y-99680206D01*
X117751716Y-99669980D01*
X117609175Y-99347154D01*
X117605047Y-99336500D01*
X117492895Y-99001883D01*
X117489768Y-98990893D01*
X117408974Y-98647376D01*
X117406871Y-98636125D01*
X117358119Y-98286633D01*
X117357062Y-98275229D01*
X117340632Y-97919855D01*
X117340500Y-97914128D01*
X117340500Y-97630316D01*
X118034500Y-97630316D01*
X118034500Y-97949683D01*
X118065803Y-98267522D01*
X118128109Y-98580754D01*
X118220820Y-98886382D01*
X118343040Y-99181446D01*
X118343042Y-99181451D01*
X118493584Y-99463094D01*
X118493601Y-99463122D01*
X118671012Y-99728638D01*
X118671029Y-99728661D01*
X118873638Y-99975540D01*
X119099459Y-100201361D01*
X119099464Y-100201365D01*
X119099465Y-100201366D01*
X119346344Y-100403975D01*
X119346351Y-100403980D01*
X119346361Y-100403987D01*
X119611877Y-100581398D01*
X119611882Y-100581401D01*
X119611894Y-100581409D01*
X119611903Y-100581413D01*
X119611905Y-100581415D01*
X119893548Y-100731957D01*
X119893550Y-100731957D01*
X119893556Y-100731961D01*
X120188619Y-100854180D01*
X120494240Y-100946889D01*
X120807477Y-101009196D01*
X121125313Y-101040500D01*
X121125316Y-101040500D01*
X121444684Y-101040500D01*
X121444687Y-101040500D01*
X121762523Y-101009196D01*
X122075760Y-100946889D01*
X122381381Y-100854180D01*
X122676444Y-100731961D01*
X122958106Y-100581409D01*
X123223656Y-100403975D01*
X123470535Y-100201366D01*
X123696366Y-99975535D01*
X123898975Y-99728656D01*
X124076409Y-99463106D01*
X124226961Y-99181444D01*
X124349180Y-98886381D01*
X124441889Y-98580760D01*
X124504196Y-98267523D01*
X124535500Y-97949687D01*
X124535500Y-97630316D01*
X152932500Y-97630316D01*
X152932500Y-97949683D01*
X152963803Y-98267522D01*
X153026109Y-98580754D01*
X153118820Y-98886382D01*
X153241040Y-99181446D01*
X153241042Y-99181451D01*
X153391584Y-99463094D01*
X153391601Y-99463122D01*
X153569012Y-99728638D01*
X153569029Y-99728661D01*
X153771638Y-99975540D01*
X153997459Y-100201361D01*
X153997464Y-100201365D01*
X153997465Y-100201366D01*
X154244344Y-100403975D01*
X154244351Y-100403980D01*
X154244361Y-100403987D01*
X154509877Y-100581398D01*
X154509882Y-100581401D01*
X154509894Y-100581409D01*
X154509903Y-100581413D01*
X154509905Y-100581415D01*
X154791548Y-100731957D01*
X154791550Y-100731957D01*
X154791556Y-100731961D01*
X155086619Y-100854180D01*
X155392240Y-100946889D01*
X155705477Y-101009196D01*
X156023313Y-101040500D01*
X156023316Y-101040500D01*
X156342684Y-101040500D01*
X156342687Y-101040500D01*
X156660523Y-101009196D01*
X156973760Y-100946889D01*
X157279381Y-100854180D01*
X157574444Y-100731961D01*
X157856106Y-100581409D01*
X158121656Y-100403975D01*
X158368535Y-100201366D01*
X158594366Y-99975535D01*
X158796975Y-99728656D01*
X158974409Y-99463106D01*
X159124961Y-99181444D01*
X159247180Y-98886381D01*
X159339889Y-98580760D01*
X159402196Y-98267523D01*
X159433500Y-97949687D01*
X159433500Y-97630313D01*
X159402196Y-97312477D01*
X159339889Y-96999240D01*
X159247180Y-96693619D01*
X159124961Y-96398556D01*
X158974409Y-96116894D01*
X158974398Y-96116877D01*
X158796987Y-95851361D01*
X158796980Y-95851351D01*
X158796975Y-95851344D01*
X158594366Y-95604465D01*
X158594365Y-95604464D01*
X158594361Y-95604459D01*
X158368540Y-95378638D01*
X158121661Y-95176029D01*
X158121638Y-95176012D01*
X157856122Y-94998601D01*
X157856094Y-94998584D01*
X157574451Y-94848042D01*
X157574446Y-94848040D01*
X157279382Y-94725820D01*
X156973754Y-94633109D01*
X156660521Y-94570803D01*
X156660522Y-94570803D01*
X156421141Y-94547227D01*
X156342687Y-94539500D01*
X156023313Y-94539500D01*
X155950822Y-94546639D01*
X155705477Y-94570803D01*
X155392245Y-94633109D01*
X155086617Y-94725820D01*
X154791553Y-94848040D01*
X154791548Y-94848042D01*
X154509905Y-94998584D01*
X154509877Y-94998601D01*
X154244361Y-95176012D01*
X154244338Y-95176029D01*
X153997459Y-95378638D01*
X153771638Y-95604459D01*
X153569029Y-95851338D01*
X153569012Y-95851361D01*
X153391601Y-96116877D01*
X153391584Y-96116905D01*
X153241042Y-96398548D01*
X153241040Y-96398553D01*
X153118820Y-96693617D01*
X153026109Y-96999245D01*
X152963803Y-97312477D01*
X152932500Y-97630316D01*
X124535500Y-97630316D01*
X124535500Y-97630313D01*
X124504196Y-97312477D01*
X124441889Y-96999240D01*
X124349180Y-96693619D01*
X124226961Y-96398556D01*
X124076409Y-96116894D01*
X124076398Y-96116877D01*
X123898987Y-95851361D01*
X123898980Y-95851351D01*
X123898975Y-95851344D01*
X123696366Y-95604465D01*
X123696365Y-95604464D01*
X123696361Y-95604459D01*
X123470540Y-95378638D01*
X123223661Y-95176029D01*
X123223638Y-95176012D01*
X122958122Y-94998601D01*
X122958094Y-94998584D01*
X122676451Y-94848042D01*
X122676446Y-94848040D01*
X122381382Y-94725820D01*
X122075754Y-94633109D01*
X121762521Y-94570803D01*
X121762522Y-94570803D01*
X121523141Y-94547227D01*
X121444687Y-94539500D01*
X121125313Y-94539500D01*
X121052822Y-94546639D01*
X120807477Y-94570803D01*
X120494245Y-94633109D01*
X120188617Y-94725820D01*
X119893553Y-94848040D01*
X119893548Y-94848042D01*
X119611905Y-94998584D01*
X119611877Y-94998601D01*
X119346361Y-95176012D01*
X119346338Y-95176029D01*
X119099459Y-95378638D01*
X118873638Y-95604459D01*
X118671029Y-95851338D01*
X118671012Y-95851361D01*
X118493601Y-96116877D01*
X118493584Y-96116905D01*
X118343042Y-96398548D01*
X118343040Y-96398553D01*
X118220820Y-96693617D01*
X118128109Y-96999245D01*
X118065803Y-97312477D01*
X118034500Y-97630316D01*
X117340500Y-97630316D01*
X117340500Y-90869831D01*
X121923500Y-90869831D01*
X121923500Y-91121168D01*
X121962815Y-91369395D01*
X122040481Y-91608424D01*
X122091909Y-91709355D01*
X122154580Y-91832353D01*
X122302306Y-92035680D01*
X122480020Y-92213394D01*
X122683347Y-92361120D01*
X122733156Y-92386499D01*
X122907275Y-92475218D01*
X122907277Y-92475218D01*
X122907280Y-92475220D01*
X123034444Y-92516538D01*
X123146304Y-92552884D01*
X123394532Y-92592200D01*
X123394537Y-92592200D01*
X123645868Y-92592200D01*
X123894095Y-92552884D01*
X124133120Y-92475220D01*
X124357053Y-92361120D01*
X124560380Y-92213394D01*
X124738094Y-92035680D01*
X124885820Y-91832353D01*
X124999920Y-91608420D01*
X125077584Y-91369395D01*
X125116900Y-91121168D01*
X125116900Y-90869831D01*
X125077584Y-90621604D01*
X124999918Y-90382575D01*
X124885819Y-90158646D01*
X124885317Y-90157955D01*
X124738094Y-89955320D01*
X124560380Y-89777606D01*
X124357053Y-89629880D01*
X124133124Y-89515781D01*
X123894095Y-89438115D01*
X123645868Y-89398800D01*
X123645863Y-89398800D01*
X123394537Y-89398800D01*
X123394532Y-89398800D01*
X123146304Y-89438115D01*
X122907275Y-89515781D01*
X122683346Y-89629880D01*
X122567341Y-89714163D01*
X122480020Y-89777606D01*
X122480018Y-89777608D01*
X122480017Y-89777608D01*
X122302308Y-89955317D01*
X122302308Y-89955318D01*
X122302306Y-89955320D01*
X122294156Y-89966538D01*
X122154580Y-90158646D01*
X122040481Y-90382575D01*
X121962815Y-90621604D01*
X121923500Y-90869831D01*
X117340500Y-90869831D01*
X117340500Y-81829632D01*
X123705500Y-81829632D01*
X123705500Y-82000368D01*
X123710822Y-82033967D01*
X123732209Y-82169002D01*
X123732209Y-82169005D01*
X123784967Y-82331377D01*
X123784969Y-82331380D01*
X123862480Y-82483506D01*
X123863526Y-82485212D01*
X123863725Y-82485948D01*
X123864693Y-82487848D01*
X123864293Y-82488051D01*
X123881768Y-82552659D01*
X123864351Y-82611977D01*
X123864693Y-82612152D01*
X123863765Y-82613972D01*
X123863526Y-82614788D01*
X123862480Y-82616493D01*
X123784969Y-82768619D01*
X123784967Y-82768622D01*
X123732209Y-82930994D01*
X123732209Y-82930997D01*
X123705500Y-83099632D01*
X123705500Y-83270367D01*
X123732209Y-83439002D01*
X123732209Y-83439005D01*
X123784967Y-83601377D01*
X123784969Y-83601380D01*
X123862480Y-83753506D01*
X123863526Y-83755212D01*
X123863725Y-83755948D01*
X123864693Y-83757848D01*
X123864293Y-83758051D01*
X123881768Y-83822659D01*
X123864351Y-83881977D01*
X123864693Y-83882152D01*
X123863765Y-83883972D01*
X123863526Y-83884788D01*
X123862480Y-83886493D01*
X123784969Y-84038619D01*
X123784967Y-84038622D01*
X123732209Y-84200994D01*
X123732209Y-84200997D01*
X123726605Y-84236380D01*
X123705500Y-84369632D01*
X123705500Y-84540368D01*
X123712406Y-84583968D01*
X123732209Y-84709002D01*
X123732209Y-84709005D01*
X123784967Y-84871377D01*
X123784969Y-84871380D01*
X123862482Y-85023509D01*
X123863821Y-85025694D01*
X123864076Y-85026637D01*
X123864693Y-85027848D01*
X123864438Y-85027977D01*
X123882062Y-85093140D01*
X123864719Y-85152209D01*
X123865121Y-85152414D01*
X123864031Y-85154552D01*
X123863823Y-85155262D01*
X123862913Y-85156746D01*
X123785433Y-85308808D01*
X123732696Y-85471115D01*
X123706000Y-85639666D01*
X123706000Y-85810333D01*
X123732696Y-85978884D01*
X123785433Y-86141193D01*
X123862911Y-86293249D01*
X123865219Y-86296425D01*
X123865220Y-86296425D01*
X124434600Y-85727045D01*
X124434600Y-85771816D01*
X124458834Y-85862256D01*
X124505650Y-85943343D01*
X124571857Y-86009550D01*
X124652944Y-86056366D01*
X124743384Y-86080600D01*
X124788154Y-86080600D01*
X124218774Y-86649978D01*
X124218774Y-86649980D01*
X124221950Y-86652288D01*
X124374006Y-86729766D01*
X124536315Y-86782503D01*
X124704867Y-86809200D01*
X124875533Y-86809200D01*
X125044084Y-86782503D01*
X125206393Y-86729766D01*
X125358443Y-86652291D01*
X125361624Y-86649978D01*
X124792247Y-86080600D01*
X124837016Y-86080600D01*
X124927456Y-86056366D01*
X125008543Y-86009550D01*
X125074750Y-85943343D01*
X125121566Y-85862256D01*
X125145800Y-85771816D01*
X125145800Y-85727046D01*
X125715178Y-86296424D01*
X125717491Y-86293243D01*
X125794966Y-86141193D01*
X125847703Y-85978884D01*
X125874400Y-85810333D01*
X125874400Y-85639666D01*
X125847703Y-85471115D01*
X125794966Y-85308808D01*
X125717488Y-85156749D01*
X125716579Y-85155266D01*
X125716405Y-85154625D01*
X125715279Y-85152414D01*
X125715743Y-85152177D01*
X125698337Y-85087820D01*
X125715919Y-85027956D01*
X125715707Y-85027848D01*
X125716283Y-85026716D01*
X125716590Y-85025673D01*
X125717907Y-85023522D01*
X125717919Y-85023507D01*
X125795431Y-84871380D01*
X125802704Y-84848997D01*
X125848190Y-84709005D01*
X125848190Y-84709004D01*
X125848191Y-84709001D01*
X125874900Y-84540368D01*
X125874900Y-84369632D01*
X125848191Y-84200999D01*
X125848190Y-84200995D01*
X125848190Y-84200994D01*
X125795432Y-84038622D01*
X125795430Y-84038619D01*
X125727536Y-83905368D01*
X125717919Y-83886493D01*
X125717910Y-83886481D01*
X125716881Y-83884801D01*
X125716681Y-83884065D01*
X125715707Y-83882152D01*
X125716108Y-83881947D01*
X125698630Y-83817357D01*
X125716051Y-83758023D01*
X125715707Y-83757848D01*
X125716642Y-83756012D01*
X125716881Y-83755199D01*
X125717906Y-83753523D01*
X125717919Y-83753507D01*
X125795431Y-83601380D01*
X125827369Y-83503085D01*
X125848190Y-83439005D01*
X125848190Y-83439004D01*
X125848191Y-83439001D01*
X125874900Y-83270368D01*
X125874900Y-83099632D01*
X125848191Y-82930999D01*
X125848190Y-82930995D01*
X125848190Y-82930994D01*
X125795432Y-82768622D01*
X125795430Y-82768619D01*
X125717919Y-82616493D01*
X125717910Y-82616481D01*
X125716881Y-82614801D01*
X125716681Y-82614065D01*
X125715707Y-82612152D01*
X125716108Y-82611947D01*
X125698630Y-82547357D01*
X125716051Y-82488023D01*
X125715707Y-82487848D01*
X125716642Y-82486012D01*
X125716881Y-82485199D01*
X125717906Y-82483523D01*
X125717919Y-82483507D01*
X125795431Y-82331380D01*
X125829550Y-82226372D01*
X125848190Y-82169005D01*
X125848190Y-82169004D01*
X125848191Y-82169001D01*
X125874900Y-82000368D01*
X125874900Y-81829632D01*
X125848191Y-81660999D01*
X125848190Y-81660995D01*
X125848190Y-81660994D01*
X125795432Y-81498622D01*
X125795430Y-81498619D01*
X125727536Y-81365367D01*
X125717919Y-81346493D01*
X125617563Y-81208365D01*
X125496835Y-81087637D01*
X125358707Y-80987281D01*
X125206580Y-80909769D01*
X125206577Y-80909767D01*
X125044204Y-80857009D01*
X124917257Y-80836903D01*
X124875568Y-80830300D01*
X124704832Y-80830300D01*
X124663143Y-80836903D01*
X124536197Y-80857009D01*
X124536194Y-80857009D01*
X124373822Y-80909767D01*
X124373819Y-80909769D01*
X124221692Y-80987281D01*
X124168409Y-81025994D01*
X124083565Y-81087637D01*
X124083563Y-81087639D01*
X124083562Y-81087639D01*
X123962839Y-81208362D01*
X123962839Y-81208363D01*
X123962837Y-81208365D01*
X123919738Y-81267685D01*
X123862481Y-81346492D01*
X123784969Y-81498619D01*
X123784967Y-81498622D01*
X123732209Y-81660994D01*
X123732209Y-81660997D01*
X123705500Y-81829632D01*
X117340500Y-81829632D01*
X117340500Y-76518831D01*
X121923500Y-76518831D01*
X121923500Y-76770168D01*
X121962815Y-77018395D01*
X122040481Y-77257424D01*
X122154580Y-77481353D01*
X122302306Y-77684680D01*
X122480020Y-77862394D01*
X122683347Y-78010120D01*
X122789145Y-78064027D01*
X122907275Y-78124218D01*
X122907277Y-78124218D01*
X122907280Y-78124220D01*
X123035404Y-78165850D01*
X123146304Y-78201884D01*
X123394532Y-78241200D01*
X123394537Y-78241200D01*
X123645868Y-78241200D01*
X123894095Y-78201884D01*
X124133120Y-78124220D01*
X124357053Y-78010120D01*
X124560380Y-77862394D01*
X124610097Y-77812677D01*
X132075600Y-77812677D01*
X132075600Y-78136000D01*
X133325600Y-78136000D01*
X133825600Y-78136000D01*
X135075599Y-78136000D01*
X135075599Y-77812692D01*
X135075598Y-77812677D01*
X135065455Y-77713392D01*
X135012147Y-77552518D01*
X135012142Y-77552507D01*
X134923175Y-77408271D01*
X134923172Y-77408267D01*
X134803332Y-77288427D01*
X134803328Y-77288424D01*
X134686783Y-77216538D01*
X134640058Y-77164590D01*
X134628837Y-77095628D01*
X134656680Y-77031546D01*
X134686783Y-77005462D01*
X134803328Y-76933575D01*
X134803332Y-76933572D01*
X134923172Y-76813732D01*
X134923175Y-76813728D01*
X135012142Y-76669492D01*
X135012147Y-76669481D01*
X135065455Y-76508606D01*
X135075599Y-76409322D01*
X135075600Y-76409309D01*
X135075600Y-76086000D01*
X133825600Y-76086000D01*
X133825600Y-78136000D01*
X133325600Y-78136000D01*
X133325600Y-76086000D01*
X132075601Y-76086000D01*
X132075601Y-76409322D01*
X132085744Y-76508607D01*
X132139052Y-76669481D01*
X132139057Y-76669492D01*
X132228024Y-76813728D01*
X132228027Y-76813732D01*
X132347867Y-76933572D01*
X132347871Y-76933575D01*
X132464416Y-77005462D01*
X132511141Y-77057410D01*
X132522362Y-77126373D01*
X132494519Y-77190455D01*
X132464416Y-77216538D01*
X132347871Y-77288424D01*
X132347867Y-77288427D01*
X132228027Y-77408267D01*
X132228024Y-77408271D01*
X132139057Y-77552507D01*
X132139052Y-77552518D01*
X132085744Y-77713393D01*
X132075600Y-77812677D01*
X124610097Y-77812677D01*
X124738094Y-77684680D01*
X124885820Y-77481353D01*
X124999920Y-77257420D01*
X125077584Y-77018395D01*
X125091019Y-76933572D01*
X125116900Y-76770168D01*
X125116900Y-76518831D01*
X125077584Y-76270604D01*
X125020916Y-76096199D01*
X124999920Y-76031580D01*
X124999918Y-76031577D01*
X124999918Y-76031575D01*
X124939727Y-75913445D01*
X124885820Y-75807647D01*
X124738094Y-75604320D01*
X124560380Y-75426606D01*
X124550630Y-75419522D01*
X128361801Y-75419522D01*
X128371944Y-75518807D01*
X128425252Y-75679681D01*
X128425257Y-75679692D01*
X128514224Y-75823928D01*
X128514227Y-75823932D01*
X128634067Y-75943772D01*
X128634071Y-75943775D01*
X128778307Y-76032742D01*
X128778318Y-76032747D01*
X128939193Y-76086055D01*
X129038483Y-76096199D01*
X129586800Y-76096199D01*
X129635108Y-76096199D01*
X129635122Y-76096198D01*
X129734407Y-76086055D01*
X129895281Y-76032747D01*
X129895292Y-76032742D01*
X130039528Y-75943775D01*
X130039532Y-75943772D01*
X130159372Y-75823932D01*
X130159375Y-75823928D01*
X130248342Y-75679692D01*
X130248347Y-75679681D01*
X130301655Y-75518806D01*
X130311799Y-75419522D01*
X130311800Y-75419509D01*
X130311800Y-75396200D01*
X129586800Y-75396200D01*
X129586800Y-76096199D01*
X129038483Y-76096199D01*
X129086799Y-76096198D01*
X129086800Y-76096198D01*
X129086800Y-75396200D01*
X128361801Y-75396200D01*
X128361801Y-75419522D01*
X124550630Y-75419522D01*
X124357053Y-75278880D01*
X124342873Y-75271655D01*
X124133124Y-75164781D01*
X123894095Y-75087115D01*
X123645868Y-75047800D01*
X123645863Y-75047800D01*
X123394537Y-75047800D01*
X123394532Y-75047800D01*
X123146304Y-75087115D01*
X122907275Y-75164781D01*
X122683346Y-75278880D01*
X122567341Y-75363163D01*
X122480020Y-75426606D01*
X122480018Y-75426608D01*
X122480017Y-75426608D01*
X122302308Y-75604317D01*
X122302308Y-75604318D01*
X122302306Y-75604320D01*
X122252320Y-75673120D01*
X122154580Y-75807646D01*
X122040481Y-76031575D01*
X121962815Y-76270604D01*
X121923500Y-76518831D01*
X117340500Y-76518831D01*
X117340500Y-73322847D01*
X128361300Y-73322847D01*
X128361300Y-73869537D01*
X128361301Y-73869555D01*
X128371450Y-73968907D01*
X128371451Y-73968910D01*
X128424796Y-74129894D01*
X128424801Y-74129905D01*
X128513829Y-74274240D01*
X128513832Y-74274244D01*
X128523460Y-74283872D01*
X128556945Y-74345195D01*
X128551961Y-74414887D01*
X128523463Y-74459231D01*
X128514228Y-74468465D01*
X128514224Y-74468471D01*
X128425257Y-74612707D01*
X128425252Y-74612718D01*
X128371944Y-74773593D01*
X128361800Y-74872877D01*
X128361800Y-74896200D01*
X130311799Y-74896200D01*
X130311799Y-74872892D01*
X130311798Y-74872877D01*
X130301655Y-74773592D01*
X130248347Y-74612718D01*
X130248342Y-74612707D01*
X130159375Y-74468471D01*
X130159372Y-74468467D01*
X130150139Y-74459234D01*
X130149785Y-74458586D01*
X130149141Y-74458225D01*
X130133053Y-74427945D01*
X130116654Y-74397911D01*
X130116706Y-74397175D01*
X130116360Y-74396523D01*
X130119193Y-74362398D01*
X130121638Y-74328219D01*
X130122101Y-74327381D01*
X130122142Y-74326893D01*
X130123680Y-74324529D01*
X130139410Y-74296112D01*
X130144369Y-74289642D01*
X130159768Y-74274244D01*
X130174567Y-74250250D01*
X130178394Y-74245259D01*
X130201722Y-74228208D01*
X130223212Y-74208879D01*
X130230405Y-74207244D01*
X130234803Y-74204030D01*
X130248048Y-74203234D01*
X130276804Y-74196700D01*
X132116887Y-74196700D01*
X132183926Y-74216385D01*
X132222424Y-74255601D01*
X132227632Y-74264044D01*
X132347556Y-74383968D01*
X132463942Y-74455756D01*
X132510664Y-74507702D01*
X132521887Y-74576665D01*
X132494043Y-74640747D01*
X132463941Y-74666831D01*
X132347868Y-74738426D01*
X132228027Y-74858267D01*
X132228024Y-74858271D01*
X132139057Y-75002507D01*
X132139052Y-75002518D01*
X132085744Y-75163393D01*
X132075600Y-75262677D01*
X132075600Y-75586000D01*
X135075599Y-75586000D01*
X135075599Y-75262692D01*
X135075598Y-75262677D01*
X135065455Y-75163392D01*
X135012147Y-75002518D01*
X135012142Y-75002507D01*
X134923175Y-74858271D01*
X134923172Y-74858267D01*
X134803332Y-74738427D01*
X134803328Y-74738424D01*
X134687259Y-74666831D01*
X134640534Y-74614883D01*
X134629313Y-74545920D01*
X134657156Y-74481838D01*
X134687252Y-74455759D01*
X134803644Y-74383968D01*
X134923568Y-74264044D01*
X135012603Y-74119697D01*
X135065949Y-73958708D01*
X135076100Y-73859345D01*
X135076099Y-72712656D01*
X135065949Y-72613292D01*
X135012603Y-72452303D01*
X135012599Y-72452297D01*
X135012598Y-72452294D01*
X134923570Y-72307959D01*
X134923567Y-72307955D01*
X134803644Y-72188032D01*
X134803640Y-72188029D01*
X134659305Y-72099001D01*
X134659299Y-72098998D01*
X134659297Y-72098997D01*
X134659294Y-72098996D01*
X134498309Y-72045651D01*
X134462368Y-72041979D01*
X134397677Y-72015582D01*
X134357526Y-71958401D01*
X134353356Y-71942822D01*
X134345337Y-71902503D01*
X134306028Y-71807602D01*
X134284997Y-71756827D01*
X134284990Y-71756814D01*
X134197389Y-71625711D01*
X134197386Y-71625707D01*
X134085892Y-71514213D01*
X134085888Y-71514210D01*
X133954785Y-71426609D01*
X133954772Y-71426602D01*
X133809101Y-71366264D01*
X133809089Y-71366261D01*
X133654445Y-71335500D01*
X133654442Y-71335500D01*
X133496758Y-71335500D01*
X133496755Y-71335500D01*
X133342110Y-71366261D01*
X133342098Y-71366264D01*
X133196427Y-71426602D01*
X133196414Y-71426609D01*
X133065311Y-71514210D01*
X133065307Y-71514213D01*
X132953813Y-71625707D01*
X132953810Y-71625711D01*
X132866209Y-71756814D01*
X132866202Y-71756827D01*
X132805863Y-71902500D01*
X132805862Y-71902505D01*
X132797843Y-71942816D01*
X132765456Y-72004726D01*
X132704740Y-72039299D01*
X132688828Y-72041980D01*
X132652891Y-72045651D01*
X132652889Y-72045651D01*
X132491905Y-72098996D01*
X132491894Y-72099001D01*
X132347559Y-72188029D01*
X132347555Y-72188032D01*
X132227632Y-72307955D01*
X132227629Y-72307959D01*
X132138601Y-72452294D01*
X132138596Y-72452305D01*
X132085251Y-72613290D01*
X132075100Y-72712647D01*
X132075100Y-72871700D01*
X132055415Y-72938739D01*
X132002611Y-72984494D01*
X131951100Y-72995700D01*
X130276804Y-72995700D01*
X130209765Y-72976015D01*
X130184224Y-72954192D01*
X130176982Y-72946065D01*
X130159768Y-72918156D01*
X130089527Y-72847915D01*
X130087148Y-72845245D01*
X130073661Y-72816764D01*
X130058562Y-72789110D01*
X130058523Y-72784794D01*
X130057246Y-72782097D01*
X130058418Y-72773053D01*
X130058111Y-72738561D01*
X130086500Y-72595844D01*
X130086500Y-72438155D01*
X130086499Y-72438153D01*
X130055737Y-72283503D01*
X130016191Y-72188029D01*
X129995397Y-72137827D01*
X129995390Y-72137814D01*
X129907789Y-72006711D01*
X129907786Y-72006707D01*
X129796292Y-71895213D01*
X129796288Y-71895210D01*
X129665185Y-71807609D01*
X129665172Y-71807602D01*
X129519501Y-71747264D01*
X129519489Y-71747261D01*
X129364845Y-71716500D01*
X129364842Y-71716500D01*
X129207158Y-71716500D01*
X129207155Y-71716500D01*
X129052510Y-71747261D01*
X129052498Y-71747264D01*
X128906827Y-71807602D01*
X128906814Y-71807609D01*
X128775711Y-71895210D01*
X128775707Y-71895213D01*
X128664213Y-72006707D01*
X128664210Y-72006711D01*
X128576609Y-72137814D01*
X128576602Y-72137827D01*
X128516264Y-72283498D01*
X128516261Y-72283510D01*
X128485500Y-72438153D01*
X128485500Y-72595846D01*
X128516261Y-72750494D01*
X128533141Y-72791245D01*
X128540609Y-72860715D01*
X128517505Y-72911936D01*
X128517623Y-72912009D01*
X128517066Y-72912911D01*
X128515856Y-72915595D01*
X128513831Y-72918156D01*
X128424801Y-73062494D01*
X128424796Y-73062505D01*
X128371451Y-73223490D01*
X128361300Y-73322847D01*
X117340500Y-73322847D01*
X117340500Y-68074871D01*
X117340632Y-68069144D01*
X117345635Y-67960924D01*
X117347882Y-67912313D01*
X118034500Y-67912313D01*
X118034500Y-68231687D01*
X118040687Y-68294500D01*
X118065803Y-68549522D01*
X118128109Y-68862754D01*
X118220820Y-69168382D01*
X118343040Y-69463446D01*
X118343042Y-69463451D01*
X118493584Y-69745094D01*
X118493601Y-69745122D01*
X118671012Y-70010638D01*
X118671029Y-70010661D01*
X118873638Y-70257540D01*
X119099459Y-70483361D01*
X119099464Y-70483365D01*
X119099465Y-70483366D01*
X119346344Y-70685975D01*
X119346351Y-70685980D01*
X119346361Y-70685987D01*
X119611877Y-70863398D01*
X119611882Y-70863401D01*
X119611894Y-70863409D01*
X119611903Y-70863413D01*
X119611905Y-70863415D01*
X119893548Y-71013957D01*
X119893550Y-71013957D01*
X119893556Y-71013961D01*
X120188619Y-71136180D01*
X120494240Y-71228889D01*
X120807477Y-71291196D01*
X121125313Y-71322500D01*
X121125316Y-71322500D01*
X121444684Y-71322500D01*
X121444687Y-71322500D01*
X121762523Y-71291196D01*
X122075760Y-71228889D01*
X122381381Y-71136180D01*
X122676444Y-71013961D01*
X122958106Y-70863409D01*
X123223656Y-70685975D01*
X123470535Y-70483366D01*
X123696366Y-70257535D01*
X123898975Y-70010656D01*
X124076409Y-69745106D01*
X124226961Y-69463444D01*
X124349180Y-69168381D01*
X124441889Y-68862760D01*
X124504196Y-68549523D01*
X124535500Y-68231687D01*
X124535500Y-67912313D01*
X124504196Y-67594477D01*
X124441889Y-67281240D01*
X124349180Y-66975619D01*
X124226961Y-66680556D01*
X124209320Y-66647553D01*
X124076415Y-66398905D01*
X124076413Y-66398903D01*
X124076409Y-66398894D01*
X124058969Y-66372793D01*
X123898987Y-66133361D01*
X123898980Y-66133351D01*
X123898975Y-66133344D01*
X123696366Y-65886465D01*
X123696365Y-65886464D01*
X123696361Y-65886459D01*
X123470540Y-65660638D01*
X123223661Y-65458029D01*
X123223638Y-65458012D01*
X122958122Y-65280601D01*
X122958094Y-65280584D01*
X122676451Y-65130042D01*
X122676446Y-65130040D01*
X122381382Y-65007820D01*
X122075754Y-64915109D01*
X121762521Y-64852803D01*
X121762522Y-64852803D01*
X121523141Y-64829227D01*
X121444687Y-64821500D01*
X121125313Y-64821500D01*
X121052822Y-64828639D01*
X120807477Y-64852803D01*
X120494245Y-64915109D01*
X120188617Y-65007820D01*
X119893553Y-65130040D01*
X119893548Y-65130042D01*
X119611905Y-65280584D01*
X119611877Y-65280601D01*
X119346361Y-65458012D01*
X119346338Y-65458029D01*
X119099459Y-65660638D01*
X118873638Y-65886459D01*
X118671029Y-66133338D01*
X118671012Y-66133361D01*
X118493601Y-66398877D01*
X118493584Y-66398905D01*
X118343042Y-66680548D01*
X118343040Y-66680553D01*
X118220820Y-66975617D01*
X118128109Y-67281245D01*
X118065803Y-67594477D01*
X118044489Y-67810893D01*
X118034500Y-67912313D01*
X117347882Y-67912313D01*
X117357062Y-67713761D01*
X117358119Y-67702366D01*
X117406873Y-67352863D01*
X117408973Y-67341626D01*
X117489770Y-66998100D01*
X117492893Y-66987121D01*
X117605049Y-66652491D01*
X117609172Y-66641852D01*
X117751720Y-66319010D01*
X117756803Y-66308801D01*
X117928530Y-66000494D01*
X117934556Y-65990762D01*
X118133994Y-65699617D01*
X118140876Y-65690505D01*
X118366327Y-65419005D01*
X118374021Y-65410565D01*
X118623565Y-65161021D01*
X118632005Y-65153327D01*
X118903505Y-64927876D01*
X118912617Y-64920994D01*
X119203767Y-64721552D01*
X119213494Y-64715530D01*
X119521801Y-64543803D01*
X119532010Y-64538720D01*
X119854852Y-64396172D01*
X119865491Y-64392049D01*
X120200121Y-64279893D01*
X120211100Y-64276770D01*
X120554626Y-64195973D01*
X120565863Y-64193873D01*
X120915375Y-64145118D01*
X120926761Y-64144062D01*
X121282145Y-64127632D01*
X121287872Y-64127500D01*
X121350892Y-64127500D01*
X129335279Y-64127500D01*
X129402318Y-64147185D01*
G37*
%TD.AperFunction*%
%TA.AperFunction,Conductor*%
G36*
X143499318Y-64147185D02*
G01*
X143545073Y-64199989D01*
X143555017Y-64269147D01*
X143525992Y-64332703D01*
X143467214Y-64370477D01*
X143464413Y-64371263D01*
X143373581Y-64395602D01*
X143373579Y-64395602D01*
X143373578Y-64395603D01*
X143373571Y-64395605D01*
X143131309Y-64495953D01*
X143131299Y-64495958D01*
X142904196Y-64627075D01*
X142696148Y-64786718D01*
X142510718Y-64972148D01*
X142351075Y-65180196D01*
X142219958Y-65407299D01*
X142219953Y-65407309D01*
X142119605Y-65649571D01*
X142119602Y-65649581D01*
X142051730Y-65902884D01*
X142051716Y-65902990D01*
X142017500Y-66162872D01*
X142017500Y-66425127D01*
X142030959Y-66527351D01*
X142051730Y-66685116D01*
X142119558Y-66938255D01*
X142119602Y-66938418D01*
X142119605Y-66938428D01*
X142219953Y-67180690D01*
X142219958Y-67180700D01*
X142351075Y-67407803D01*
X142510718Y-67615851D01*
X142510726Y-67615860D01*
X142696140Y-67801274D01*
X142696148Y-67801281D01*
X142904196Y-67960924D01*
X143131299Y-68092041D01*
X143131300Y-68092041D01*
X143131303Y-68092043D01*
X143340953Y-68178883D01*
X143395356Y-68222724D01*
X143417421Y-68289018D01*
X143417500Y-68293444D01*
X143417500Y-72743502D01*
X143397815Y-72810541D01*
X143381181Y-72831183D01*
X135287780Y-80924584D01*
X135226457Y-80958069D01*
X135156765Y-80953085D01*
X135100832Y-80911213D01*
X135076415Y-80845749D01*
X135076099Y-80836903D01*
X135076099Y-80362662D01*
X135076098Y-80362644D01*
X135074865Y-80350573D01*
X135087635Y-80281880D01*
X135110539Y-80250294D01*
X139687713Y-75673121D01*
X139687716Y-75673120D01*
X139799520Y-75561316D01*
X139849639Y-75474504D01*
X139878577Y-75424385D01*
X139919500Y-75271657D01*
X139919500Y-75113543D01*
X139919500Y-68293444D01*
X139939185Y-68226405D01*
X139991989Y-68180650D01*
X139996047Y-68178883D01*
X140205697Y-68092043D01*
X140432803Y-67960924D01*
X140640851Y-67801282D01*
X140640855Y-67801277D01*
X140640860Y-67801274D01*
X140826274Y-67615860D01*
X140826277Y-67615855D01*
X140826282Y-67615851D01*
X140985924Y-67407803D01*
X141117043Y-67180697D01*
X141217398Y-66938419D01*
X141285270Y-66685116D01*
X141319500Y-66425120D01*
X141319500Y-66162880D01*
X141285270Y-65902884D01*
X141217398Y-65649581D01*
X141190668Y-65585049D01*
X141117046Y-65407309D01*
X141117041Y-65407299D01*
X140985924Y-65180196D01*
X140863424Y-65020554D01*
X140826282Y-64972149D01*
X140826281Y-64972148D01*
X140826274Y-64972140D01*
X140640860Y-64786726D01*
X140640851Y-64786718D01*
X140432803Y-64627075D01*
X140205700Y-64495958D01*
X140205690Y-64495953D01*
X139963428Y-64395605D01*
X139963421Y-64395603D01*
X139963422Y-64395603D01*
X139963419Y-64395602D01*
X139872625Y-64371274D01*
X139812967Y-64334910D01*
X139782438Y-64272063D01*
X139790733Y-64202687D01*
X139835218Y-64148809D01*
X139901770Y-64127535D01*
X139904721Y-64127500D01*
X143432279Y-64127500D01*
X143499318Y-64147185D01*
G37*
%TD.AperFunction*%
%TD*%
M02*
