%TF.GenerationSoftware,KiCad,Pcbnew,9.0.2*%
%TF.CreationDate,2026-07-20T15:10:08-07:00*%
%TF.ProjectId,Payload_Controller_EM,5061796c-6f61-4645-9f43-6f6e74726f6c,rev?*%
%TF.SameCoordinates,Original*%
%TF.FileFunction,Soldermask,Bot*%
%TF.FilePolarity,Negative*%
%FSLAX46Y46*%
G04 Gerber Fmt 4.6, Leading zero omitted, Abs format (unit mm)*
G04 Created by KiCad (PCBNEW 9.0.2) date 2026-07-20 15:10:08*
%MOMM*%
%LPD*%
G01*
G04 APERTURE LIST*
G04 Aperture macros list*
%AMRoundRect*
0 Rectangle with rounded corners*
0 $1 Rounding radius*
0 $2 $3 $4 $5 $6 $7 $8 $9 X,Y pos of 4 corners*
0 Add a 4 corners polygon primitive as box body*
4,1,4,$2,$3,$4,$5,$6,$7,$8,$9,$2,$3,0*
0 Add four circle primitives for the rounded corners*
1,1,$1+$1,$2,$3*
1,1,$1+$1,$4,$5*
1,1,$1+$1,$6,$7*
1,1,$1+$1,$8,$9*
0 Add four rect primitives between the rounded corners*
20,1,$1+$1,$2,$3,$4,$5,0*
20,1,$1+$1,$4,$5,$6,$7,0*
20,1,$1+$1,$6,$7,$8,$9,0*
20,1,$1+$1,$8,$9,$2,$3,0*%
%AMHorizOval*
0 Thick line with rounded ends*
0 $1 width*
0 $2 $3 position (X,Y) of the first rounded end (center of the circle)*
0 $4 $5 position (X,Y) of the second rounded end (center of the circle)*
0 Add line between two ends*
20,1,$1,$2,$3,$4,$5,0*
0 Add two circle primitives to create the rounded ends*
1,1,$1,$2,$3*
1,1,$1,$4,$5*%
G04 Aperture macros list end*
%ADD10C,4.700000*%
%ADD11RoundRect,0.250000X0.350000X0.575000X-0.350000X0.575000X-0.350000X-0.575000X0.350000X-0.575000X0*%
%ADD12O,1.200000X1.650000*%
%ADD13C,1.240000*%
%ADD14C,0.650000*%
%ADD15O,2.100000X1.000000*%
%ADD16O,1.600000X1.000000*%
%ADD17RoundRect,0.250000X0.654074X0.159099X0.159099X0.654074X-0.654074X-0.159099X-0.159099X-0.654074X0*%
%ADD18HorizOval,1.200000X0.159099X0.159099X-0.159099X-0.159099X0*%
%ADD19R,1.700000X1.700000*%
%ADD20O,1.700000X1.700000*%
%ADD21RoundRect,0.250000X-0.350000X-0.575000X0.350000X-0.575000X0.350000X0.575000X-0.350000X0.575000X0*%
%ADD22RoundRect,1.500000X-1.500000X-1.500000X1.500000X-1.500000X1.500000X1.500000X-1.500000X1.500000X0*%
%ADD23C,6.000000*%
%ADD24RoundRect,0.250000X0.159099X-0.654074X0.654074X-0.159099X-0.159099X0.654074X-0.654074X0.159099X0*%
%ADD25HorizOval,1.200000X-0.159099X0.159099X0.159099X-0.159099X0*%
G04 APERTURE END LIST*
D10*
%TO.C,H3*%
X103632000Y-125780800D03*
%TD*%
D11*
%TO.C,J2*%
X109000000Y-61000000D03*
D12*
X109000000Y-58999999D03*
X106999999Y-61000000D03*
X107000000Y-59000000D03*
X105000000Y-61000000D03*
X104999999Y-59000000D03*
%TD*%
D13*
%TO.C,J7*%
X158310851Y-62992000D03*
X156514800Y-62992000D03*
X158310851Y-64788051D03*
X158310851Y-61195949D03*
X160106902Y-62992000D03*
%TD*%
D14*
%TO.C,J13*%
X190914000Y-94586000D03*
X190914000Y-88806000D03*
D15*
X190384000Y-96016000D03*
D16*
X194564000Y-96016000D03*
D15*
X190384000Y-87376000D03*
D16*
X194564000Y-87376000D03*
%TD*%
D17*
%TO.C,J15*%
X125636586Y-74413814D03*
D18*
X127050800Y-72999600D03*
X124222372Y-72999600D03*
X125636586Y-71585387D03*
%TD*%
D10*
%TO.C,H1*%
X103632000Y-37795200D03*
%TD*%
%TO.C,H2*%
X189585600Y-37795200D03*
%TD*%
D19*
%TO.C,J12*%
X129413000Y-78608000D03*
D20*
X129413000Y-81148000D03*
%TD*%
D13*
%TO.C,J5*%
X165793149Y-70561200D03*
X165793149Y-72357251D03*
X167589200Y-70561200D03*
X163997098Y-70561200D03*
X165793149Y-68765149D03*
%TD*%
D10*
%TO.C,H4*%
X189585600Y-125780800D03*
%TD*%
D21*
%TO.C,J3*%
X105000000Y-65000000D03*
D12*
X105000000Y-67000001D03*
X107000001Y-65000000D03*
X107000000Y-67000000D03*
X109000000Y-65000000D03*
X109000001Y-67000000D03*
%TD*%
D19*
%TO.C,J14*%
X132588000Y-112136000D03*
D20*
X132588000Y-114676000D03*
%TD*%
D13*
%TO.C,J6*%
X169349149Y-74168000D03*
X169349149Y-72371949D03*
X167553098Y-74168000D03*
X171145200Y-74168000D03*
X169349149Y-75964051D03*
%TD*%
D22*
%TO.C,J9*%
X117202400Y-40741600D03*
D23*
X124402400Y-40741600D03*
%TD*%
D13*
%TO.C,J8*%
X161696400Y-66362851D03*
X161696400Y-64566800D03*
X159900349Y-66362851D03*
X163492451Y-66362851D03*
X161696400Y-68158902D03*
%TD*%
D19*
%TO.C,J11*%
X115824000Y-76835000D03*
D20*
X115824000Y-74295000D03*
X115824000Y-71755000D03*
X115824000Y-69215000D03*
%TD*%
D24*
%TO.C,J1*%
X164295386Y-99356614D03*
D25*
X165709600Y-100770828D03*
X165709600Y-97942400D03*
X167123813Y-99356614D03*
X167123813Y-96528187D03*
X168538027Y-97942400D03*
%TD*%
D21*
%TO.C,J4*%
X105000000Y-73000000D03*
D12*
X105000000Y-71000000D03*
X107000000Y-73000000D03*
X107000000Y-71000000D03*
X109000000Y-73000000D03*
X109000000Y-71000000D03*
%TD*%
M02*
