%TF.GenerationSoftware,KiCad,Pcbnew,9.0.2*%
%TF.CreationDate,2026-07-20T15:10:08-07:00*%
%TF.ProjectId,Payload_Controller_EM,5061796c-6f61-4645-9f43-6f6e74726f6c,rev?*%
%TF.SameCoordinates,Original*%
%TF.FileFunction,Soldermask,Top*%
%TF.FilePolarity,Negative*%
%FSLAX46Y46*%
G04 Gerber Fmt 4.6, Leading zero omitted, Abs format (unit mm)*
G04 Created by KiCad (PCBNEW 9.0.2) date 2026-07-20 15:10:08*
%MOMM*%
%LPD*%
G01*
G04 APERTURE LIST*
G04 Aperture macros list*
%AMRoundRect*
0 Rectangle with rounded corners*
0 $1 Rounding radius*
0 $2 $3 $4 $5 $6 $7 $8 $9 X,Y pos of 4 corners*
0 Add a 4 corners polygon primitive as box body*
4,1,4,$2,$3,$4,$5,$6,$7,$8,$9,$2,$3,0*
0 Add four circle primitives for the rounded corners*
1,1,$1+$1,$2,$3*
1,1,$1+$1,$4,$5*
1,1,$1+$1,$6,$7*
1,1,$1+$1,$8,$9*
0 Add four rect primitives between the rounded corners*
20,1,$1+$1,$2,$3,$4,$5,0*
20,1,$1+$1,$4,$5,$6,$7,0*
20,1,$1+$1,$6,$7,$8,$9,0*
20,1,$1+$1,$8,$9,$2,$3,0*%
%AMHorizOval*
0 Thick line with rounded ends*
0 $1 width*
0 $2 $3 position (X,Y) of the first rounded end (center of the circle)*
0 $4 $5 position (X,Y) of the second rounded end (center of the circle)*
0 Add line between two ends*
20,1,$1,$2,$3,$4,$5,0*
0 Add two circle primitives to create the rounded ends*
1,1,$1,$2,$3*
1,1,$1,$4,$5*%
%AMRotRect*
0 Rectangle, with rotation*
0 The origin of the aperture is its center*
0 $1 length*
0 $2 width*
0 $3 Rotation angle, in degrees counterclockwise*
0 Add horizontal line*
21,1,$1,$2,0,0,$3*%
G04 Aperture macros list end*
%ADD10C,4.700000*%
%ADD11RoundRect,0.225000X-0.225000X-0.250000X0.225000X-0.250000X0.225000X0.250000X-0.225000X0.250000X0*%
%ADD12RoundRect,0.135000X-0.135000X-0.185000X0.135000X-0.185000X0.135000X0.185000X-0.135000X0.185000X0*%
%ADD13RoundRect,0.225000X0.225000X0.250000X-0.225000X0.250000X-0.225000X-0.250000X0.225000X-0.250000X0*%
%ADD14RoundRect,0.140000X-0.140000X-0.170000X0.140000X-0.170000X0.140000X0.170000X-0.140000X0.170000X0*%
%ADD15RoundRect,0.200000X0.275000X-0.200000X0.275000X0.200000X-0.275000X0.200000X-0.275000X-0.200000X0*%
%ADD16RoundRect,0.140000X-0.219203X-0.021213X-0.021213X-0.219203X0.219203X0.021213X0.021213X0.219203X0*%
%ADD17RoundRect,0.225000X-0.250000X0.225000X-0.250000X-0.225000X0.250000X-0.225000X0.250000X0.225000X0*%
%ADD18R,1.000000X1.000000*%
%ADD19RoundRect,0.137500X0.137500X-0.625000X0.137500X0.625000X-0.137500X0.625000X-0.137500X-0.625000X0*%
%ADD20RoundRect,0.250000X0.350000X0.575000X-0.350000X0.575000X-0.350000X-0.575000X0.350000X-0.575000X0*%
%ADD21O,1.200000X1.650000*%
%ADD22RoundRect,0.250000X-0.475000X0.250000X-0.475000X-0.250000X0.475000X-0.250000X0.475000X0.250000X0*%
%ADD23RoundRect,0.225000X-0.335876X-0.017678X-0.017678X-0.335876X0.335876X0.017678X0.017678X0.335876X0*%
%ADD24RoundRect,0.135000X0.226274X0.035355X0.035355X0.226274X-0.226274X-0.035355X-0.035355X-0.226274X0*%
%ADD25RoundRect,0.200000X-0.200000X-0.275000X0.200000X-0.275000X0.200000X0.275000X-0.200000X0.275000X0*%
%ADD26R,0.812800X0.254000*%
%ADD27R,0.254000X0.812800*%
%ADD28R,1.752600X4.800600*%
%ADD29R,1.500000X2.400000*%
%ADD30RoundRect,0.200000X0.200000X0.275000X-0.200000X0.275000X-0.200000X-0.275000X0.200000X-0.275000X0*%
%ADD31RoundRect,0.135000X0.135000X0.185000X-0.135000X0.185000X-0.135000X-0.185000X0.135000X-0.185000X0*%
%ADD32RoundRect,0.140000X0.021213X-0.219203X0.219203X-0.021213X-0.021213X0.219203X-0.219203X0.021213X0*%
%ADD33C,1.240000*%
%ADD34RoundRect,0.225000X0.250000X-0.225000X0.250000X0.225000X-0.250000X0.225000X-0.250000X-0.225000X0*%
%ADD35RoundRect,0.140000X0.219203X0.021213X0.021213X0.219203X-0.219203X-0.021213X-0.021213X-0.219203X0*%
%ADD36C,0.650000*%
%ADD37R,1.450000X0.600000*%
%ADD38R,1.450000X0.300000*%
%ADD39O,2.100000X1.000000*%
%ADD40O,1.600000X1.000000*%
%ADD41RoundRect,0.250000X0.654074X0.159099X0.159099X0.654074X-0.654074X-0.159099X-0.159099X-0.654074X0*%
%ADD42HorizOval,1.200000X0.159099X0.159099X-0.159099X-0.159099X0*%
%ADD43RoundRect,0.218750X-0.218750X-0.256250X0.218750X-0.256250X0.218750X0.256250X-0.218750X0.256250X0*%
%ADD44RoundRect,0.087500X-0.250000X-0.087500X0.250000X-0.087500X0.250000X0.087500X-0.250000X0.087500X0*%
%ADD45RoundRect,0.135000X-0.185000X0.135000X-0.185000X-0.135000X0.185000X-0.135000X0.185000X0.135000X0*%
%ADD46RoundRect,0.140000X-0.021213X0.219203X-0.219203X0.021213X0.021213X-0.219203X0.219203X-0.021213X0*%
%ADD47R,1.700000X1.700000*%
%ADD48O,1.700000X1.700000*%
%ADD49RoundRect,0.225000X-0.017678X0.335876X-0.335876X0.017678X0.017678X-0.335876X0.335876X-0.017678X0*%
%ADD50R,0.375000X0.350000*%
%ADD51R,0.350000X0.375000*%
%ADD52R,1.000000X1.800000*%
%ADD53RoundRect,0.135000X-0.226274X-0.035355X-0.035355X-0.226274X0.226274X0.035355X0.035355X0.226274X0*%
%ADD54RoundRect,0.225000X0.017678X-0.335876X0.335876X-0.017678X-0.017678X0.335876X-0.335876X0.017678X0*%
%ADD55RoundRect,0.140000X0.170000X-0.140000X0.170000X0.140000X-0.170000X0.140000X-0.170000X-0.140000X0*%
%ADD56RoundRect,0.075000X0.415425X0.521491X-0.521491X-0.415425X-0.415425X-0.521491X0.521491X0.415425X0*%
%ADD57RoundRect,0.075000X-0.415425X0.521491X-0.521491X0.415425X0.415425X-0.521491X0.521491X-0.415425X0*%
%ADD58RoundRect,0.050800X0.450000X0.450000X-0.450000X0.450000X-0.450000X-0.450000X0.450000X-0.450000X0*%
%ADD59RoundRect,0.250000X-0.350000X-0.575000X0.350000X-0.575000X0.350000X0.575000X-0.350000X0.575000X0*%
%ADD60RotRect,1.400000X1.200000X45.000000*%
%ADD61RoundRect,0.125000X-0.537500X-0.125000X0.537500X-0.125000X0.537500X0.125000X-0.537500X0.125000X0*%
%ADD62RoundRect,0.135000X0.185000X-0.135000X0.185000X0.135000X-0.185000X0.135000X-0.185000X-0.135000X0*%
%ADD63RoundRect,0.050800X-0.450000X-0.450000X0.450000X-0.450000X0.450000X0.450000X-0.450000X0.450000X0*%
%ADD64RoundRect,0.200000X-0.275000X0.200000X-0.275000X-0.200000X0.275000X-0.200000X0.275000X0.200000X0*%
%ADD65RoundRect,0.225000X-0.176777X-0.919239X0.919239X0.176777X0.176777X0.919239X-0.919239X-0.176777X0*%
%ADD66RoundRect,0.140000X-0.170000X0.140000X-0.170000X-0.140000X0.170000X-0.140000X0.170000X0.140000X0*%
%ADD67RoundRect,1.500000X-1.500000X-1.500000X1.500000X-1.500000X1.500000X1.500000X-1.500000X1.500000X0*%
%ADD68C,6.000000*%
%ADD69RoundRect,0.200000X0.053033X-0.335876X0.335876X-0.053033X-0.053033X0.335876X-0.335876X0.053033X0*%
%ADD70RoundRect,0.200000X0.335876X0.053033X0.053033X0.335876X-0.335876X-0.053033X-0.053033X-0.335876X0*%
%ADD71RoundRect,0.150000X-0.565685X0.353553X0.353553X-0.565685X0.565685X-0.353553X-0.353553X0.565685X0*%
%ADD72R,0.675000X0.280000*%
%ADD73R,0.280000X0.675000*%
%ADD74RoundRect,0.135000X0.035355X-0.226274X0.226274X-0.035355X-0.035355X0.226274X-0.226274X0.035355X0*%
%ADD75RoundRect,0.250000X0.159099X-0.654074X0.654074X-0.159099X-0.159099X0.654074X-0.654074X0.159099X0*%
%ADD76HorizOval,1.200000X-0.159099X0.159099X0.159099X-0.159099X0*%
G04 APERTURE END LIST*
D10*
%TO.C,H3*%
X103632000Y-125780800D03*
%TD*%
D11*
%TO.C,C20*%
X111672800Y-85000000D03*
X113222800Y-85000000D03*
%TD*%
D12*
%TO.C,R6*%
X111387800Y-83700000D03*
X112407800Y-83700000D03*
%TD*%
D13*
%TO.C,C41*%
X114222800Y-113152000D03*
X112672800Y-113152000D03*
%TD*%
D14*
%TO.C,C40*%
X105037800Y-112250000D03*
X105997800Y-112250000D03*
%TD*%
D15*
%TO.C,R19*%
X185978800Y-89979000D03*
X185978800Y-88329000D03*
%TD*%
D16*
%TO.C,C29*%
X156464000Y-91862589D03*
X157142822Y-92541411D03*
%TD*%
D17*
%TO.C,C46*%
X105750000Y-101225000D03*
X105750000Y-102775000D03*
%TD*%
D18*
%TO.C,TP3*%
X145288000Y-41275000D03*
%TD*%
D19*
%TO.C,U4*%
X139613200Y-112063800D03*
X140413200Y-112063801D03*
X141213200Y-112063800D03*
X142013200Y-112063800D03*
X142813200Y-112063800D03*
X143613200Y-112063800D03*
X144413200Y-112063801D03*
X145213200Y-112063800D03*
X146013200Y-112063801D03*
X146813200Y-112063800D03*
X147613200Y-112063800D03*
X148413200Y-112063800D03*
X149213200Y-112063800D03*
X150013200Y-112063801D03*
X150813200Y-112063800D03*
X151613200Y-112063801D03*
X152413200Y-112063800D03*
X153213200Y-112063800D03*
X154013200Y-112063800D03*
X154813200Y-112063800D03*
X155613200Y-112063801D03*
X156413200Y-112063800D03*
X156413200Y-100888800D03*
X155613200Y-100888799D03*
X154813200Y-100888800D03*
X154013200Y-100888800D03*
X153213200Y-100888800D03*
X152413200Y-100888800D03*
X151613200Y-100888799D03*
X150813200Y-100888800D03*
X150013200Y-100888799D03*
X149213200Y-100888800D03*
X148413200Y-100888800D03*
X147613200Y-100888800D03*
X146813200Y-100888800D03*
X146013200Y-100888799D03*
X145213200Y-100888800D03*
X144413200Y-100888799D03*
X143613200Y-100888800D03*
X142813200Y-100888800D03*
X142013200Y-100888800D03*
X141213200Y-100888800D03*
X140413200Y-100888799D03*
X139613200Y-100888800D03*
%TD*%
D20*
%TO.C,J2*%
X109000000Y-61000000D03*
D21*
X109000000Y-58999999D03*
X106999999Y-61000000D03*
X107000000Y-59000000D03*
X105000000Y-61000000D03*
X104999999Y-59000000D03*
%TD*%
D22*
%TO.C,C52*%
X121745600Y-105000000D03*
X121745600Y-106900000D03*
%TD*%
D18*
%TO.C,TP5*%
X111750000Y-127750000D03*
%TD*%
%TO.C,TP11*%
X116000000Y-98000000D03*
%TD*%
D23*
%TO.C,C1*%
X156931992Y-54569992D03*
X158028008Y-55666008D03*
%TD*%
D24*
%TO.C,C17*%
X144632624Y-69397824D03*
X143911376Y-68676576D03*
%TD*%
D11*
%TO.C,C3*%
X149212000Y-114681000D03*
X150762000Y-114681000D03*
%TD*%
D25*
%TO.C,R24*%
X111622800Y-111249999D03*
X113272800Y-111249999D03*
%TD*%
D26*
%TO.C,U6*%
X107302200Y-85749999D03*
X107302200Y-86250001D03*
X107302200Y-86750000D03*
X107302200Y-87249999D03*
X107302200Y-87750000D03*
X107302200Y-88250000D03*
X107302200Y-88750001D03*
X107302200Y-89250000D03*
X107302200Y-89749999D03*
X107302200Y-90250001D03*
D27*
X107999999Y-90946400D03*
X108500000Y-90946400D03*
X109000000Y-90946400D03*
X109500001Y-90946400D03*
D26*
X110197800Y-90250001D03*
X110197800Y-89749999D03*
X110197800Y-89250000D03*
X110197800Y-88750001D03*
X110197800Y-88250000D03*
X110197800Y-87750000D03*
X110197800Y-87249999D03*
X110197800Y-86750000D03*
X110197800Y-86250001D03*
X110197800Y-85749999D03*
D27*
X109500001Y-85053600D03*
X109000000Y-85053600D03*
X108500000Y-85053600D03*
X107999999Y-85053600D03*
D28*
X108750000Y-88000000D03*
%TD*%
D17*
%TO.C,C19*%
X123447800Y-92395000D03*
X123447800Y-93945000D03*
%TD*%
D29*
%TO.C,L1*%
X114697800Y-91250000D03*
X120197800Y-91250000D03*
%TD*%
D30*
%TO.C,R20*%
X136753600Y-91287600D03*
X135103600Y-91287600D03*
%TD*%
D31*
%TO.C,R5*%
X105542800Y-87000000D03*
X104522800Y-87000000D03*
%TD*%
D22*
%TO.C,C45*%
X123645600Y-118249999D03*
X123645600Y-120149999D03*
%TD*%
D16*
%TO.C,C37*%
X164760589Y-78248189D03*
X165439411Y-78927011D03*
%TD*%
D18*
%TO.C,TP6*%
X126000000Y-103000000D03*
%TD*%
D23*
%TO.C,C38*%
X163586792Y-78801592D03*
X164682808Y-79897608D03*
%TD*%
D11*
%TO.C,C8*%
X104172800Y-85750000D03*
X105722800Y-85750000D03*
%TD*%
D32*
%TO.C,C28*%
X152212989Y-67801811D03*
X152891811Y-67122989D03*
%TD*%
D18*
%TO.C,TP4*%
X104750000Y-106000000D03*
%TD*%
D31*
%TO.C,R7*%
X110260000Y-83700000D03*
X109240000Y-83700000D03*
%TD*%
D32*
%TO.C,C23*%
X140122589Y-94217811D03*
X140801411Y-93538989D03*
%TD*%
D33*
%TO.C,J7*%
X158310851Y-62992000D03*
X156514800Y-62992000D03*
X158310851Y-64788051D03*
X158310851Y-61195949D03*
X160106902Y-62992000D03*
%TD*%
D18*
%TO.C,TP1*%
X137160000Y-41275000D03*
%TD*%
D34*
%TO.C,C15*%
X112697800Y-90050000D03*
X112697800Y-88500000D03*
%TD*%
D11*
%TO.C,C99*%
X138599000Y-126650000D03*
X140149000Y-126650000D03*
%TD*%
D29*
%TO.C,L3*%
X114145600Y-117500000D03*
X119645600Y-117500000D03*
%TD*%
D35*
%TO.C,C27*%
X142071411Y-71713411D03*
X141392589Y-71034589D03*
%TD*%
D36*
%TO.C,J13*%
X190914000Y-94586000D03*
X190914000Y-88806000D03*
D37*
X189469000Y-94946000D03*
X189469000Y-94146001D03*
D38*
X189469001Y-92946000D03*
X189469000Y-91946000D03*
X189469000Y-91446000D03*
X189469001Y-90446000D03*
D37*
X189469000Y-89245999D03*
X189469000Y-88446000D03*
X189469000Y-88446000D03*
X189469000Y-89245999D03*
D38*
X189469000Y-89946000D03*
X189469000Y-90946000D03*
X189469000Y-92446000D03*
X189469000Y-93446000D03*
D37*
X189469000Y-94146001D03*
X189469000Y-94946000D03*
D39*
X190384000Y-96016000D03*
D40*
X194564000Y-96016000D03*
D39*
X190384000Y-87376000D03*
D40*
X194564000Y-87376000D03*
%TD*%
D25*
%TO.C,R13*%
X132106400Y-83972400D03*
X133756400Y-83972400D03*
%TD*%
D41*
%TO.C,J15*%
X125636586Y-74413814D03*
D42*
X127050800Y-72999600D03*
X124222372Y-72999600D03*
X125636586Y-71585387D03*
%TD*%
D16*
%TO.C,C30*%
X146523389Y-96536189D03*
X147202211Y-97215011D03*
%TD*%
D25*
%TO.C,R14*%
X180277000Y-91948000D03*
X181927000Y-91948000D03*
%TD*%
D18*
%TO.C,TP8*%
X126000000Y-116000000D03*
%TD*%
D29*
%TO.C,L4*%
X114250000Y-104250000D03*
X119750000Y-104250000D03*
%TD*%
D11*
%TO.C,C105*%
X154792500Y-127205000D03*
X156342500Y-127205000D03*
%TD*%
D35*
%TO.C,C5*%
X168639811Y-83702211D03*
X167960989Y-83023389D03*
%TD*%
D22*
%TO.C,C51*%
X123745600Y-105000000D03*
X123745600Y-106900000D03*
%TD*%
D17*
%TO.C,C7*%
X105697800Y-88225000D03*
X105697800Y-89775000D03*
%TD*%
D18*
%TO.C,TP12*%
X116000000Y-111000000D03*
%TD*%
D17*
%TO.C,C39*%
X105697800Y-114549999D03*
X105697800Y-116099999D03*
%TD*%
D43*
%TO.C,D7*%
X121411800Y-127965200D03*
X122986800Y-127965200D03*
%TD*%
D16*
%TO.C,C33*%
X160442589Y-87798589D03*
X161121411Y-88477411D03*
%TD*%
D44*
%TO.C,U29*%
X144575000Y-123500000D03*
X144575000Y-124000000D03*
X144575000Y-124500000D03*
X146000000Y-124500000D03*
X146000000Y-124000000D03*
X146000000Y-123500000D03*
%TD*%
D12*
%TO.C,R25*%
X109135600Y-109999999D03*
X110155600Y-109999999D03*
%TD*%
D10*
%TO.C,H1*%
X103632000Y-37795200D03*
%TD*%
D45*
%TO.C,R121*%
X153492500Y-123445001D03*
X153492500Y-124464999D03*
%TD*%
D46*
%TO.C,C31*%
X136788211Y-87595389D03*
X136109389Y-88274211D03*
%TD*%
D25*
%TO.C,R28*%
X111675000Y-98000000D03*
X113325000Y-98000000D03*
%TD*%
D10*
%TO.C,H2*%
X189585600Y-37795200D03*
%TD*%
D46*
%TO.C,C6*%
X167928611Y-87188989D03*
X167249789Y-87867811D03*
%TD*%
D17*
%TO.C,C24*%
X121947800Y-92395000D03*
X121947800Y-93945000D03*
%TD*%
D18*
%TO.C,TP13*%
X116000000Y-85000000D03*
%TD*%
D12*
%TO.C,R29*%
X109140000Y-96700000D03*
X110160000Y-96700000D03*
%TD*%
D47*
%TO.C,J12*%
X129413000Y-78608000D03*
D48*
X129413000Y-81148000D03*
%TD*%
D33*
%TO.C,J5*%
X165793149Y-70561200D03*
X165793149Y-72357251D03*
X167589200Y-70561200D03*
X163997098Y-70561200D03*
X165793149Y-68765149D03*
%TD*%
D49*
%TO.C,C2*%
X128360808Y-62697992D03*
X127264792Y-63794008D03*
%TD*%
D14*
%TO.C,C50*%
X111450000Y-96700000D03*
X112410000Y-96700000D03*
%TD*%
%TO.C,C47*%
X105020000Y-99000000D03*
X105980000Y-99000000D03*
%TD*%
D15*
%TO.C,R18*%
X185928000Y-94652600D03*
X185928000Y-93002600D03*
%TD*%
D50*
%TO.C,U27*%
X162475000Y-124500000D03*
X162475000Y-125000000D03*
X162475000Y-125500000D03*
X162475000Y-126000000D03*
D51*
X162987500Y-126012500D03*
X163487500Y-126012500D03*
D50*
X164000000Y-126000000D03*
X164000000Y-125500000D03*
X164000000Y-125000000D03*
X164000000Y-124500000D03*
D51*
X163487500Y-124487500D03*
X162987500Y-124487500D03*
%TD*%
D34*
%TO.C,C101*%
X165387500Y-126020000D03*
X165387500Y-124470000D03*
%TD*%
D52*
%TO.C,Y2*%
X148884002Y-64008000D03*
X151384000Y-64008000D03*
%TD*%
D53*
%TO.C,C14*%
X163570976Y-82697376D03*
X164292224Y-83418624D03*
%TD*%
D54*
%TO.C,C32*%
X162519992Y-77814808D03*
X163616008Y-76718792D03*
%TD*%
D55*
%TO.C,C42*%
X112447800Y-115459999D03*
X112447800Y-114499999D03*
%TD*%
D13*
%TO.C,C9*%
X114222800Y-86901999D03*
X112672800Y-86901999D03*
%TD*%
D10*
%TO.C,H4*%
X189585600Y-125780800D03*
%TD*%
D56*
%TO.C,U8*%
X162875508Y-80604908D03*
X162521955Y-80251355D03*
X162168402Y-79897801D03*
X161814848Y-79544248D03*
X161461295Y-79190695D03*
X161107741Y-78837141D03*
X160754188Y-78483588D03*
X160400635Y-78130035D03*
X160047081Y-77776481D03*
X159693528Y-77422928D03*
X159339974Y-77069374D03*
X158986421Y-76715821D03*
X158632868Y-76362268D03*
X158279314Y-76008714D03*
X157925761Y-75655161D03*
X157572208Y-75301607D03*
X157218654Y-74948054D03*
X156865101Y-74594501D03*
X156511547Y-74240947D03*
X156157994Y-73887394D03*
X155804441Y-73533840D03*
X155450887Y-73180287D03*
X155097334Y-72826734D03*
X154743780Y-72473180D03*
X154390227Y-72119627D03*
X154036674Y-71766074D03*
X153683120Y-71412520D03*
X153329567Y-71058967D03*
X152976013Y-70705413D03*
X152622460Y-70351860D03*
X152268907Y-69998307D03*
X151915353Y-69644753D03*
X151561800Y-69291200D03*
X151208247Y-68937646D03*
X150854693Y-68584093D03*
X150501140Y-68230540D03*
D57*
X147796456Y-68230540D03*
X147442903Y-68584093D03*
X147089349Y-68937646D03*
X146735796Y-69291200D03*
X146382243Y-69644753D03*
X146028689Y-69998307D03*
X145675136Y-70351860D03*
X145321583Y-70705413D03*
X144968029Y-71058967D03*
X144614476Y-71412520D03*
X144260922Y-71766074D03*
X143907369Y-72119627D03*
X143553816Y-72473180D03*
X143200262Y-72826734D03*
X142846709Y-73180287D03*
X142493155Y-73533840D03*
X142139602Y-73887394D03*
X141786049Y-74240947D03*
X141432495Y-74594501D03*
X141078942Y-74948054D03*
X140725388Y-75301607D03*
X140371835Y-75655161D03*
X140018282Y-76008714D03*
X139664728Y-76362268D03*
X139311175Y-76715821D03*
X138957622Y-77069374D03*
X138604068Y-77422928D03*
X138250515Y-77776481D03*
X137896961Y-78130035D03*
X137543408Y-78483588D03*
X137189855Y-78837141D03*
X136836301Y-79190695D03*
X136482748Y-79544248D03*
X136129194Y-79897801D03*
X135775641Y-80251355D03*
X135422088Y-80604908D03*
D56*
X135422088Y-83309592D03*
X135775641Y-83663145D03*
X136129194Y-84016699D03*
X136482748Y-84370252D03*
X136836301Y-84723805D03*
X137189855Y-85077359D03*
X137543408Y-85430912D03*
X137896961Y-85784465D03*
X138250515Y-86138019D03*
X138604068Y-86491572D03*
X138957622Y-86845126D03*
X139311175Y-87198679D03*
X139664728Y-87552232D03*
X140018282Y-87905786D03*
X140371835Y-88259339D03*
X140725388Y-88612893D03*
X141078942Y-88966446D03*
X141432495Y-89319999D03*
X141786049Y-89673553D03*
X142139602Y-90027106D03*
X142493155Y-90380660D03*
X142846709Y-90734213D03*
X143200262Y-91087766D03*
X143553816Y-91441320D03*
X143907369Y-91794873D03*
X144260922Y-92148426D03*
X144614476Y-92501980D03*
X144968029Y-92855533D03*
X145321583Y-93209087D03*
X145675136Y-93562640D03*
X146028689Y-93916193D03*
X146382243Y-94269747D03*
X146735796Y-94623300D03*
X147089349Y-94976854D03*
X147442903Y-95330407D03*
X147796456Y-95683960D03*
D57*
X150501140Y-95683960D03*
X150854693Y-95330407D03*
X151208247Y-94976854D03*
X151561800Y-94623300D03*
X151915353Y-94269747D03*
X152268907Y-93916193D03*
X152622460Y-93562640D03*
X152976013Y-93209087D03*
X153329567Y-92855533D03*
X153683120Y-92501980D03*
X154036674Y-92148426D03*
X154390227Y-91794873D03*
X154743780Y-91441320D03*
X155097334Y-91087766D03*
X155450887Y-90734213D03*
X155804441Y-90380660D03*
X156157994Y-90027106D03*
X156511547Y-89673553D03*
X156865101Y-89319999D03*
X157218654Y-88966446D03*
X157572208Y-88612893D03*
X157925761Y-88259339D03*
X158279314Y-87905786D03*
X158632868Y-87552232D03*
X158986421Y-87198679D03*
X159339974Y-86845126D03*
X159693528Y-86491572D03*
X160047081Y-86138019D03*
X160400635Y-85784465D03*
X160754188Y-85430912D03*
X161107741Y-85077359D03*
X161461295Y-84723805D03*
X161814848Y-84370252D03*
X162168402Y-84016699D03*
X162521955Y-83663145D03*
X162875508Y-83309592D03*
%TD*%
D18*
%TO.C,TP9*%
X126000000Y-90000000D03*
%TD*%
D58*
%TO.C,SW2*%
X120055200Y-84759600D03*
X124155200Y-84759600D03*
X120055200Y-83159600D03*
X124155200Y-83159600D03*
%TD*%
D31*
%TO.C,R11*%
X106007800Y-113249999D03*
X104987800Y-113249999D03*
%TD*%
D59*
%TO.C,J3*%
X105000000Y-65000000D03*
D21*
X105000000Y-67000001D03*
X107000001Y-65000000D03*
X107000000Y-67000000D03*
X109000000Y-65000000D03*
X109000001Y-67000000D03*
%TD*%
D60*
%TO.C,Y1*%
X166236765Y-86747235D03*
X167792400Y-85191600D03*
X166590319Y-83989519D03*
X165034684Y-85545154D03*
%TD*%
D31*
%TO.C,R17*%
X120260000Y-126500000D03*
X119240000Y-126500000D03*
%TD*%
D17*
%TO.C,C103*%
X147367500Y-123225000D03*
X147367500Y-124775000D03*
%TD*%
D61*
%TO.C,U31*%
X155000000Y-123700000D03*
X155000000Y-124350000D03*
X155000000Y-125000000D03*
X155000000Y-125650000D03*
X157275000Y-125650000D03*
X157275000Y-125000000D03*
X157275000Y-124350000D03*
X157275000Y-123700000D03*
%TD*%
D62*
%TO.C,R27*%
X121250000Y-102290000D03*
X121250000Y-101270000D03*
%TD*%
D14*
%TO.C,C43*%
X111397800Y-109999999D03*
X112357800Y-109999999D03*
%TD*%
D31*
%TO.C,R16*%
X120260000Y-125000000D03*
X119240000Y-125000000D03*
%TD*%
D63*
%TO.C,SW1*%
X124173200Y-79006800D03*
X120073200Y-79006800D03*
X124173200Y-80606800D03*
X120073200Y-80606800D03*
%TD*%
D47*
%TO.C,J14*%
X132588000Y-112136000D03*
D48*
X132588000Y-114676000D03*
%TD*%
D64*
%TO.C,R21*%
X135229600Y-96215200D03*
X135229600Y-97865200D03*
%TD*%
D26*
%TO.C,U5*%
X107250000Y-98749999D03*
X107250000Y-99250001D03*
X107250000Y-99750000D03*
X107250000Y-100249999D03*
X107250000Y-100750000D03*
X107250000Y-101250000D03*
X107250000Y-101750001D03*
X107250000Y-102250000D03*
X107250000Y-102749999D03*
X107250000Y-103250001D03*
D27*
X107947799Y-103946400D03*
X108447800Y-103946400D03*
X108947800Y-103946400D03*
X109447801Y-103946400D03*
D26*
X110145600Y-103250001D03*
X110145600Y-102749999D03*
X110145600Y-102250000D03*
X110145600Y-101750001D03*
X110145600Y-101250000D03*
X110145600Y-100750000D03*
X110145600Y-100249999D03*
X110145600Y-99750000D03*
X110145600Y-99250001D03*
X110145600Y-98749999D03*
D27*
X109447801Y-98053600D03*
X108947800Y-98053600D03*
X108447800Y-98053600D03*
X107947799Y-98053600D03*
D28*
X108697800Y-101000000D03*
%TD*%
D65*
%TO.C,U2*%
X159297989Y-50967099D03*
X161101111Y-52770222D03*
X162904234Y-54573344D03*
X164707356Y-56376466D03*
X166510478Y-58179588D03*
X168313601Y-59982711D03*
X170116723Y-61785833D03*
X171919845Y-63588955D03*
X173722967Y-65392078D03*
X175526090Y-67195200D03*
X186486245Y-56235045D03*
X184683123Y-54431922D03*
X182880000Y-52628800D03*
X181076878Y-50825678D03*
X179273756Y-49022556D03*
X177470633Y-47219433D03*
X175667511Y-45416311D03*
X173864389Y-43613189D03*
X172061267Y-41810066D03*
X170258144Y-40006944D03*
%TD*%
D18*
%TO.C,TP2*%
X141224000Y-41275000D03*
%TD*%
D31*
%TO.C,R22*%
X120260000Y-128000000D03*
X119240000Y-128000000D03*
%TD*%
D33*
%TO.C,J6*%
X169349149Y-74168000D03*
X169349149Y-72371949D03*
X167553098Y-74168000D03*
X171145200Y-74168000D03*
X169349149Y-75964051D03*
%TD*%
D55*
%TO.C,C49*%
X112500000Y-102210000D03*
X112500000Y-101250000D03*
%TD*%
D18*
%TO.C,TP10*%
X103000000Y-88250000D03*
%TD*%
D66*
%TO.C,C36*%
X147066000Y-63556000D03*
X147066000Y-64516000D03*
%TD*%
D67*
%TO.C,J9*%
X117202400Y-40741600D03*
D68*
X124402400Y-40741600D03*
%TD*%
D43*
%TO.C,D5*%
X121437300Y-125018800D03*
X123012300Y-125018800D03*
%TD*%
D35*
%TO.C,C26*%
X134248211Y-79485811D03*
X133569389Y-78806989D03*
%TD*%
D43*
%TO.C,D6*%
X121437300Y-126492000D03*
X123012300Y-126492000D03*
%TD*%
D69*
%TO.C,R12*%
X139168274Y-91844726D03*
X140335000Y-90678000D03*
%TD*%
D33*
%TO.C,J8*%
X161696400Y-66362851D03*
X161696400Y-64566800D03*
X159900349Y-66362851D03*
X163492451Y-66362851D03*
X161696400Y-68158902D03*
%TD*%
D70*
%TO.C,R1*%
X125246563Y-62762563D03*
X124079837Y-61595837D03*
%TD*%
D16*
%TO.C,C35*%
X154143389Y-69561389D03*
X154822211Y-70240211D03*
%TD*%
D22*
%TO.C,C44*%
X121645600Y-118249999D03*
X121645600Y-120149999D03*
%TD*%
D11*
%TO.C,C4*%
X148323000Y-98933000D03*
X149873000Y-98933000D03*
%TD*%
D71*
%TO.C,U1*%
X133884606Y-60631006D03*
X132986580Y-61529032D03*
X132088554Y-62427058D03*
X131190529Y-63325083D03*
X130292503Y-64223109D03*
X129394478Y-65121134D03*
X128496452Y-66019160D03*
X127598426Y-66917186D03*
X132194620Y-71513380D03*
X133092646Y-70615354D03*
X133990672Y-69717328D03*
X134888697Y-68819303D03*
X135786723Y-67921277D03*
X136684748Y-67023252D03*
X137582774Y-66125226D03*
X138480800Y-65227200D03*
%TD*%
D72*
%TO.C,U25*%
X138000000Y-123500000D03*
X138000000Y-124000000D03*
X138000000Y-124500000D03*
X138000000Y-125000000D03*
D73*
X138762000Y-125262500D03*
X139262000Y-125262500D03*
X139762000Y-125262500D03*
D72*
X140524000Y-125000000D03*
X140524000Y-124500000D03*
X140524000Y-124000000D03*
X140524000Y-123500000D03*
D73*
X139762000Y-123237500D03*
X139262000Y-123237500D03*
X138762000Y-123237500D03*
%TD*%
D30*
%TO.C,R15*%
X181927000Y-90474800D03*
X180277000Y-90474800D03*
%TD*%
D47*
%TO.C,J11*%
X115824000Y-76835000D03*
D48*
X115824000Y-74295000D03*
X115824000Y-71755000D03*
X115824000Y-69215000D03*
%TD*%
D62*
%TO.C,R23*%
X121145600Y-115539999D03*
X121145600Y-114519999D03*
%TD*%
D13*
%TO.C,C48*%
X114300000Y-99902001D03*
X112750000Y-99902001D03*
%TD*%
D18*
%TO.C,TP7*%
X105197800Y-119249999D03*
%TD*%
D66*
%TO.C,C13*%
X152908000Y-63500000D03*
X152908000Y-64460000D03*
%TD*%
D74*
%TO.C,C18*%
X153360176Y-69042224D03*
X154081424Y-68320976D03*
%TD*%
D31*
%TO.C,R26*%
X106010000Y-100000000D03*
X104990000Y-100000000D03*
%TD*%
D46*
%TO.C,C34*%
X136093200Y-86884189D03*
X135414378Y-87563011D03*
%TD*%
D75*
%TO.C,J1*%
X164295386Y-99356614D03*
D76*
X165709600Y-100770828D03*
X165709600Y-97942400D03*
X167123813Y-99356614D03*
X167123813Y-96528187D03*
X168538027Y-97942400D03*
%TD*%
D26*
%TO.C,U3*%
X107250000Y-111999998D03*
X107250000Y-112500000D03*
X107250000Y-112999999D03*
X107250000Y-113499998D03*
X107250000Y-113999999D03*
X107250000Y-114499999D03*
X107250000Y-115000000D03*
X107250000Y-115499999D03*
X107250000Y-115999998D03*
X107250000Y-116500000D03*
D27*
X107947799Y-117196399D03*
X108447800Y-117196399D03*
X108947800Y-117196399D03*
X109447801Y-117196399D03*
D26*
X110145600Y-116500000D03*
X110145600Y-115999998D03*
X110145600Y-115499999D03*
X110145600Y-115000000D03*
X110145600Y-114499999D03*
X110145600Y-113999999D03*
X110145600Y-113499998D03*
X110145600Y-112999999D03*
X110145600Y-112500000D03*
X110145600Y-111999998D03*
D27*
X109447801Y-111303599D03*
X108947800Y-111303599D03*
X108447800Y-111303599D03*
X107947799Y-111303599D03*
D28*
X108697800Y-114249999D03*
%TD*%
D11*
%TO.C,C100*%
X162362500Y-127495000D03*
X163912500Y-127495000D03*
%TD*%
D59*
%TO.C,J4*%
X105000000Y-73000000D03*
D21*
X105000000Y-71000000D03*
X107000000Y-73000000D03*
X107000000Y-71000000D03*
X109000000Y-73000000D03*
X109000000Y-71000000D03*
%TD*%
M02*
