%TF.GenerationSoftware,KiCad,Pcbnew,9.0.2*%
%TF.CreationDate,2026-07-20T15:10:08-07:00*%
%TF.ProjectId,Payload_Controller_EM,5061796c-6f61-4645-9f43-6f6e74726f6c,rev?*%
%TF.SameCoordinates,Original*%
%TF.FileFunction,Legend,Bot*%
%TF.FilePolarity,Positive*%
%FSLAX46Y46*%
G04 Gerber Fmt 4.6, Leading zero omitted, Abs format (unit mm)*
G04 Created by KiCad (PCBNEW 9.0.2) date 2026-07-20 15:10:08*
%MOMM*%
%LPD*%
G01*
G04 APERTURE LIST*
%ADD10C,0.150000*%
%ADD11C,0.120000*%
G04 APERTURE END LIST*
D10*
X107333333Y-75154819D02*
X107333333Y-75869104D01*
X107333333Y-75869104D02*
X107380952Y-76011961D01*
X107380952Y-76011961D02*
X107476190Y-76107200D01*
X107476190Y-76107200D02*
X107619047Y-76154819D01*
X107619047Y-76154819D02*
X107714285Y-76154819D01*
X106428571Y-75488152D02*
X106428571Y-76154819D01*
X106666666Y-75107200D02*
X106904761Y-75821485D01*
X106904761Y-75821485D02*
X106285714Y-75821485D01*
D11*
%TO.C,J4*%
X102590000Y-73000000D02*
X102590000Y-74910000D01*
X102590000Y-74910000D02*
X104500000Y-74910000D01*
X102900000Y-69400000D02*
X111100000Y-69400000D01*
X102900000Y-71000000D02*
X103300000Y-71000000D01*
X102900000Y-72000000D02*
X103300000Y-72000000D01*
X102900000Y-74600000D02*
X102900000Y-69400000D01*
X103300000Y-69800000D02*
X110700000Y-69800000D01*
X103300000Y-71000000D02*
X103300000Y-69800000D01*
X103300000Y-72000000D02*
X103300000Y-74200000D01*
X103300000Y-74200000D02*
X105500000Y-74200000D01*
X105500000Y-74200000D02*
X105500000Y-74600000D01*
X106500000Y-74200000D02*
X107500000Y-74200000D01*
X106500000Y-74600000D02*
X106500000Y-74200000D01*
X107500000Y-74200000D02*
X107500000Y-74600000D01*
X108500000Y-74200000D02*
X108500000Y-74600000D01*
X110700000Y-69800000D02*
X110700000Y-71000000D01*
X110700000Y-71000000D02*
X111100000Y-71000000D01*
X110700000Y-72000000D02*
X110700000Y-74200000D01*
X110700000Y-74200000D02*
X108500000Y-74200000D01*
X111100000Y-69400000D02*
X111100000Y-74600000D01*
X111100000Y-72000000D02*
X110700000Y-72000000D01*
X111100000Y-74600000D02*
X102900000Y-74600000D01*
%TD*%
M02*
