M48
; DRILL file {KiCad 9.0.2} date 2026-07-20T15:10:30-0700
; FORMAT={-:-/ absolute / metric / decimal}
; #@! TF.CreationDate,2026-07-20T15:10:30-07:00
; #@! TF.GenerationSoftware,Kicad,Pcbnew,9.0.2
; #@! TF.FileFunction,Plated,1,4,PTH
FMAT,2
METRIC
; #@! TA.AperFunction,Plated,PTH,ViaDrill
T1C0.300
; #@! TA.AperFunction,Plated,PTH,ComponentDrill
T2C0.600
; #@! TA.AperFunction,Plated,PTH,ComponentDrill
T3C0.840
; #@! TA.AperFunction,Plated,PTH,ComponentDrill
T4C0.850
; #@! TA.AperFunction,Plated,PTH,ComponentDrill
T5C1.000
; #@! TA.AperFunction,Plated,PTH,ComponentDrill
T6C2.700
; #@! TA.AperFunction,Plated,PTH,ComponentDrill
T7C4.500
%
G90
G05
T1
X100.889Y-106.02
X102.718Y-75.59
X103.835Y-86.766
X105.816Y-93.472
X105.918Y-42.266
X106.68Y-105.054
X106.782Y-63.043
X107.0Y-98.0
X107.146Y-111.25
X107.198Y-85.0
X109.423Y-107.086
X111.448Y-86.623
X111.448Y-112.873
X111.623Y-99.623
X112.471Y-121.92
X112.573Y-61.519
X112.624Y-67.97
X112.776Y-74.473
X112.903Y-70.612
X113.146Y-96.7
X113.146Y-110.0
X113.386Y-51.613
X113.396Y-83.7
X113.396Y-114.1
X113.5Y-101.0
X113.69Y-80.264
X113.698Y-87.876
X114.396Y-85.0
X114.396Y-98.0
X114.396Y-111.25
X117.45Y-62.84
X117.983Y-73.914
X118.77Y-76.403
X119.228Y-55.931
X119.38Y-65.634
X119.99Y-110.49
X120.244Y-96.723
X122.396Y-89.5
X122.396Y-90.25
X122.396Y-91.0
X122.396Y-115.5
X122.396Y-116.25
X122.396Y-117.0
X122.646Y-102.25
X122.646Y-103.0
X122.646Y-103.75
X122.733Y-96.622
X122.936Y-122.377
X123.146Y-89.5
X123.146Y-90.25
X123.146Y-91.0
X123.146Y-115.5
X123.146Y-116.25
X123.146Y-117.0
X123.396Y-102.25
X123.396Y-103.0
X123.396Y-103.75
X123.495Y-67.97
X123.896Y-89.5
X123.896Y-90.25
X123.896Y-91.0
X123.896Y-115.5
X123.896Y-116.25
X123.896Y-117.0
X124.146Y-102.25
X124.146Y-103.0
X124.146Y-103.75
X124.409Y-85.903
X125.213Y-82.559
X125.273Y-84.887
X125.324Y-122.733
X125.425Y-110.084
X126.086Y-51.156
X126.086Y-64.821
X126.441Y-68.021
X126.441Y-78.334
X126.492Y-125.273
X127.559Y-85.141
X127.864Y-99.263
X128.168Y-53.797
X128.372Y-119.024
X130.505Y-120.193
X131.156Y-88.503
X131.166Y-78.334
X131.166Y-89.303
X131.216Y-83.972
X131.724Y-67.259
X131.877Y-99.06
X132.283Y-47.955
X132.944Y-38.811
X132.993Y-85.344
X132.993Y-90.805
X132.993Y-92.582
X132.994Y-78.232
X132.994Y-91.745
X133.02Y-88.67
X133.502Y-122.225
X133.553Y-80.366
X133.722Y-81.606
X133.787Y-87.218
X134.287Y-82.171
X134.671Y-88.29
X134.722Y-84.582
X134.89Y-82.922
X134.925Y-100.94
X135.009Y-93.687
X135.179Y-114.198
X135.28Y-95.148
X135.534Y-86.36
X135.585Y-88.798
X136.093Y-74.422
X136.175Y-95.24
X136.223Y-89.86
X136.296Y-62.23
X136.296Y-65.227
X136.365Y-92.321
X136.525Y-77.47
X136.609Y-110.432
X137.325Y-88.915
X137.414Y-99.974
X137.516Y-83.261
X137.516Y-126.594
X137.668Y-93.066
X137.866Y-91.091
X137.963Y-111.786
X138.11Y-89.069
X138.184Y-73.414
X138.227Y-120.853
X139.446Y-66.192
X139.489Y-109.685
X139.713Y-72.733
X140.31Y-118.008
X140.513Y-104.699
X140.531Y-64.346
X140.716Y-99.314
X140.92Y-92.659
X141.122Y-121.666
X141.224Y-97.536
X141.316Y-87.478
X141.717Y-94.504
X141.717Y-95.91
X141.816Y-91.623
X141.986Y-125.476
X142.193Y-93.385
X142.555Y-88.929
X142.9Y-115.722
X142.994Y-71.163
X143.205Y-70.104
X143.307Y-68.326
X143.51Y-122.58
X143.561Y-124.054
X143.695Y-94.694
X143.695Y-97.01
X143.713Y-99.263
X143.764Y-63.703
X144.018Y-70.002
X144.12Y-96.012
X144.221Y-78.638
X144.313Y-98.45
X144.728Y-68.401
X144.831Y-84.988
X145.136Y-99.06
X145.186Y-95.25
X145.237Y-65.634
X145.339Y-102.819
X145.491Y-67.716
X145.745Y-103.988
X146.101Y-109.88
X146.202Y-113.894
X146.456Y-122.53
X147.117Y-99.162
X147.218Y-62.586
X147.418Y-108.977
X147.523Y-85.903
X147.523Y-109.931
X147.523Y-114.91
X147.836Y-70.315
X147.879Y-97.892
X148.438Y-113.792
X148.438Y-117.196
X148.539Y-69.494
X148.692Y-89.052
X148.692Y-103.124
X148.793Y-75.997
X148.895Y-96.926
X148.946Y-79.045
X149.708Y-103.48
X150.012Y-110.033
X150.283Y-113.623
X150.368Y-50.952
X150.52Y-54.508
X150.774Y-45.161
X151.232Y-58.268
X151.536Y-125.578
X151.578Y-91.034
X151.638Y-39.014
X151.892Y-99.111
X152.095Y-104.394
X152.095Y-123.393
X152.146Y-78.232
X152.857Y-113.741
X152.908Y-68.377
X153.01Y-97.942
X153.111Y-62.433
X153.213Y-125.476
X153.416Y-110.236
X153.568Y-66.65
X153.822Y-98.603
X154.229Y-74.473
X154.381Y-110.134
X154.422Y-86.563
X154.483Y-67.615
X154.519Y-95.569
X154.534Y-84.277
X154.686Y-98.146
X154.994Y-93.316
X155.042Y-110.693
X155.143Y-69.494
X155.397Y-55.982
X155.591Y-88.95
X155.6Y-98.349
X156.15Y-96.524
X156.362Y-88.087
X156.566Y-71.679
X156.87Y-76.962
X156.921Y-70.51
X156.972Y-58.369
X157.226Y-87.071
X157.277Y-39.776
X157.334Y-90.653
X157.429Y-82.55
X157.582Y-69.596
X157.753Y-94.884
X157.775Y-77.47
X157.785Y-93.218
X157.937Y-86.462
X157.937Y-92.05
X158.003Y-126.342
X158.775Y-79.07
X158.801Y-126.289
X158.902Y-84.48
X159.106Y-74.574
X159.164Y-93.53
X159.387Y-94.793
X159.42Y-91.973
X159.461Y-108.61
X159.512Y-79.654
X159.512Y-124.054
X159.664Y-88.748
X159.918Y-74.066
X160.071Y-69.545
X160.376Y-58.826
X160.579Y-114.249
X160.68Y-74.651
X160.855Y-75.431
X161.113Y-91.542
X161.392Y-71.323
X161.45Y-83.006
X161.544Y-76.962
X161.646Y-61.163
X161.849Y-95.25
X161.925Y-75.667
X162.001Y-89.256
X162.509Y-63.094
X163.202Y-92.304
X163.22Y-96.825
X163.779Y-81.534
X164.389Y-76.048
X165.049Y-63.094
X165.354Y-83.058
X165.608Y-80.823
X166.014Y-64.211
X166.252Y-85.331
X168.656Y-87.935
X168.758Y-115.418
X169.012Y-85.903
X169.621Y-83.769
X169.875Y-67.92
X170.231Y-77.673
X171.094Y-105.054
X172.822Y-121.971
X174.904Y-95.91
X175.26Y-75.286
X176.682Y-114.452
X177.089Y-101.803
X177.952Y-86.716
X179.426Y-78.638
X180.696Y-125.273
X182.931Y-72.187
X184.404Y-109.677
X186.487Y-40.284
X187.554Y-95.352
X187.604Y-88.29
X187.604Y-120.599
X188.011Y-77.165
X189.89Y-103.937
X190.195Y-47.803
X190.551Y-82.956
X190.856Y-91.999
X190.957Y-90.932
X192.329Y-64.872
T3
X156.515Y-62.992
X158.311Y-61.196
X158.311Y-62.992
X158.311Y-64.788
X159.9Y-66.363
X160.107Y-62.992
X161.696Y-64.567
X161.696Y-66.363
X161.696Y-68.159
X163.492Y-66.363
X163.997Y-70.561
X165.793Y-68.765
X165.793Y-70.561
X165.793Y-72.357
X167.553Y-74.168
X167.589Y-70.561
X169.349Y-72.372
X169.349Y-74.168
X169.349Y-75.964
X171.145Y-74.168
T4
X105.0Y-59.0
X105.0Y-61.0
X105.0Y-65.0
X105.0Y-67.0
X105.0Y-71.0
X105.0Y-73.0
X107.0Y-61.0
X107.0Y-59.0
X107.0Y-67.0
X107.0Y-71.0
X107.0Y-73.0
X107.0Y-65.0
X109.0Y-59.0
X109.0Y-61.0
X109.0Y-65.0
X109.0Y-71.0
X109.0Y-73.0
X109.0Y-67.0
X124.222Y-73.0
X125.637Y-71.585
X125.637Y-74.414
X127.051Y-73.0
X164.295Y-99.357
X165.71Y-97.942
X165.71Y-100.771
X167.124Y-96.528
X167.124Y-99.357
X168.538Y-97.942
T5
X115.824Y-69.215
X115.824Y-71.755
X115.824Y-74.295
X115.824Y-76.835
X129.413Y-78.608
X129.413Y-81.148
X132.588Y-112.136
X132.588Y-114.676
T6
X103.632Y-37.795
X103.632Y-125.781
X189.586Y-37.795
X189.586Y-125.781
T7
X117.202Y-40.742
X124.402Y-40.742
T2
G00X189.834Y-87.376
M15
G01X190.934Y-87.376
M16
G05
G00X189.834Y-96.016
M15
G01X190.934Y-96.016
M16
G05
G00X194.264Y-87.376
M15
G01X194.864Y-87.376
M16
G05
G00X194.264Y-96.016
M15
G01X194.864Y-96.016
M16
G05
M30
